NotoSansBengali-Condensed.ufo
<glyph name="quotedbl.beng" format="2">
  <advance width="444"/>
  <unicode hex="0022"/>
  <outline>
    <contour>
      <point x="117" y="471" type="line"/>
      <point x="177" y="471" type="line"/>
      <point x="194" y="729" type="line"/>
      <point x="100" y="729" type="line"/>
    </contour>
    <contour>
      <point x="281" y="471" type="line"/>
      <point x="341" y="471" type="line"/>
      <point x="358" y="729" type="line"/>
      <point x="264" y="729" type="line"/>
    </contour>
  </outline>
</glyph>
<glyph name="parenleft.beng" format="2">
  <advance width="375"/>
  <unicode hex="0028"/>
  <outline>
    <contour>
      <point x="228" y="-135" type="curve"/>
      <point x="304" y="-135" type="line"/>
      <point x="228" y="-4"/>
      <point x="188" y="154"/>
      <point x="188" y="330" type="curve" smooth="yes"/>
      <point x="188" y="503"/>
      <point x="228" y="661"/>
      <point x="303" y="792" type="curve"/>
      <point x="228" y="792" type="line"/>
      <point x="151" y="666"/>
      <point x="109" y="506"/>
      <point x="109" y="330" type="curve" smooth="yes"/>
      <point x="109" y="151"/>
      <point x="151" y="-9"/>
    </contour>
  </outline>
</glyph>
<glyph name="parenright.beng" format="2">
  <advance width="375"/>
  <unicode hex="0029"/>
  <outline>
    <contour>
      <point x="72" y="-135" type="curve"/>
      <point x="147" y="-135" type="line"/>
      <point x="224" y="-9"/>
      <point x="266" y="151"/>
      <point x="266" y="327" type="curve" smooth="yes"/>
      <point x="266" y="506"/>
      <point x="224" y="666"/>
      <point x="147" y="792" type="curve"/>
      <point x="71" y="792" type="line"/>
      <point x="147" y="661"/>
      <point x="187" y="503"/>
      <point x="187" y="328" type="curve" smooth="yes"/>
      <point x="187" y="154"/>
      <point x="147" y="-4"/>
    </contour>
  </outline>
</glyph>
<glyph name="asterisk.beng" format="2">
  <advance width="544"/>
  <unicode hex="002A"/>
  <outline>
    <contour>
      <point x="115" y="360" type="line"/>
      <point x="201" y="316" type="line"/>
      <point x="274" y="481" type="line"/>
      <point x="356" y="316" type="line"/>
      <point x="438" y="360" type="line"/>
      <point x="325" y="511" type="line"/>
      <point x="500" y="525" type="line"/>
      <point x="488" y="614" type="line"/>
      <point x="304" y="564" type="line"/>
      <point x="323" y="745" type="line"/>
      <point x="228" y="745" type="line"/>
      <point x="248" y="564" type="line"/>
      <point x="67" y="614" type="line"/>
      <point x="54" y="525" type="line"/>
      <point x="227" y="511" type="line"/>
    </contour>
  </outline>
</glyph>
<glyph name="plus.beng" format="2">
  <advance width="437"/>
  <unicode hex="002B"/>
  <outline>
    <contour>
      <point x="184" y="288" type="line"/>
      <point x="184" y="117" type="line"/>
      <point x="253" y="117" type="line"/>
      <point x="253" y="288" type="line"/>
      <point x="389" y="288" type="line"/>
      <point x="389" y="357" type="line"/>
      <point x="253" y="357" type="line"/>
      <point x="253" y="527" type="line"/>
      <point x="184" y="527" type="line"/>
      <point x="184" y="357" type="line"/>
      <point x="48" y="357" type="line"/>
      <point x="48" y="288" type="line"/>
    </contour>
  </outline>
</glyph>
<glyph name="comma.beng" format="2">
  <advance width="265"/>
  <unicode hex="002C"/>
  <outline>
    <contour>
      <point x="187" y="117" type="line"/>
      <point x="101" y="117" type="line"/>
      <point x="94" y="45"/>
      <point x="79" y="-38"/>
      <point x="58" y="-119" type="curve"/>
      <point x="120" y="-119" type="line"/>
      <point x="152" y="-47"/>
      <point x="174" y="22"/>
      <point x="194" y="106" type="curve"/>
    </contour>
  </outline>
</glyph>
<glyph name="period.beng" format="2">
  <advance width="252"/>
  <unicode hex="002E"/>
  <outline>
    <contour>
      <point x="72" y="50" type="curve" smooth="yes"/>
      <point x="72" y="8"/>
      <point x="92" y="-14"/>
      <point x="126" y="-14" type="curve" smooth="yes"/>
      <point x="158" y="-14"/>
      <point x="180" y="6"/>
      <point x="180" y="50" type="curve" smooth="yes"/>
      <point x="180" y="95"/>
      <point x="159" y="114"/>
      <point x="126" y="114" type="curve" smooth="yes"/>
      <point x="91" y="114"/>
      <point x="72" y="92"/>
    </contour>
  </outline>
</glyph>
<glyph name="slash.beng" format="2">
  <advance width="419"/>
  <unicode hex="002F"/>
  <outline>
    <contour>
      <point x="296" y="792" type="line"/>
      <point x="47" y="-135" type="line"/>
      <point x="123" y="-135" type="line"/>
      <point x="372" y="792" type="line"/>
    </contour>
  </outline>
</glyph>
<glyph name="two.beng" format="2">
  <advance width="411"/>
  <unicode hex="0032"/>
  <outline>
    <contour>
      <point x="25" y="62" type="line"/>
      <point x="25" y="0" type="line"/>
      <point x="374" y="0" type="line"/>
      <point x="374" y="75" type="line"/>
      <point x="125" y="75" type="line"/>
      <point x="125" y="79" type="line"/>
      <point x="246" y="261" type="line" smooth="yes"/>
      <point x="305" y="349"/>
      <point x="360" y="431"/>
      <point x="360" y="539" type="curve" smooth="yes"/>
      <point x="360" y="651"/>
      <point x="296" y="724"/>
      <point x="189" y="724" type="curve" smooth="yes"/>
      <point x="130" y="724"/>
      <point x="85" y="705"/>
      <point x="30" y="658" type="curve"/>
      <point x="72" y="601" type="line"/>
      <point x="108" y="634"/>
      <point x="141" y="651"/>
      <point x="182" y="651" type="curve" smooth="yes"/>
      <point x="243" y="651"/>
      <point x="277" y="610"/>
      <point x="277" y="532" type="curve" smooth="yes"/>
      <point x="277" y="455"/>
      <point x="241" y="384"/>
      <point x="175" y="286" type="curve" smooth="yes"/>
    </contour>
  </outline>
</glyph>
<glyph name="five.beng" format="2">
  <advance width="411"/>
  <unicode hex="0035"/>
  <outline>
    <contour>
      <point x="167" y="-10" type="curve" smooth="yes"/>
      <point x="300" y="-10"/>
      <point x="368" y="85"/>
      <point x="368" y="230" type="curve" smooth="yes"/>
      <point x="368" y="354"/>
      <point x="303" y="438"/>
      <point x="195" y="438" type="curve" smooth="yes"/>
      <point x="171" y="438"/>
      <point x="150" y="436"/>
      <point x="123" y="429" type="curve"/>
      <point x="140" y="637" type="line"/>
      <point x="330" y="637" type="line"/>
      <point x="330" y="714" type="line"/>
      <point x="72" y="714" type="line"/>
      <point x="45" y="383" type="line"/>
      <point x="78" y="351" type="line"/>
      <point x="110" y="361"/>
      <point x="135" y="367"/>
      <point x="172" y="367" type="curve" smooth="yes"/>
      <point x="240" y="367"/>
      <point x="284" y="325"/>
      <point x="284" y="225" type="curve" smooth="yes"/>
      <point x="284" y="129"/>
      <point x="251" y="62"/>
      <point x="161" y="62" type="curve" smooth="yes"/>
      <point x="118" y="62"/>
      <point x="77" y="77"/>
      <point x="39" y="102" type="curve"/>
      <point x="39" y="20" type="line"/>
      <point x="72" y="0"/>
      <point x="112" y="-10"/>
    </contour>
  </outline>
</glyph>
<glyph name="nine.beng" format="2">
  <advance width="411"/>
  <unicode hex="0039"/>
  <outline>
    <contour>
      <point x="141" y="-10" type="curve" smooth="yes"/>
      <point x="335" y="-10"/>
      <point x="365" y="199"/>
      <point x="365" y="410" type="curve" smooth="yes"/>
      <point x="365" y="614"/>
      <point x="304" y="724"/>
      <point x="194" y="724" type="curve" smooth="yes"/>
      <point x="86" y="724"/>
      <point x="33" y="626"/>
      <point x="33" y="488" type="curve" smooth="yes"/>
      <point x="33" y="362"/>
      <point x="79" y="268"/>
      <point x="176" y="268" type="curve" smooth="yes"/>
      <point x="229" y="268"/>
      <point x="259" y="295"/>
      <point x="282" y="344" type="curve"/>
      <point x="286" y="344" type="line"/>
      <point x="277" y="188"/>
      <point x="257" y="61"/>
      <point x="131" y="61" type="curve" smooth="yes"/>
      <point x="116" y="61"/>
      <point x="90" y="63"/>
      <point x="73" y="71" type="curve"/>
      <point x="73" y="-1" type="line"/>
      <point x="90" y="-7"/>
      <point x="122" y="-10"/>
    </contour>
    <contour>
      <point x="194" y="335" type="curve" smooth="yes"/>
      <point x="141" y="335"/>
      <point x="115" y="386"/>
      <point x="115" y="490" type="curve" smooth="yes"/>
      <point x="115" y="601"/>
      <point x="144" y="652"/>
      <point x="195" y="652" type="curve" smooth="yes"/>
      <point x="260" y="652"/>
      <point x="281" y="558"/>
      <point x="281" y="466" type="curve" smooth="yes"/>
      <point x="281" y="395"/>
      <point x="253" y="335"/>
    </contour>
  </outline>
</glyph>
<glyph name="semicolon.beng" format="2">
  <advance width="278"/>
  <unicode hex="003B"/>
  <outline>
    <contour>
      <point x="192" y="116" type="line"/>
      <point x="107" y="116" type="line"/>
      <point x="99" y="44"/>
      <point x="85" y="-38"/>
      <point x="63" y="-120" type="curve"/>
      <point x="125" y="-120" type="line"/>
      <point x="157" y="-48"/>
      <point x="180" y="21"/>
      <point x="199" y="105" type="curve"/>
    </contour>
    <contour>
      <point x="139" y="418" type="curve" smooth="yes"/>
      <point x="170" y="418"/>
      <point x="193" y="439"/>
      <point x="193" y="483" type="curve" smooth="yes"/>
      <point x="193" y="525"/>
      <point x="174" y="547"/>
      <point x="139" y="547" type="curve" smooth="yes"/>
      <point x="103" y="547"/>
      <point x="85" y="525"/>
      <point x="85" y="483" type="curve" smooth="yes"/>
      <point x="85" y="440"/>
      <point x="104" y="418"/>
    </contour>
  </outline>
</glyph>
<glyph name="less.beng" format="2">
  <advance width="437"/>
  <unicode hex="003C"/>
  <outline>
    <contour>
      <point x="48" y="298" type="line"/>
      <point x="389" y="115" type="line"/>
      <point x="389" y="191" type="line"/>
      <point x="136" y="322" type="line"/>
      <point x="389" y="453" type="line"/>
      <point x="389" y="529" type="line"/>
      <point x="48" y="346" type="line"/>
    </contour>
  </outline>
</glyph>
<glyph name="equal.beng" format="2">
  <advance width="437"/>
  <unicode hex="003D"/>
  <outline>
    <contour>
      <point x="53" y="451" type="line"/>
      <point x="53" y="382" type="line"/>
      <point x="384" y="382" type="line"/>
      <point x="384" y="451" type="line"/>
    </contour>
    <contour>
      <point x="53" y="262" type="line"/>
      <point x="53" y="193" type="line"/>
      <point x="384" y="193" type="line"/>
      <point x="384" y="262" type="line"/>
    </contour>
  </outline>
</glyph>
<glyph name="greater.beng" format="2">
  <advance width="437"/>
  <unicode hex="003E"/>
  <outline>
    <contour>
      <point x="48" y="191" type="line"/>
      <point x="48" y="115" type="line"/>
      <point x="389" y="298" type="line"/>
      <point x="389" y="346" type="line"/>
      <point x="48" y="529" type="line"/>
      <point x="48" y="453" type="line"/>
      <point x="301" y="322" type="line"/>
    </contour>
  </outline>
</glyph>
<glyph name="bracketleft.beng" format="2">
  <advance width="379"/>
  <unicode hex="005B"/>
  <outline>
    <contour>
      <point x="138" y="792" type="line"/>
      <point x="138" y="-135" type="line"/>
      <point x="308" y="-135" type="line"/>
      <point x="308" y="-68" type="line"/>
      <point x="215" y="-68" type="line"/>
      <point x="215" y="725" type="line"/>
      <point x="308" y="725" type="line"/>
      <point x="308" y="792" type="line"/>
    </contour>
  </outline>
</glyph>
<glyph name="backslash.beng" format="2">
  <advance width="419"/>
  <unicode hex="005C"/>
  <outline>
    <contour>
      <point x="47" y="792" type="line"/>
      <point x="296" y="-135" type="line"/>
      <point x="372" y="-135" type="line"/>
      <point x="123" y="792" type="line"/>
    </contour>
  </outline>
</glyph>
<glyph name="bracketright.beng" format="2">
  <advance width="379"/>
  <unicode hex="005D"/>
  <outline>
    <contour>
      <point x="71" y="-68" type="line"/>
      <point x="71" y="-135" type="line"/>
      <point x="241" y="-135" type="line"/>
      <point x="241" y="792" type="line"/>
      <point x="71" y="792" type="line"/>
      <point x="71" y="725" type="line"/>
      <point x="162" y="725" type="line"/>
      <point x="162" y="-68" type="line"/>
    </contour>
  </outline>
</glyph>
<glyph name="asciicircum.beng" format="2">
  <advance width="437"/>
  <unicode hex="005E"/>
  <outline>
    <contour>
      <point x="192" y="719" type="line"/>
      <point x="27" y="332" type="line"/>
      <point x="97" y="332" type="line"/>
      <point x="216" y="621" type="line"/>
      <point x="339" y="332" type="line"/>
      <point x="410" y="332" type="line"/>
      <point x="239" y="719" type="line"/>
    </contour>
  </outline>
</glyph>
<glyph name="underscore.beng" format="2">
  <advance width="296"/>
  <unicode hex="005F"/>
  <outline>
    <contour>
      <point x="0" y="-90" type="line"/>
      <point x="0" y="-155" type="line"/>
      <point x="296" y="-155" type="line"/>
      <point x="296" y="-90" type="line"/>
    </contour>
  </outline>
</glyph>
<glyph name="braceleft.beng" format="2">
  <advance width="382"/>
  <unicode hex="007B"/>
  <outline>
    <contour>
      <point x="71" y="362" type="curve"/>
      <point x="71" y="294" type="line"/>
      <point x="134" y="294"/>
      <point x="161" y="267"/>
      <point x="161" y="201" type="curve" smooth="yes"/>
      <point x="161" y="5" type="line" smooth="yes"/>
      <point x="161" y="-95"/>
      <point x="207" y="-133"/>
      <point x="311" y="-135" type="curve"/>
      <point x="311" y="-67" type="line"/>
      <point x="262" y="-66"/>
      <point x="238" y="-53"/>
      <point x="238" y="11" type="curve" smooth="yes"/>
      <point x="238" y="206" type="line" smooth="yes"/>
      <point x="238" y="274"/>
      <point x="211" y="312"/>
      <point x="160" y="325" type="curve"/>
      <point x="160" y="330" type="line"/>
      <point x="211" y="344"/>
      <point x="238" y="383"/>
      <point x="238" y="450" type="curve" smooth="yes"/>
      <point x="238" y="646" type="line" smooth="yes"/>
      <point x="238" y="709"/>
      <point x="262" y="723"/>
      <point x="311" y="724" type="curve"/>
      <point x="311" y="792" type="line"/>
      <point x="207" y="790"/>
      <point x="161" y="750"/>
      <point x="161" y="651" type="curve" smooth="yes"/>
      <point x="161" y="455" type="line" smooth="yes"/>
      <point x="161" y="389"/>
      <point x="133" y="362"/>
    </contour>
  </outline>
</glyph>
<glyph name="bar.beng" format="2">
  <advance width="396"/>
  <unicode hex="007C"/>
  <outline>
    <contour>
      <point x="165" y="792" type="line"/>
      <point x="165" y="-135" type="line"/>
      <point x="232" y="-135" type="line"/>
      <point x="232" y="792" type="line"/>
    </contour>
  </outline>
</glyph>
<glyph name="braceright.beng" format="2">
  <advance width="382"/>
  <unicode hex="007D"/>
  <outline>
    <contour>
      <point x="311" y="294" type="curve"/>
      <point x="311" y="362" type="line"/>
      <point x="248" y="362"/>
      <point x="221" y="389"/>
      <point x="221" y="455" type="curve" smooth="yes"/>
      <point x="221" y="652" type="line" smooth="yes"/>
      <point x="221" y="752"/>
      <point x="175" y="790"/>
      <point x="71" y="792" type="curve"/>
      <point x="71" y="724" type="line"/>
      <point x="120" y="723"/>
      <point x="144" y="710"/>
      <point x="144" y="646" type="curve" smooth="yes"/>
      <point x="144" y="450" type="line" smooth="yes"/>
      <point x="144" y="382"/>
      <point x="171" y="344"/>
      <point x="222" y="331" type="curve"/>
      <point x="222" y="326" type="line"/>
      <point x="171" y="312"/>
      <point x="144" y="273"/>
      <point x="144" y="206" type="curve" smooth="yes"/>
      <point x="144" y="11" type="line" smooth="yes"/>
      <point x="144" y="-52"/>
      <point x="120" y="-66"/>
      <point x="71" y="-67" type="curve"/>
      <point x="71" y="-135" type="line"/>
      <point x="175" y="-133"/>
      <point x="221" y="-93"/>
      <point x="221" y="6" type="curve" smooth="yes"/>
      <point x="221" y="201" type="line" smooth="yes"/>
      <point x="221" y="267"/>
      <point x="249" y="294"/>
    </contour>
  </outline>
</glyph>
<glyph name="asciitilde.beng" format="2">
  <advance width="437"/>
  <unicode hex="007E"/>
  <outline>
    <contour>
      <point x="48" y="337" type="curve"/>
      <point x="48" y="262" type="line"/>
      <point x="73" y="294"/>
      <point x="103" y="317"/>
      <point x="134" y="317" type="curve" smooth="yes"/>
      <point x="154" y="317"/>
      <point x="170" y="309"/>
      <point x="204" y="290" type="curve" smooth="yes"/>
      <point x="251" y="263"/>
      <point x="269" y="258"/>
      <point x="298" y="258" type="curve" smooth="yes"/>
      <point x="334" y="258"/>
      <point x="361" y="276"/>
      <point x="389" y="307" type="curve"/>
      <point x="389" y="383" type="line"/>
      <point x="361" y="352"/>
      <point x="337" y="327"/>
      <point x="306" y="327" type="curve" smooth="yes"/>
      <point x="281" y="327"/>
      <point x="268" y="334"/>
      <point x="232" y="354" type="curve" smooth="yes"/>
      <point x="186" y="380"/>
      <point x="168" y="386"/>
      <point x="140" y="386" type="curve" smooth="yes"/>
      <point x="105" y="386"/>
      <point x="77" y="369"/>
    </contour>
  </outline>
</glyph>
<glyph name="multiply.beng" format="2">
  <advance width="437"/>
  <unicode hex="00D7"/>
  <outline>
    <contour>
      <point x="218" y="278" type="line"/>
      <point x="349" y="144" type="line"/>
      <point x="396" y="191" type="line"/>
      <point x="263" y="323" type="line"/>
      <point x="396" y="454" type="line"/>
      <point x="349" y="501" type="line"/>
      <point x="218" y="367" type="line"/>
      <point x="87" y="501" type="line"/>
      <point x="40" y="454" type="line"/>
      <point x="173" y="323" type="line"/>
      <point x="40" y="191" type="line"/>
      <point x="87" y="144" type="line"/>
    </contour>
  </outline>
</glyph>
<glyph name="divide.beng" format="2">
  <advance width="437"/>
  <unicode hex="00F7"/>
  <outline>
    <contour>
      <point x="48" y="357" type="line"/>
      <point x="48" y="288" type="line"/>
      <point x="389" y="288" type="line"/>
      <point x="389" y="357" type="line"/>
    </contour>
    <contour>
      <point x="217" y="99" type="curve" smooth="yes"/>
      <point x="245" y="99"/>
      <point x="269" y="116"/>
      <point x="269" y="155" type="curve" smooth="yes"/>
      <point x="269" y="195"/>
      <point x="245" y="211"/>
      <point x="217" y="211" type="curve" smooth="yes"/>
      <point x="190" y="211"/>
      <point x="167" y="195"/>
      <point x="167" y="155" type="curve" smooth="yes"/>
      <point x="167" y="116"/>
      <point x="190" y="99"/>
    </contour>
    <contour>
      <point x="217" y="436" type="curve" smooth="yes"/>
      <point x="245" y="436"/>
      <point x="269" y="453"/>
      <point x="269" y="492" type="curve" smooth="yes"/>
      <point x="269" y="532"/>
      <point x="245" y="548"/>
      <point x="217" y="548" type="curve" smooth="yes"/>
      <point x="190" y="548"/>
      <point x="167" y="532"/>
      <point x="167" y="492" type="curve" smooth="yes"/>
      <point x="167" y="453"/>
      <point x="190" y="436"/>
    </contour>
  </outline>
</glyph>
<glyph name="uni0951" format="2">
  <unicode hex="0951"/>
  <outline>
    <contour>
      <point x="-220" y="917" type="line"/>
      <point x="-288" y="917" type="line"/>
      <point x="-288" y="636" type="line"/>
      <point x="-220" y="636" type="line"/>
    </contour>
  </outline>
</glyph>
<glyph name="uni0952" format="2">
  <unicode hex="0952"/>
  <outline>
    <contour>
      <point x="-415" y="-186" type="line"/>
      <point x="-95" y="-186" type="line"/>
      <point x="-95" y="-119" type="line"/>
      <point x="-415" y="-119" type="line"/>
    </contour>
  </outline>
</glyph>
<glyph name="dandadeva" format="2">
  <advance width="356"/>
  <unicode hex="0964"/>
  <outline>
    <contour>
      <point x="181" y="0" type="line"/>
      <point x="252" y="0" type="line"/>
      <point x="252" y="622" type="line"/>
      <point x="181" y="622" type="line"/>
    </contour>
  </outline>
</glyph>
<glyph name="dbldandadeva" format="2">
  <advance width="538"/>
  <unicode hex="0965"/>
  <outline>
    <contour>
      <point x="363" y="0" type="line"/>
      <point x="434" y="0" type="line"/>
      <point x="434" y="622" type="line"/>
      <point x="363" y="622" type="line"/>
    </contour>
    <contour>
      <point x="181" y="0" type="line"/>
      <point x="252" y="0" type="line"/>
      <point x="252" y="622" type="line"/>
      <point x="181" y="622" type="line"/>
    </contour>
  </outline>
</glyph>
<glyph name="uni0980" format="2">
  <advance width="404"/>
  <unicode hex="0980"/>
  <outline>
    <contour>
      <point x="250" y="284" type="curve"/>
      <point x="237" y="355" type="line"/>
      <point x="218" y="349"/>
      <point x="201" y="348"/>
      <point x="184" y="348" type="curve" smooth="yes"/>
      <point x="139" y="348"/>
      <point x="112" y="362"/>
      <point x="112" y="435" type="curve" smooth="yes"/>
      <point x="112" y="521"/>
      <point x="160" y="591"/>
      <point x="214" y="591" type="curve" smooth="yes"/>
      <point x="229" y="591"/>
      <point x="239" y="587"/>
      <point x="246" y="580" type="curve" smooth="yes"/>
      <point x="260" y="566"/>
      <point x="262" y="538"/>
      <point x="262" y="489" type="curve" smooth="yes"/>
      <point x="262" y="97" type="line" smooth="yes"/>
      <point x="262" y="1"/>
      <point x="284" y="-42"/>
      <point x="384" y="-49" type="curve"/>
      <point x="391" y="25" type="line"/>
      <point x="347" y="29"/>
      <point x="335" y="41"/>
      <point x="335" y="109" type="curve" smooth="yes"/>
      <point x="335" y="502" type="line" smooth="yes"/>
      <point x="335" y="571"/>
      <point x="326" y="608"/>
      <point x="295" y="635" type="curve" smooth="yes"/>
      <point x="277" y="650"/>
      <point x="252" y="660"/>
      <point x="217" y="660" type="curve" smooth="yes"/>
      <point x="118" y="660"/>
      <point x="37" y="562"/>
      <point x="37" y="440" type="curve" smooth="yes"/>
      <point x="37" y="340"/>
      <point x="84" y="276"/>
      <point x="185" y="276" type="curve" smooth="yes"/>
      <point x="207" y="276"/>
      <point x="229" y="279"/>
    </contour>
  </outline>
</glyph>
<glyph name="candrabindubeng" format="2">
  <unicode hex="0981"/>
  <outline>
    <contour>
      <point x="34" y="862" type="curve"/>
      <point x="-30" y="869" type="line"/>
      <point x="-35" y="791"/>
      <point x="-54" y="748"/>
      <point x="-105" y="748" type="curve" smooth="yes"/>
      <point x="-160" y="748"/>
      <point x="-175" y="794"/>
      <point x="-180" y="868" type="curve"/>
      <point x="-243" y="861" type="line"/>
      <point x="-235" y="762"/>
      <point x="-196" y="685"/>
      <point x="-103" y="685" type="curve" smooth="yes"/>
      <point x="-9" y="685"/>
      <point x="27" y="763"/>
    </contour>
    <contour>
      <point x="-69" y="829" type="curve" smooth="yes"/>
      <point x="-69" y="857"/>
      <point x="-81" y="872"/>
      <point x="-105" y="872" type="curve" smooth="yes"/>
      <point x="-131" y="872"/>
      <point x="-140" y="853"/>
      <point x="-140" y="832" type="curve" smooth="yes"/>
      <point x="-140" y="806"/>
      <point x="-130" y="788"/>
      <point x="-105" y="788" type="curve" smooth="yes"/>
      <point x="-83" y="788"/>
      <point x="-69" y="803"/>
    </contour>
  </outline>
</glyph>
<glyph name="anusvarabeng" format="2">
  <advance width="358"/>
  <unicode hex="0982"/>
  <outline>
    <contour>
      <point x="116" y="314" type="curve"/>
      <point x="65" y="258" type="line"/>
      <point x="158" y="176"/>
      <point x="217" y="79"/>
      <point x="270" y="-41" type="curve"/>
      <point x="332" y="-18" type="line"/>
      <point x="281" y="112"/>
      <point x="212" y="232"/>
    </contour>
    <contour>
      <point x="61" y="486" type="curve" smooth="yes"/>
      <point x="61" y="398"/>
      <point x="111" y="350"/>
      <point x="180" y="350" type="curve" smooth="yes"/>
      <point x="248" y="350"/>
      <point x="297" y="398"/>
      <point x="297" y="486" type="curve" smooth="yes"/>
      <point x="297" y="574"/>
      <point x="248" y="622"/>
      <point x="180" y="622" type="curve" smooth="yes"/>
      <point x="111" y="622"/>
      <point x="61" y="574"/>
    </contour>
    <contour>
      <point x="124" y="486" type="curve" smooth="yes"/>
      <point x="124" y="538"/>
      <point x="146" y="562"/>
      <point x="180" y="562" type="curve" smooth="yes"/>
      <point x="212" y="562"/>
      <point x="234" y="538"/>
      <point x="234" y="486" type="curve" smooth="yes"/>
      <point x="234" y="434"/>
      <point x="212" y="410"/>
      <point x="180" y="410" type="curve" smooth="yes"/>
      <point x="146" y="410"/>
      <point x="124" y="434"/>
    </contour>
  </outline>
</glyph>
<glyph name="visargabeng" format="2">
  <advance width="358"/>
  <unicode hex="0983"/>
  <outline>
    <contour>
      <point x="61" y="486" type="curve" smooth="yes"/>
      <point x="61" y="398"/>
      <point x="111" y="350"/>
      <point x="180" y="350" type="curve" smooth="yes"/>
      <point x="248" y="350"/>
      <point x="297" y="398"/>
      <point x="297" y="486" type="curve" smooth="yes"/>
      <point x="297" y="574"/>
      <point x="248" y="622"/>
      <point x="180" y="622" type="curve" smooth="yes"/>
      <point x="111" y="622"/>
      <point x="61" y="574"/>
    </contour>
    <contour>
      <point x="124" y="486" type="curve" smooth="yes"/>
      <point x="124" y="538"/>
      <point x="146" y="562"/>
      <point x="180" y="562" type="curve" smooth="yes"/>
      <point x="212" y="562"/>
      <point x="234" y="538"/>
      <point x="234" y="486" type="curve" smooth="yes"/>
      <point x="234" y="434"/>
      <point x="212" y="410"/>
      <point x="180" y="410" type="curve" smooth="yes"/>
      <point x="146" y="410"/>
      <point x="124" y="434"/>
    </contour>
    <contour>
      <point x="61" y="136" type="curve" smooth="yes"/>
      <point x="61" y="48"/>
      <point x="111" y="0"/>
      <point x="180" y="0" type="curve" smooth="yes"/>
      <point x="248" y="0"/>
      <point x="297" y="48"/>
      <point x="297" y="136" type="curve" smooth="yes"/>
      <point x="297" y="224"/>
      <point x="248" y="272"/>
      <point x="180" y="272" type="curve" smooth="yes"/>
      <point x="111" y="272"/>
      <point x="61" y="224"/>
    </contour>
    <contour>
      <point x="124" y="136" type="curve" smooth="yes"/>
      <point x="124" y="188"/>
      <point x="146" y="212"/>
      <point x="180" y="212" type="curve" smooth="yes"/>
      <point x="212" y="212"/>
      <point x="234" y="188"/>
      <point x="234" y="136" type="curve" smooth="yes"/>
      <point x="234" y="84"/>
      <point x="212" y="60"/>
      <point x="180" y="60" type="curve" smooth="yes"/>
      <point x="146" y="60"/>
      <point x="124" y="84"/>
    </contour>
  </outline>
</glyph>
<glyph name="aabeng" format="2">
  <advance width="873"/>
  <unicode hex="0986"/>
  <outline>
    <contour>
      <point x="674" y="622" type="line"/>
      <point x="-6" y="622" type="line"/>
      <point x="-6" y="554" type="line"/>
      <point x="529" y="554" type="line"/>
      <point x="529" y="200" type="line" smooth="yes"/>
      <point x="529" y="175"/>
      <point x="530" y="142"/>
      <point x="532" y="110" type="curve"/>
      <point x="504" y="172"/>
      <point x="468" y="216"/>
      <point x="431" y="246" type="curve"/>
      <point x="407" y="182" type="line"/>
      <point x="455" y="138"/>
      <point x="497" y="82"/>
      <point x="529" y="0" type="curve"/>
      <point x="600" y="0" type="line"/>
      <point x="600" y="554" type="line"/>
      <point x="674" y="554" type="line"/>
    </contour>
    <contour>
      <point x="283" y="93" type="curve" smooth="yes"/>
      <point x="397" y="93"/>
      <point x="456" y="183"/>
      <point x="456" y="297" type="curve" smooth="yes"/>
      <point x="456" y="419"/>
      <point x="402" y="500"/>
      <point x="310" y="500" type="curve" smooth="yes"/>
      <point x="256" y="500"/>
      <point x="204" y="469"/>
      <point x="204" y="393" type="curve" smooth="yes"/>
      <point x="204" y="375"/>
      <point x="208" y="348"/>
      <point x="217" y="321" type="curve"/>
      <point x="284" y="335" type="line"/>
      <point x="279" y="349"/>
      <point x="276" y="368"/>
      <point x="276" y="383" type="curve" smooth="yes"/>
      <point x="276" y="413"/>
      <point x="290" y="432"/>
      <point x="316" y="432" type="curve" smooth="yes"/>
      <point x="358" y="432"/>
      <point x="386" y="381"/>
      <point x="386" y="298" type="curve" smooth="yes"/>
      <point x="386" y="229"/>
      <point x="355" y="166"/>
      <point x="282" y="166" type="curve" smooth="yes"/>
      <point x="194" y="166"/>
      <point x="140" y="256"/>
      <point x="91" y="467" type="curve"/>
      <point x="22" y="450" type="line"/>
      <point x="85" y="182"/>
      <point x="170" y="93"/>
    </contour>
    <contour>
      <point x="249" y="467" type="curve"/>
      <point x="322" y="470" type="line"/>
      <point x="317" y="527"/>
      <point x="289" y="556"/>
      <point x="230" y="582" type="curve"/>
      <point x="197" y="594" type="line"/>
      <point x="166" y="559" type="line"/>
      <point x="215" y="544"/>
      <point x="244" y="511"/>
    </contour>
    <contour>
      <point x="879" y="622" type="line"/>
      <point x="804" y="622" type="line"/>
      <point x="788" y="688" type="line"/>
      <point x="734" y="688" type="line"/>
      <point x="734" y="627" type="line" smooth="yes"/>
      <point x="734" y="608"/>
      <point x="735" y="586"/>
      <point x="737" y="569" type="curve"/>
      <point x="719" y="601"/>
      <point x="699" y="622"/>
      <point x="672" y="622" type="curve" smooth="yes"/>
      <point x="660" y="622" type="line"/>
      <point x="660" y="554" type="line"/>
      <point x="663" y="554" type="line" smooth="yes"/>
      <point x="695" y="554"/>
      <point x="717" y="526"/>
      <point x="734" y="485" type="curve"/>
      <point x="734" y="0" type="line"/>
      <point x="805" y="0" type="line"/>
      <point x="805" y="554" type="line"/>
      <point x="879" y="554" type="line"/>
    </contour>
  </outline>
</glyph>
<glyph name="ibeng" format="2">
  <advance width="396"/>
  <unicode hex="0987"/>
  <outline>
    <contour>
      <point x="259" y="622" type="curve"/>
      <point x="326" y="622" type="line"/>
      <point x="324" y="681"/>
      <point x="316" y="716"/>
      <point x="290" y="741" type="curve" smooth="yes"/>
      <point x="269" y="761"/>
      <point x="241" y="771"/>
      <point x="184" y="771" type="curve" smooth="yes"/>
      <point x="170" y="771" type="line" smooth="yes"/>
      <point x="123" y="771"/>
      <point x="102" y="778"/>
      <point x="86" y="792" type="curve" smooth="yes"/>
      <point x="67" y="808"/>
      <point x="61" y="834"/>
      <point x="61" y="866" type="curve" smooth="yes"/>
      <point x="61" y="879"/>
      <point x="62" y="892"/>
      <point x="64" y="907" type="curve"/>
      <point x="-3" y="912" type="line"/>
      <point x="-6" y="896"/>
      <point x="-8" y="877"/>
      <point x="-8" y="859" type="curve" smooth="yes"/>
      <point x="-8" y="808"/>
      <point x="5" y="766"/>
      <point x="36" y="739" type="curve" smooth="yes"/>
      <point x="64" y="715"/>
      <point x="104" y="702"/>
      <point x="173" y="702" type="curve" smooth="yes"/>
      <point x="185" y="702" type="line" smooth="yes"/>
      <point x="242" y="702"/>
      <point x="256" y="673"/>
    </contour>
    <component base="habeng"/>
  </outline>
</glyph>
<glyph name="iibeng" format="2">
  <advance width="517"/>
  <unicode hex="0988"/>
  <outline>
    <contour>
      <point x="158" y="92" type="curve" smooth="yes"/>
      <point x="206" y="92"/>
      <point x="234" y="124"/>
      <point x="278" y="212" type="curve" smooth="yes"/>
      <point x="333" y="323"/>
      <point x="378" y="378"/>
      <point x="432" y="417" type="curve"/>
      <point x="404" y="404" type="line"/>
      <point x="376" y="346"/>
      <point x="364" y="291"/>
      <point x="364" y="207" type="curve" smooth="yes"/>
      <point x="364" y="143"/>
      <point x="374" y="71"/>
      <point x="395" y="-7" type="curve"/>
      <point x="464" y="10" type="line"/>
      <point x="442" y="87"/>
      <point x="435" y="138"/>
      <point x="435" y="197" type="curve" smooth="yes"/>
      <point x="435" y="285"/>
      <point x="448" y="348"/>
      <point x="477" y="419" type="curve"/>
      <point x="410" y="480" type="line"/>
      <point x="335" y="430"/>
      <point x="280" y="344"/>
      <point x="247" y="270" type="curve"/>
      <point x="286" y="267" type="line"/>
      <point x="289" y="280"/>
      <point x="290" y="298"/>
      <point x="290" y="311" type="curve" smooth="yes"/>
      <point x="290" y="430"/>
      <point x="233" y="500"/>
      <point x="148" y="500" type="curve" smooth="yes"/>
      <point x="96" y="500"/>
      <point x="43" y="470"/>
      <point x="43" y="393" type="curve" smooth="yes"/>
      <point x="43" y="375"/>
      <point x="48" y="344"/>
      <point x="56" y="321" type="curve"/>
      <point x="123" y="335" type="line"/>
      <point x="119" y="348"/>
      <point x="115" y="367"/>
      <point x="115" y="383" type="curve" smooth="yes"/>
      <point x="115" y="413"/>
      <point x="129" y="432"/>
      <point x="155" y="432" type="curve" smooth="yes"/>
      <point x="201" y="432"/>
      <point x="226" y="373"/>
      <point x="226" y="306" type="curve" smooth="yes"/>
      <point x="226" y="282"/>
      <point x="226" y="254"/>
      <point x="208" y="221" type="curve" smooth="yes"/>
      <point x="183" y="176"/>
      <point x="170" y="167"/>
      <point x="154" y="167" type="curve" smooth="yes"/>
      <point x="137" y="167"/>
      <point x="127" y="176"/>
      <point x="111" y="220" type="curve"/>
      <point x="53" y="198" type="line"/>
      <point x="80" y="123"/>
      <point x="109" y="92"/>
    </contour>
    <contour>
      <point x="523" y="622" type="line"/>
      <point x="-6" y="622" type="line"/>
      <point x="-6" y="554" type="line"/>
      <point x="523" y="554" type="line"/>
    </contour>
    <contour>
      <point x="104" y="467" type="curve"/>
      <point x="177" y="470" type="line"/>
      <point x="172" y="527"/>
      <point x="144" y="556"/>
      <point x="85" y="582" type="curve"/>
      <point x="52" y="594" type="line"/>
      <point x="21" y="559" type="line"/>
      <point x="70" y="544"/>
      <point x="99" y="511"/>
    </contour>
    <contour>
      <point x="358" y="622" type="curve"/>
      <point x="425" y="622" type="line"/>
      <point x="423" y="681"/>
      <point x="415" y="716"/>
      <point x="389" y="741" type="curve" smooth="yes"/>
      <point x="368" y="761"/>
      <point x="340" y="771"/>
      <point x="283" y="771" type="curve" smooth="yes"/>
      <point x="212" y="771" type="line" smooth="yes"/>
      <point x="165" y="771"/>
      <point x="144" y="778"/>
      <point x="128" y="792" type="curve" smooth="yes"/>
      <point x="109" y="808"/>
      <point x="103" y="834"/>
      <point x="103" y="866" type="curve" smooth="yes"/>
      <point x="103" y="879"/>
      <point x="104" y="892"/>
      <point x="106" y="907" type="curve"/>
      <point x="39" y="912" type="line"/>
      <point x="36" y="896"/>
      <point x="34" y="877"/>
      <point x="34" y="859" type="curve" smooth="yes"/>
      <point x="34" y="808"/>
      <point x="47" y="766"/>
      <point x="78" y="739" type="curve" smooth="yes"/>
      <point x="106" y="715"/>
      <point x="146" y="702"/>
      <point x="215" y="702" type="curve" smooth="yes"/>
      <point x="284" y="702" type="line" smooth="yes"/>
      <point x="341" y="702"/>
      <point x="355" y="673"/>
    </contour>
  </outline>
</glyph>
<glyph name="ubeng" format="2">
  <advance width="525"/>
  <unicode hex="0989"/>
  <outline>
    <contour>
      <point x="365" y="622" type="curve"/>
      <point x="432" y="622" type="line"/>
      <point x="430" y="681"/>
      <point x="422" y="716"/>
      <point x="396" y="741" type="curve" smooth="yes"/>
      <point x="375" y="761"/>
      <point x="347" y="771"/>
      <point x="290" y="771" type="curve" smooth="yes"/>
      <point x="237" y="771" type="line" smooth="yes"/>
      <point x="190" y="771"/>
      <point x="169" y="778"/>
      <point x="153" y="792" type="curve" smooth="yes"/>
      <point x="134" y="808"/>
      <point x="128" y="834"/>
      <point x="128" y="866" type="curve" smooth="yes"/>
      <point x="128" y="879"/>
      <point x="129" y="892"/>
      <point x="131" y="907" type="curve"/>
      <point x="64" y="912" type="line"/>
      <point x="61" y="896"/>
      <point x="59" y="877"/>
      <point x="59" y="859" type="curve" smooth="yes"/>
      <point x="59" y="808"/>
      <point x="72" y="766"/>
      <point x="103" y="739" type="curve" smooth="yes"/>
      <point x="131" y="715"/>
      <point x="171" y="702"/>
      <point x="240" y="702" type="curve" smooth="yes"/>
      <point x="291" y="702" type="line" smooth="yes"/>
      <point x="348" y="702"/>
      <point x="362" y="673"/>
    </contour>
    <component base="ddabeng"/>
  </outline>
</glyph>
<glyph name="uubeng" format="2">
  <advance width="637"/>
  <unicode hex="098A"/>
  <outline>
    <contour>
      <point x="643" y="622" type="line"/>
      <point x="-6" y="622" type="line"/>
      <point x="-6" y="554" type="line"/>
      <point x="310" y="554" type="line"/>
      <point x="310" y="369" type="line" smooth="yes"/>
      <point x="310" y="315"/>
      <point x="318" y="290"/>
      <point x="336" y="270" type="curve" smooth="yes"/>
      <point x="351" y="254"/>
      <point x="374" y="245"/>
      <point x="399" y="245" type="curve" smooth="yes"/>
      <point x="451" y="245"/>
      <point x="495" y="285"/>
      <point x="531" y="372" type="curve"/>
      <point x="506" y="363" type="line"/>
      <point x="516" y="341"/>
      <point x="526" y="299"/>
      <point x="526" y="243" type="curve" smooth="yes"/>
      <point x="526" y="145"/>
      <point x="485" y="95"/>
      <point x="415" y="95" type="curve" smooth="yes"/>
      <point x="304" y="95"/>
      <point x="258" y="228"/>
      <point x="221" y="462" type="curve"/>
      <point x="152" y="449" type="line"/>
      <point x="182" y="268"/>
      <point x="225" y="163"/>
      <point x="293" y="97" type="curve"/>
      <point x="291" y="94" type="line"/>
      <point x="187" y="161"/>
      <point x="131" y="280"/>
      <point x="86" y="456" type="curve"/>
      <point x="18" y="439" type="line"/>
      <point x="106" y="123"/>
      <point x="242" y="24"/>
      <point x="403" y="24" type="curve" smooth="yes"/>
      <point x="532" y="24"/>
      <point x="597" y="108"/>
      <point x="597" y="245" type="curve" smooth="yes"/>
      <point x="597" y="313"/>
      <point x="579" y="376"/>
      <point x="552" y="438" type="curve"/>
      <point x="490" y="429" type="line"/>
      <point x="464" y="353"/>
      <point x="428" y="315"/>
      <point x="404" y="315" type="curve" smooth="yes"/>
      <point x="388" y="315"/>
      <point x="381" y="327"/>
      <point x="381" y="350" type="curve" smooth="yes"/>
      <point x="381" y="554" type="line"/>
      <point x="643" y="554" type="line"/>
    </contour>
    <contour>
      <point x="477" y="622" type="curve"/>
      <point x="544" y="622" type="line"/>
      <point x="542" y="681"/>
      <point x="534" y="716"/>
      <point x="508" y="741" type="curve" smooth="yes"/>
      <point x="487" y="761"/>
      <point x="459" y="771"/>
      <point x="402" y="771" type="curve" smooth="yes"/>
      <point x="293" y="771" type="line" smooth="yes"/>
      <point x="246" y="771"/>
      <point x="225" y="778"/>
      <point x="209" y="792" type="curve" smooth="yes"/>
      <point x="190" y="808"/>
      <point x="184" y="834"/>
      <point x="184" y="866" type="curve" smooth="yes"/>
      <point x="184" y="879"/>
      <point x="185" y="892"/>
      <point x="187" y="907" type="curve"/>
      <point x="120" y="912" type="line"/>
      <point x="117" y="896"/>
      <point x="115" y="877"/>
      <point x="115" y="859" type="curve" smooth="yes"/>
      <point x="115" y="808"/>
      <point x="128" y="766"/>
      <point x="159" y="739" type="curve" smooth="yes"/>
      <point x="187" y="715"/>
      <point x="227" y="702"/>
      <point x="296" y="702" type="curve" smooth="yes"/>
      <point x="403" y="702" type="line" smooth="yes"/>
      <point x="460" y="702"/>
      <point x="474" y="673"/>
    </contour>
  </outline>
</glyph>
<glyph name="rvocalicbeng" format="2">
  <advance width="645"/>
  <unicode hex="098B"/>
  <outline>
    <contour>
      <point x="403" y="688" type="line"/>
      <point x="350" y="688" type="line"/>
      <point x="350" y="479" type="line"/>
      <point x="261" y="440"/>
      <point x="164" y="379"/>
      <point x="85" y="316" type="curve"/>
      <point x="116" y="231" type="line"/>
      <point x="220" y="202"/>
      <point x="309" y="108"/>
      <point x="349" y="0" type="curve"/>
      <point x="421" y="0" type="line"/>
      <point x="421" y="622" type="line"/>
    </contour>
    <contour>
      <point x="350" y="404" type="curve"/>
      <point x="350" y="191" type="line"/>
      <point x="350" y="158"/>
      <point x="350" y="135"/>
      <point x="352" y="112" type="curve"/>
      <point x="309" y="207"/>
      <point x="244" y="257"/>
      <point x="164" y="288" type="curve"/>
      <point x="224" y="334"/>
      <point x="291" y="376"/>
    </contour>
    <contour>
      <point x="302" y="440" type="curve"/>
      <point x="352" y="472" type="line"/>
      <point x="329" y="534"/>
      <point x="301" y="589"/>
      <point x="280" y="625" type="curve"/>
      <point x="224" y="573" type="line"/>
      <point x="256" y="544"/>
      <point x="283" y="485"/>
    </contour>
    <contour>
      <point x="140" y="430" type="curve" smooth="yes"/>
      <point x="211" y="430"/>
      <point x="249" y="488"/>
      <point x="280" y="574" type="curve"/>
      <point x="280" y="625" type="line"/>
      <point x="227" y="612" type="line"/>
      <point x="198" y="511"/>
      <point x="168" y="498"/>
      <point x="143" y="498" type="curve" smooth="yes"/>
      <point x="123" y="498"/>
      <point x="110" y="514"/>
      <point x="110" y="541" type="curve" smooth="yes"/>
      <point x="110" y="566"/>
      <point x="118" y="592"/>
      <point x="125" y="607" type="curve"/>
      <point x="58" y="628" type="line"/>
      <point x="48" y="604"/>
      <point x="38" y="574"/>
      <point x="38" y="539" type="curve" smooth="yes"/>
      <point x="38" y="474"/>
      <point x="78" y="430"/>
    </contour>
    <contour>
      <point x="565" y="688" type="line"/>
      <point x="511" y="688" type="line"/>
      <point x="511" y="259" type="line" smooth="yes"/>
      <point x="511" y="227"/>
      <point x="513" y="182"/>
      <point x="516" y="152" type="curve"/>
      <point x="521" y="165" type="line"/>
      <point x="499" y="226"/>
      <point x="460" y="283"/>
      <point x="408" y="326" type="curve"/>
      <point x="387" y="263" type="line"/>
      <point x="437" y="221"/>
      <point x="481" y="149"/>
      <point x="511" y="73" type="curve"/>
      <point x="582" y="73" type="line"/>
      <point x="582" y="622" type="line"/>
    </contour>
  </outline>
</glyph>
<glyph name="lvocalicbeng" format="2">
  <advance width="470"/>
  <unicode hex="098C"/>
  <outline>
    <contour>
      <point x="153" y="314" type="curve" smooth="yes"/>
      <point x="82" y="314"/>
      <point x="40" y="270"/>
      <point x="40" y="210" type="curve" smooth="yes"/>
      <point x="40" y="184"/>
      <point x="45" y="158"/>
      <point x="53" y="136" type="curve"/>
      <point x="121" y="149" type="line"/>
      <point x="116" y="162"/>
      <point x="112" y="183"/>
      <point x="112" y="199" type="curve" smooth="yes"/>
      <point x="112" y="227"/>
      <point x="127" y="246"/>
      <point x="154" y="246" type="curve" smooth="yes"/>
      <point x="191" y="246"/>
      <point x="205" y="215"/>
      <point x="205" y="178" type="curve" smooth="yes"/>
      <point x="205" y="122"/>
      <point x="175" y="84"/>
      <point x="129" y="66" type="curve"/>
      <point x="146" y="0" type="line"/>
      <point x="171" y="0" type="line" smooth="yes"/>
      <point x="313" y="0"/>
      <point x="438" y="54"/>
      <point x="438" y="223" type="curve" smooth="yes"/>
      <point x="438" y="323"/>
      <point x="401" y="386"/>
      <point x="258" y="456" type="curve" smooth="yes"/>
      <point x="125" y="520"/>
      <point x="119" y="548"/>
      <point x="119" y="582" type="curve" smooth="yes"/>
      <point x="119" y="609"/>
      <point x="136" y="635"/>
      <point x="160" y="663" type="curve"/>
      <point x="106" y="702" type="line"/>
      <point x="69" y="659"/>
      <point x="44" y="620"/>
      <point x="44" y="572" type="curve" smooth="yes"/>
      <point x="44" y="496"/>
      <point x="83" y="458"/>
      <point x="210" y="394" type="curve" smooth="yes"/>
      <point x="331" y="333"/>
      <point x="364" y="290"/>
      <point x="364" y="216" type="curve" smooth="yes"/>
      <point x="364" y="134"/>
      <point x="313" y="84"/>
      <point x="226" y="70" type="curve"/>
      <point x="224" y="61" type="line"/>
      <point x="256" y="93"/>
      <point x="275" y="129"/>
      <point x="275" y="186" type="curve" smooth="yes"/>
      <point x="275" y="260"/>
      <point x="226" y="314"/>
    </contour>
  </outline>
</glyph>
<glyph name="aibeng" format="2">
  <advance width="657"/>
  <unicode hex="0990"/>
  <outline>
    <contour>
      <point x="382" y="628" type="curve" smooth="yes"/>
      <point x="273" y="628"/>
      <point x="190" y="499"/>
      <point x="190" y="389" type="curve" smooth="yes"/>
      <point x="190" y="310"/>
      <point x="232" y="271"/>
      <point x="287" y="271" type="curve" smooth="yes"/>
      <point x="309" y="271"/>
      <point x="323" y="272"/>
      <point x="336" y="277" type="curve"/>
      <point x="329" y="345" type="line"/>
      <point x="319" y="344"/>
      <point x="311" y="343"/>
      <point x="303" y="343" type="curve" smooth="yes"/>
      <point x="267" y="343"/>
      <point x="261" y="369"/>
      <point x="261" y="393" type="curve" smooth="yes"/>
      <point x="261" y="461"/>
      <point x="318" y="560"/>
      <point x="378" y="560" type="curve" smooth="yes"/>
      <point x="394" y="560"/>
      <point x="407" y="554"/>
      <point x="414" y="544" type="curve" smooth="yes"/>
      <point x="423" y="531"/>
      <point x="425" y="512"/>
      <point x="425" y="473" type="curve" smooth="yes"/>
      <point x="425" y="108" type="line"/>
      <point x="394" y="148"/>
      <point x="368" y="157"/>
      <point x="334" y="157" type="curve" smooth="yes"/>
      <point x="293" y="157"/>
      <point x="254" y="142"/>
      <point x="206" y="142" type="curve" smooth="yes"/>
      <point x="148" y="142"/>
      <point x="108" y="167"/>
      <point x="108" y="260" type="curve" smooth="yes"/>
      <point x="108" y="284"/>
      <point x="111" y="319"/>
      <point x="117" y="345" type="curve"/>
      <point x="48" y="355" type="line"/>
      <point x="40" y="320"/>
      <point x="37" y="288"/>
      <point x="37" y="260" type="curve" smooth="yes"/>
      <point x="37" y="108"/>
      <point x="130" y="71"/>
      <point x="197" y="71" type="curve" smooth="yes"/>
      <point x="260" y="71"/>
      <point x="295" y="86"/>
      <point x="343" y="86" type="curve" smooth="yes"/>
      <point x="391" y="86"/>
      <point x="412" y="55"/>
      <point x="427" y="0" type="curve"/>
      <point x="496" y="0" type="line"/>
      <point x="496" y="479" type="line" smooth="yes"/>
      <point x="496" y="547"/>
      <point x="486" y="577"/>
      <point x="464" y="599" type="curve" smooth="yes"/>
      <point x="445" y="618"/>
      <point x="420" y="628"/>
    </contour>
    <contour>
      <point x="620" y="585" type="curve" smooth="yes"/>
      <point x="620" y="631"/>
      <point x="610" y="668"/>
      <point x="582" y="698" type="curve" smooth="yes"/>
      <point x="554" y="727"/>
      <point x="514" y="748"/>
      <point x="448" y="762" type="curve" smooth="yes"/>
      <point x="384" y="776" type="line" smooth="yes"/>
      <point x="351" y="783"/>
      <point x="329" y="792"/>
      <point x="317" y="803" type="curve" smooth="yes"/>
      <point x="296" y="821"/>
      <point x="293" y="846"/>
      <point x="293" y="877" type="curve" smooth="yes"/>
      <point x="293" y="887"/>
      <point x="294" y="902"/>
      <point x="296" y="913" type="curve"/>
      <point x="228" y="917" type="line"/>
      <point x="226" y="903"/>
      <point x="224" y="887"/>
      <point x="224" y="873" type="curve" smooth="yes"/>
      <point x="224" y="783"/>
      <point x="259" y="730"/>
      <point x="369" y="708" type="curve" smooth="yes"/>
      <point x="425" y="697" type="line" smooth="yes"/>
      <point x="461" y="689"/>
      <point x="496" y="679"/>
      <point x="517" y="660" type="curve" smooth="yes"/>
      <point x="538" y="641"/>
      <point x="549" y="614"/>
      <point x="549" y="580" type="curve" smooth="yes"/>
      <point x="549" y="521"/>
      <point x="520" y="483"/>
      <point x="479" y="458" type="curve"/>
      <point x="480" y="382" type="line"/>
      <point x="555" y="421"/>
      <point x="620" y="482"/>
    </contour>
  </outline>
</glyph>
<glyph name="obeng" format="2">
  <advance width="541"/>
  <unicode hex="0993"/>
  <outline>
    <contour>
      <point x="371" y="629" type="curve" smooth="yes"/>
      <point x="274" y="629"/>
      <point x="179" y="525"/>
      <point x="179" y="433" type="curve" smooth="yes"/>
      <point x="179" y="371"/>
      <point x="209" y="335"/>
      <point x="277" y="325" type="curve"/>
      <point x="292" y="395" type="line"/>
      <point x="256" y="396"/>
      <point x="251" y="414"/>
      <point x="251" y="437" type="curve" smooth="yes"/>
      <point x="251" y="485"/>
      <point x="303" y="560"/>
      <point x="368" y="560" type="curve" smooth="yes"/>
      <point x="406" y="560"/>
      <point x="424" y="530"/>
      <point x="424" y="491" type="curve" smooth="yes"/>
      <point x="424" y="425"/>
      <point x="377" y="387"/>
      <point x="318" y="350" type="curve"/>
      <point x="356" y="289" type="line"/>
      <point x="421" y="331"/>
      <point x="496" y="399"/>
      <point x="496" y="496" type="curve" smooth="yes"/>
      <point x="496" y="577"/>
      <point x="450" y="629"/>
    </contour>
    <contour>
      <point x="503" y="211" type="curve" smooth="yes"/>
      <point x="503" y="283"/>
      <point x="467" y="339"/>
      <point x="420" y="376" type="curve"/>
      <point x="351" y="334" type="line"/>
      <point x="391" y="309"/>
      <point x="431" y="278"/>
      <point x="431" y="213" type="curve" smooth="yes"/>
      <point x="431" y="149"/>
      <point x="393" y="116"/>
      <point x="330" y="116" type="curve" smooth="yes"/>
      <point x="205" y="116"/>
      <point x="142" y="243"/>
      <point x="87" y="527" type="curve"/>
      <point x="17" y="512" type="line"/>
      <point x="79" y="173"/>
      <point x="175" y="43"/>
      <point x="333" y="43" type="curve" smooth="yes"/>
      <point x="433" y="43"/>
      <point x="503" y="105"/>
    </contour>
  </outline>
</glyph>
<glyph name="aubeng" format="2">
  <advance width="656"/>
  <unicode hex="0994"/>
  <outline>
    <contour>
      <point x="371" y="629" type="curve" smooth="yes"/>
      <point x="274" y="629"/>
      <point x="179" y="525"/>
      <point x="179" y="433" type="curve" smooth="yes"/>
      <point x="179" y="371"/>
      <point x="209" y="335"/>
      <point x="277" y="325" type="curve"/>
      <point x="292" y="395" type="line"/>
      <point x="256" y="396"/>
      <point x="251" y="414"/>
      <point x="251" y="437" type="curve" smooth="yes"/>
      <point x="251" y="485"/>
      <point x="303" y="560"/>
      <point x="368" y="560" type="curve" smooth="yes"/>
      <point x="406" y="560"/>
      <point x="424" y="530"/>
      <point x="424" y="491" type="curve" smooth="yes"/>
      <point x="424" y="425"/>
      <point x="377" y="387"/>
      <point x="318" y="350" type="curve"/>
      <point x="356" y="289" type="line"/>
      <point x="399" y="317"/>
      <point x="446" y="356"/>
      <point x="473" y="407" type="curve"/>
      <point x="479" y="433" type="line"/>
      <point x="486" y="449"/>
      <point x="495" y="472"/>
      <point x="495" y="503" type="curve" smooth="yes"/>
      <point x="495" y="575"/>
      <point x="450" y="629"/>
    </contour>
    <contour>
      <point x="503" y="211" type="curve" smooth="yes"/>
      <point x="503" y="283"/>
      <point x="467" y="339"/>
      <point x="420" y="376" type="curve"/>
      <point x="351" y="334" type="line"/>
      <point x="391" y="309"/>
      <point x="431" y="278"/>
      <point x="431" y="213" type="curve" smooth="yes"/>
      <point x="431" y="149"/>
      <point x="393" y="116"/>
      <point x="330" y="116" type="curve" smooth="yes"/>
      <point x="205" y="116"/>
      <point x="142" y="243"/>
      <point x="87" y="527" type="curve"/>
      <point x="17" y="512" type="line"/>
      <point x="79" y="173"/>
      <point x="175" y="43"/>
      <point x="333" y="43" type="curve" smooth="yes"/>
      <point x="433" y="43"/>
      <point x="503" y="105"/>
    </contour>
    <contour>
      <point x="619" y="585" type="curve" smooth="yes"/>
      <point x="619" y="631"/>
      <point x="609" y="668"/>
      <point x="581" y="698" type="curve" smooth="yes"/>
      <point x="553" y="727"/>
      <point x="513" y="748"/>
      <point x="447" y="762" type="curve" smooth="yes"/>
      <point x="383" y="776" type="line" smooth="yes"/>
      <point x="350" y="783"/>
      <point x="328" y="792"/>
      <point x="316" y="803" type="curve" smooth="yes"/>
      <point x="295" y="821"/>
      <point x="292" y="846"/>
      <point x="292" y="877" type="curve" smooth="yes"/>
      <point x="292" y="887"/>
      <point x="293" y="902"/>
      <point x="295" y="913" type="curve"/>
      <point x="227" y="917" type="line"/>
      <point x="225" y="903"/>
      <point x="223" y="887"/>
      <point x="223" y="873" type="curve" smooth="yes"/>
      <point x="223" y="783"/>
      <point x="258" y="730"/>
      <point x="368" y="708" type="curve" smooth="yes"/>
      <point x="424" y="697" type="line" smooth="yes"/>
      <point x="460" y="689"/>
      <point x="495" y="679"/>
      <point x="516" y="660" type="curve" smooth="yes"/>
      <point x="537" y="641"/>
      <point x="548" y="614"/>
      <point x="548" y="580" type="curve" smooth="yes"/>
      <point x="548" y="521"/>
      <point x="518" y="486"/>
      <point x="478" y="449" type="curve"/>
      <point x="431" y="350" type="line"/>
      <point x="555" y="420"/>
      <point x="619" y="477"/>
    </contour>
  </outline>
</glyph>
<glyph name="kabeng" format="2">
  <advance width="601"/>
  <unicode hex="0995"/>
  <outline>
    <contour>
      <point x="607" y="622" type="line"/>
      <point x="-6" y="622" type="line"/>
      <point x="-6" y="554" type="line"/>
      <point x="299" y="554" type="line"/>
      <point x="299" y="478" type="line"/>
      <point x="314" y="524" type="line"/>
      <point x="211" y="478"/>
      <point x="114" y="411"/>
      <point x="23" y="336" type="curve"/>
      <point x="55" y="251" type="line"/>
      <point x="169" y="219"/>
      <point x="251" y="121"/>
      <point x="299" y="0" type="curve"/>
      <point x="370" y="0" type="line"/>
      <point x="370" y="481" type="line"/>
      <point x="370" y="497" type="line"/>
      <point x="370" y="554" type="line"/>
      <point x="607" y="554" type="line"/>
    </contour>
    <contour>
      <point x="299" y="470" type="line"/>
      <point x="299" y="186" type="line" smooth="yes"/>
      <point x="299" y="154"/>
      <point x="301" y="109"/>
      <point x="304" y="79" type="curve"/>
      <point x="309" y="92" type="line"/>
      <point x="268" y="205"/>
      <point x="190" y="275"/>
      <point x="103" y="308" type="curve"/>
      <point x="167" y="363"/>
      <point x="253" y="415"/>
      <point x="316" y="447" type="curve"/>
    </contour>
    <contour>
      <point x="566" y="289" type="curve" smooth="yes"/>
      <point x="566" y="403"/>
      <point x="474" y="500"/>
      <point x="361" y="520" type="curve"/>
      <point x="360" y="450" type="line"/>
      <point x="444" y="427"/>
      <point x="495" y="368"/>
      <point x="495" y="291" type="curve" smooth="yes"/>
      <point x="495" y="261"/>
      <point x="487" y="232"/>
      <point x="448" y="232" type="curve" smooth="yes"/>
      <point x="438" y="232"/>
      <point x="428" y="233"/>
      <point x="422" y="234" type="curve"/>
      <point x="419" y="165" type="line"/>
      <point x="432" y="162"/>
      <point x="449" y="161"/>
      <point x="465" y="161" type="curve" smooth="yes"/>
      <point x="541" y="161"/>
      <point x="566" y="223"/>
    </contour>
  </outline>
</glyph>
<glyph name="khabeng" format="2">
  <advance width="515"/>
  <unicode hex="0996"/>
  <outline>
    <contour>
      <point x="521" y="622" type="line"/>
      <point x="446" y="622" type="line"/>
      <point x="430" y="687" type="line"/>
      <point x="376" y="687" type="line"/>
      <point x="376" y="193" type="line" smooth="yes"/>
      <point x="376" y="157"/>
      <point x="377" y="127"/>
      <point x="379" y="97" type="curve"/>
      <point x="335" y="184"/>
      <point x="268" y="269"/>
      <point x="137" y="304" type="curve"/>
      <point x="93" y="329" type="line"/>
      <point x="115" y="245" type="line"/>
      <point x="242" y="207"/>
      <point x="316" y="116"/>
      <point x="376" y="0" type="curve"/>
      <point x="447" y="0" type="line"/>
      <point x="447" y="554" type="line"/>
      <point x="521" y="554" type="line"/>
    </contour>
    <contour>
      <point x="328" y="467" type="curve" smooth="yes"/>
      <point x="328" y="531"/>
      <point x="302" y="585"/>
      <point x="275" y="625" type="curve"/>
      <point x="225" y="577" type="line"/>
      <point x="254" y="532"/>
      <point x="260" y="510"/>
      <point x="260" y="467" type="curve" smooth="yes"/>
      <point x="260" y="392"/>
      <point x="199" y="343"/>
      <point x="93" y="329" type="curve"/>
      <point x="113" y="286" type="line"/>
      <point x="149" y="279" type="line"/>
      <point x="255" y="294"/>
      <point x="328" y="358"/>
    </contour>
    <contour>
      <point x="139" y="430" type="curve" smooth="yes"/>
      <point x="210" y="430"/>
      <point x="245" y="488"/>
      <point x="277" y="574" type="curve"/>
      <point x="275" y="625" type="line"/>
      <point x="226" y="612" type="line"/>
      <point x="197" y="511"/>
      <point x="167" y="498"/>
      <point x="142" y="498" type="curve" smooth="yes"/>
      <point x="122" y="498"/>
      <point x="109" y="514"/>
      <point x="109" y="541" type="curve" smooth="yes"/>
      <point x="109" y="566"/>
      <point x="117" y="592"/>
      <point x="124" y="607" type="curve"/>
      <point x="57" y="628" type="line"/>
      <point x="47" y="604"/>
      <point x="37" y="574"/>
      <point x="37" y="539" type="curve" smooth="yes"/>
      <point x="37" y="474"/>
      <point x="77" y="430"/>
    </contour>
  </outline>
</glyph>
<glyph name="gabeng" format="2">
  <advance width="490"/>
  <unicode hex="0997"/>
  <outline>
    <contour>
      <point x="351" y="0" type="line"/>
      <point x="422" y="0" type="line"/>
      <point x="422" y="554" type="line"/>
      <point x="496" y="554" type="line"/>
      <point x="496" y="622" type="line"/>
      <point x="422" y="622" type="line"/>
      <point x="405" y="687" type="line"/>
      <point x="351" y="687" type="line"/>
      <point x="351" y="611" type="line" smooth="yes"/>
      <point x="351" y="571"/>
      <point x="352" y="537"/>
      <point x="356" y="509" type="curve"/>
      <point x="368" y="511" type="line"/>
      <point x="304" y="601"/>
      <point x="263" y="629"/>
      <point x="197" y="629" type="curve" smooth="yes"/>
      <point x="115" y="629"/>
      <point x="64" y="563"/>
      <point x="14" y="461" type="curve"/>
      <point x="80" y="400" type="line"/>
      <point x="101" y="412"/>
      <point x="127" y="420"/>
      <point x="152" y="420" type="curve" smooth="yes"/>
      <point x="181" y="420"/>
      <point x="204" y="405"/>
      <point x="204" y="372" type="curve" smooth="yes"/>
      <point x="204" y="324"/>
      <point x="160" y="290"/>
      <point x="99" y="262" type="curve"/>
      <point x="144" y="194" type="line"/>
      <point x="229" y="245"/>
      <point x="277" y="295"/>
      <point x="277" y="373" type="curve" smooth="yes"/>
      <point x="277" y="433"/>
      <point x="240" y="487"/>
      <point x="162" y="487" type="curve" smooth="yes"/>
      <point x="133" y="487"/>
      <point x="106" y="477"/>
      <point x="82" y="461" type="curve"/>
      <point x="90" y="458" type="line"/>
      <point x="117" y="515"/>
      <point x="152" y="559"/>
      <point x="200" y="559" type="curve" smooth="yes"/>
      <point x="267" y="559"/>
      <point x="310" y="499"/>
      <point x="370" y="399" type="curve"/>
      <point x="351" y="449" type="line"/>
    </contour>
  </outline>
</glyph>
<glyph name="ghabeng" format="2">
  <advance width="467"/>
  <unicode hex="0998"/>
  <outline>
    <contour>
      <point x="473" y="622" type="line"/>
      <point x="-6" y="622" type="line"/>
      <point x="-6" y="554" type="line"/>
      <point x="328" y="554" type="line"/>
      <point x="328" y="173" type="line" smooth="yes"/>
      <point x="328" y="138"/>
      <point x="329" y="112"/>
      <point x="330" y="90" type="curve"/>
      <point x="278" y="170"/>
      <point x="201" y="231"/>
      <point x="110" y="255" type="curve"/>
      <point x="109" y="230" type="line"/>
      <point x="161" y="278"/>
      <point x="230" y="334"/>
      <point x="294" y="382" type="curve"/>
      <point x="246" y="437" type="line"/>
      <point x="221" y="416"/>
      <point x="200" y="404"/>
      <point x="176" y="404" type="curve" smooth="yes"/>
      <point x="141" y="404"/>
      <point x="114" y="423"/>
      <point x="114" y="464" type="curve" smooth="yes"/>
      <point x="114" y="514"/>
      <point x="148" y="553"/>
      <point x="200" y="583" type="curve"/>
      <point x="147" y="615" type="line"/>
      <point x="86" y="574"/>
      <point x="40" y="531"/>
      <point x="40" y="459" type="curve" smooth="yes"/>
      <point x="40" y="387"/>
      <point x="93" y="347"/>
      <point x="172" y="347" type="curve" smooth="yes"/>
      <point x="186" y="347"/>
      <point x="203" y="349"/>
      <point x="215" y="354" type="curve"/>
      <point x="195" y="385" type="line"/>
      <point x="154" y="356"/>
      <point x="83" y="301"/>
      <point x="52" y="269" type="curve"/>
      <point x="84" y="191" type="line"/>
      <point x="194" y="159"/>
      <point x="275" y="93"/>
      <point x="328" y="0" type="curve"/>
      <point x="399" y="0" type="line"/>
      <point x="399" y="554" type="line"/>
      <point x="473" y="554" type="line"/>
    </contour>
  </outline>
</glyph>
<glyph name="ngabeng" format="2">
  <advance width="535"/>
  <unicode hex="0999"/>
  <outline>
    <contour>
      <point x="314" y="9" type="curve" smooth="yes"/>
      <point x="441" y="9"/>
      <point x="499" y="99"/>
      <point x="499" y="213" type="curve" smooth="yes"/>
      <point x="499" y="272"/>
      <point x="479" y="336"/>
      <point x="456" y="387" type="curve"/>
      <point x="399" y="382" type="line"/>
      <point x="359" y="312"/>
      <point x="330" y="279"/>
      <point x="297" y="279" type="curve" smooth="yes"/>
      <point x="277" y="279"/>
      <point x="271" y="291"/>
      <point x="271" y="314" type="curve" smooth="yes"/>
      <point x="271" y="445" type="line" smooth="yes"/>
      <point x="271" y="493"/>
      <point x="281" y="566"/>
      <point x="328" y="566" type="curve" smooth="yes"/>
      <point x="354" y="566"/>
      <point x="368" y="548"/>
      <point x="368" y="518" type="curve" smooth="yes"/>
      <point x="368" y="483"/>
      <point x="350" y="462"/>
      <point x="315" y="462" type="curve" smooth="yes"/>
      <point x="226" y="462"/>
      <point x="184" y="526"/>
      <point x="137" y="623" type="curve"/>
      <point x="79" y="591" type="line"/>
      <point x="126" y="496"/>
      <point x="201" y="399"/>
      <point x="315" y="399" type="curve" smooth="yes"/>
      <point x="382" y="399"/>
      <point x="436" y="440"/>
      <point x="436" y="520" type="curve" smooth="yes"/>
      <point x="436" y="588"/>
      <point x="395" y="629"/>
      <point x="332" y="629" type="curve" smooth="yes"/>
      <point x="259" y="629"/>
      <point x="202" y="570"/>
      <point x="202" y="444" type="curve" smooth="yes"/>
      <point x="202" y="335" type="line" smooth="yes"/>
      <point x="202" y="285"/>
      <point x="209" y="256"/>
      <point x="228" y="234" type="curve" smooth="yes"/>
      <point x="242" y="218"/>
      <point x="262" y="209"/>
      <point x="293" y="209" type="curve" smooth="yes"/>
      <point x="339" y="209"/>
      <point x="388" y="237"/>
      <point x="438" y="333" type="curve"/>
      <point x="396" y="346" type="line"/>
      <point x="418" y="299"/>
      <point x="428" y="261"/>
      <point x="428" y="212" type="curve" smooth="yes"/>
      <point x="428" y="123"/>
      <point x="383" y="82"/>
      <point x="311" y="82" type="curve" smooth="yes"/>
      <point x="195" y="82"/>
      <point x="143" y="175"/>
      <point x="88" y="460" type="curve"/>
      <point x="18" y="445" type="line"/>
      <point x="81" y="114"/>
      <point x="159" y="9"/>
    </contour>
  </outline>
</glyph>
<glyph name="cabeng" format="2">
  <advance width="429"/>
  <unicode hex="099A"/>
  <outline>
    <contour>
      <point x="435" y="622" type="line"/>
      <point x="-6" y="622" type="line"/>
      <point x="-6" y="554" type="line"/>
      <point x="68" y="554" type="line"/>
      <point x="68" y="162" type="line" smooth="yes"/>
      <point x="68" y="110"/>
      <point x="75" y="82"/>
      <point x="97" y="57" type="curve" smooth="yes"/>
      <point x="115" y="36"/>
      <point x="145" y="24"/>
      <point x="183" y="24" type="curve" smooth="yes"/>
      <point x="261" y="24"/>
      <point x="313" y="78"/>
      <point x="346" y="144" type="curve" smooth="yes"/>
      <point x="373" y="198"/>
      <point x="386" y="257"/>
      <point x="386" y="310" type="curve" smooth="yes"/>
      <point x="386" y="350"/>
      <point x="377" y="381"/>
      <point x="353" y="401" type="curve" smooth="yes"/>
      <point x="336" y="415"/>
      <point x="311" y="423"/>
      <point x="269" y="423" type="curve" smooth="yes"/>
      <point x="268" y="423" type="line" smooth="yes"/>
      <point x="203" y="423"/>
      <point x="171" y="465"/>
      <point x="136" y="536" type="curve"/>
      <point x="131" y="450" type="line"/>
      <point x="141" y="425"/>
      <point x="155" y="404"/>
      <point x="173" y="387" type="curve" smooth="yes"/>
      <point x="195" y="366"/>
      <point x="224" y="353"/>
      <point x="261" y="353" type="curve" smooth="yes"/>
      <point x="263" y="353" type="line" smooth="yes"/>
      <point x="295" y="353"/>
      <point x="312" y="339"/>
      <point x="312" y="302" type="curve" smooth="yes"/>
      <point x="312" y="259"/>
      <point x="298" y="204"/>
      <point x="276" y="162" type="curve" smooth="yes"/>
      <point x="256" y="124"/>
      <point x="227" y="92"/>
      <point x="186" y="92" type="curve" smooth="yes"/>
      <point x="170" y="92"/>
      <point x="159" y="97"/>
      <point x="152" y="105" type="curve" smooth="yes"/>
      <point x="142" y="117"/>
      <point x="139" y="132"/>
      <point x="139" y="166" type="curve" smooth="yes"/>
      <point x="139" y="378" type="line" smooth="yes"/>
      <point x="139" y="403"/>
      <point x="137" y="438"/>
      <point x="136" y="455" type="curve"/>
      <point x="139" y="523" type="line"/>
      <point x="139" y="554" type="line"/>
      <point x="435" y="554" type="line"/>
    </contour>
  </outline>
</glyph>
<glyph name="jabeng" format="2">
  <advance width="679"/>
  <unicode hex="099C"/>
  <outline>
    <contour>
      <point x="298" y="65" type="curve" smooth="yes"/>
      <point x="422" y="65"/>
      <point x="469" y="155"/>
      <point x="469" y="257" type="curve" smooth="yes"/>
      <point x="469" y="298"/>
      <point x="461" y="331"/>
      <point x="453" y="357" type="curve"/>
      <point x="375" y="383" type="line"/>
      <point x="346" y="344"/>
      <point x="328" y="327"/>
      <point x="297" y="327" type="curve" smooth="yes"/>
      <point x="271" y="327"/>
      <point x="258" y="344"/>
      <point x="258" y="375" type="curve" smooth="yes"/>
      <point x="258" y="427"/>
      <point x="296" y="480"/>
      <point x="399" y="557" type="curve"/>
      <point x="418" y="555"/>
      <point x="438" y="554"/>
      <point x="464" y="554" type="curve" smooth="yes"/>
      <point x="685" y="554" type="line"/>
      <point x="685" y="622" type="line"/>
      <point x="-6" y="622" type="line"/>
      <point x="-6" y="554" type="line"/>
      <point x="235" y="554" type="line" smooth="yes"/>
      <point x="262" y="554"/>
      <point x="281" y="554"/>
      <point x="299" y="555" type="curve"/>
      <point x="229" y="502"/>
      <point x="187" y="445"/>
      <point x="187" y="381" type="curve" smooth="yes"/>
      <point x="187" y="305"/>
      <point x="228" y="260"/>
      <point x="295" y="260" type="curve" smooth="yes"/>
      <point x="358" y="260"/>
      <point x="395" y="302"/>
      <point x="429" y="358" type="curve"/>
      <point x="377" y="360" type="line"/>
      <point x="387" y="339"/>
      <point x="399" y="300"/>
      <point x="399" y="261" type="curve" smooth="yes"/>
      <point x="399" y="177"/>
      <point x="359" y="138"/>
      <point x="295" y="138" type="curve" smooth="yes"/>
      <point x="189" y="138"/>
      <point x="134" y="236"/>
      <point x="88" y="484" type="curve"/>
      <point x="18" y="469" type="line"/>
      <point x="71" y="165"/>
      <point x="164" y="65"/>
    </contour>
    <contour>
      <point x="597" y="208" type="curve" smooth="yes"/>
      <point x="597" y="279"/>
      <point x="609" y="339"/>
      <point x="636" y="403" type="curve"/>
      <point x="599" y="462" type="line"/>
      <point x="585" y="460"/>
      <point x="570" y="459"/>
      <point x="558" y="459" type="curve" smooth="yes"/>
      <point x="474" y="459"/>
      <point x="440" y="506"/>
      <point x="421" y="562" type="curve"/>
      <point x="355" y="547" type="line"/>
      <point x="387" y="447"/>
      <point x="456" y="392"/>
      <point x="553" y="392" type="curve"/>
      <point x="535" y="347"/>
      <point x="526" y="287"/>
      <point x="526" y="215" type="curve" smooth="yes"/>
      <point x="526" y="143"/>
      <point x="536" y="71"/>
      <point x="557" y="-7" type="curve"/>
      <point x="626" y="10" type="line"/>
      <point x="604" y="87"/>
      <point x="597" y="139"/>
    </contour>
  </outline>
</glyph>
<glyph name="jhabeng" format="2">
  <advance width="599"/>
  <unicode hex="099D"/>
  <outline>
    <contour>
      <point x="370" y="622" type="line"/>
      <point x="-6" y="622" type="line"/>
      <point x="-6" y="554" type="line"/>
      <point x="299" y="554" type="line"/>
      <point x="299" y="481" type="line"/>
      <point x="314" y="527" type="line"/>
      <point x="210" y="479"/>
      <point x="113" y="411"/>
      <point x="23" y="336" type="curve"/>
      <point x="55" y="251" type="line"/>
      <point x="169" y="219"/>
      <point x="252" y="119"/>
      <point x="299" y="0" type="curve"/>
      <point x="370" y="0" type="line"/>
    </contour>
    <contour>
      <point x="299" y="473" type="line"/>
      <point x="299" y="186" type="line" smooth="yes"/>
      <point x="299" y="154"/>
      <point x="301" y="109"/>
      <point x="304" y="79" type="curve"/>
      <point x="309" y="92" type="line"/>
      <point x="268" y="205"/>
      <point x="190" y="275"/>
      <point x="103" y="308" type="curve"/>
      <point x="166" y="363"/>
      <point x="252" y="416"/>
      <point x="320" y="453" type="curve"/>
    </contour>
    <contour>
      <point x="605" y="622" type="line"/>
      <point x="530" y="622" type="line"/>
      <point x="514" y="688" type="line"/>
      <point x="460" y="688" type="line"/>
      <point x="460" y="259" type="line" smooth="yes"/>
      <point x="460" y="227"/>
      <point x="462" y="182"/>
      <point x="465" y="152" type="curve"/>
      <point x="470" y="165" type="line"/>
      <point x="448" y="227"/>
      <point x="408" y="283"/>
      <point x="356" y="326" type="curve"/>
      <point x="336" y="263" type="line"/>
      <point x="386" y="221"/>
      <point x="430" y="149"/>
      <point x="460" y="73" type="curve"/>
      <point x="531" y="73" type="line"/>
      <point x="531" y="554" type="line"/>
      <point x="605" y="554" type="line"/>
    </contour>
  </outline>
</glyph>
<glyph name="nyabeng" format="2">
  <advance width="752"/>
  <unicode hex="099E"/>
  <outline>
    <contour>
      <point x="382" y="628" type="curve" smooth="yes"/>
      <point x="273" y="628"/>
      <point x="190" y="499"/>
      <point x="190" y="389" type="curve" smooth="yes"/>
      <point x="190" y="310"/>
      <point x="232" y="271"/>
      <point x="287" y="271" type="curve" smooth="yes"/>
      <point x="309" y="271"/>
      <point x="323" y="272"/>
      <point x="336" y="277" type="curve"/>
      <point x="329" y="345" type="line"/>
      <point x="319" y="344"/>
      <point x="311" y="343"/>
      <point x="303" y="343" type="curve" smooth="yes"/>
      <point x="267" y="343"/>
      <point x="261" y="369"/>
      <point x="261" y="393" type="curve" smooth="yes"/>
      <point x="261" y="461"/>
      <point x="318" y="560"/>
      <point x="378" y="560" type="curve" smooth="yes"/>
      <point x="394" y="560"/>
      <point x="407" y="554"/>
      <point x="414" y="544" type="curve" smooth="yes"/>
      <point x="423" y="531"/>
      <point x="425" y="512"/>
      <point x="425" y="473" type="curve" smooth="yes"/>
      <point x="425" y="108" type="line"/>
      <point x="394" y="148"/>
      <point x="368" y="157"/>
      <point x="334" y="157" type="curve" smooth="yes"/>
      <point x="293" y="157"/>
      <point x="254" y="142"/>
      <point x="206" y="142" type="curve" smooth="yes"/>
      <point x="148" y="142"/>
      <point x="108" y="167"/>
      <point x="108" y="260" type="curve" smooth="yes"/>
      <point x="108" y="284"/>
      <point x="111" y="319"/>
      <point x="117" y="345" type="curve"/>
      <point x="48" y="355" type="line"/>
      <point x="40" y="320"/>
      <point x="37" y="288"/>
      <point x="37" y="260" type="curve" smooth="yes"/>
      <point x="37" y="108"/>
      <point x="130" y="71"/>
      <point x="197" y="71" type="curve" smooth="yes"/>
      <point x="260" y="71"/>
      <point x="295" y="86"/>
      <point x="343" y="86" type="curve" smooth="yes"/>
      <point x="391" y="86"/>
      <point x="412" y="55"/>
      <point x="427" y="0" type="curve"/>
      <point x="496" y="0" type="line"/>
      <point x="496" y="194" type="line" smooth="yes"/>
      <point x="496" y="221"/>
      <point x="494" y="249"/>
      <point x="491" y="274" type="curve"/>
      <point x="496" y="289" type="line"/>
      <point x="496" y="479" type="line"/>
      <point x="494" y="499" type="line"/>
      <point x="492" y="546"/>
      <point x="484" y="579"/>
      <point x="464" y="599" type="curve" smooth="yes"/>
      <point x="445" y="618"/>
      <point x="420" y="628"/>
    </contour>
    <contour>
      <point x="609" y="607" type="curve" smooth="yes"/>
      <point x="552" y="607"/>
      <point x="513" y="574"/>
      <point x="469" y="512" type="curve"/>
      <point x="481" y="420" type="line"/>
      <point x="516" y="491"/>
      <point x="555" y="541"/>
      <point x="596" y="541" type="curve" smooth="yes"/>
      <point x="627" y="541"/>
      <point x="642" y="522"/>
      <point x="642" y="493" type="curve" smooth="yes"/>
      <point x="642" y="451"/>
      <point x="619" y="427"/>
      <point x="566" y="408" type="curve"/>
      <point x="590" y="346" type="line"/>
      <point x="684" y="383"/>
      <point x="712" y="443"/>
      <point x="712" y="497" type="curve" smooth="yes"/>
      <point x="712" y="561"/>
      <point x="672" y="607"/>
    </contour>
    <contour>
      <point x="612" y="168" type="curve" smooth="yes"/>
      <point x="681" y="168"/>
      <point x="714" y="226"/>
      <point x="714" y="282" type="curve" smooth="yes"/>
      <point x="714" y="348"/>
      <point x="683" y="380"/>
      <point x="640" y="414" type="curve"/>
      <point x="588" y="374" type="line"/>
      <point x="623" y="350"/>
      <point x="644" y="328"/>
      <point x="644" y="288" type="curve" smooth="yes"/>
      <point x="644" y="259"/>
      <point x="630" y="234"/>
      <point x="599" y="234" type="curve" smooth="yes"/>
      <point x="552" y="234"/>
      <point x="504" y="290"/>
      <point x="481" y="395" type="curve"/>
      <point x="453" y="322" type="line"/>
      <point x="477" y="274" type="line"/>
      <point x="503" y="211"/>
      <point x="545" y="168"/>
    </contour>
  </outline>
</glyph>
<glyph name="ttabeng" format="2">
  <advance width="429"/>
  <unicode hex="099F"/>
  <outline>
    <contour>
      <point x="435" y="622" type="line"/>
      <point x="-6" y="622" type="line"/>
      <point x="-6" y="554" type="line"/>
      <point x="68" y="554" type="line"/>
      <point x="68" y="161" type="line" smooth="yes"/>
      <point x="68" y="110"/>
      <point x="75" y="82"/>
      <point x="97" y="57" type="curve" smooth="yes"/>
      <point x="115" y="36"/>
      <point x="145" y="24"/>
      <point x="183" y="24" type="curve" smooth="yes"/>
      <point x="262" y="24"/>
      <point x="313" y="78"/>
      <point x="346" y="144" type="curve" smooth="yes"/>
      <point x="370" y="192"/>
      <point x="385" y="257"/>
      <point x="385" y="312" type="curve" smooth="yes"/>
      <point x="385" y="395"/>
      <point x="349" y="439"/>
      <point x="274" y="439" type="curve" smooth="yes"/>
      <point x="251" y="439"/>
      <point x="226" y="435"/>
      <point x="209" y="430" type="curve"/>
      <point x="220" y="362" type="line"/>
      <point x="232" y="365"/>
      <point x="246" y="367"/>
      <point x="259" y="367" type="curve" smooth="yes"/>
      <point x="300" y="367"/>
      <point x="311" y="341"/>
      <point x="311" y="307" type="curve" smooth="yes"/>
      <point x="311" y="260"/>
      <point x="299" y="206"/>
      <point x="278" y="166" type="curve" smooth="yes"/>
      <point x="255" y="122"/>
      <point x="226" y="92"/>
      <point x="186" y="92" type="curve" smooth="yes"/>
      <point x="170" y="92"/>
      <point x="159" y="97"/>
      <point x="152" y="105" type="curve" smooth="yes"/>
      <point x="142" y="117"/>
      <point x="139" y="132"/>
      <point x="139" y="166" type="curve" smooth="yes"/>
      <point x="139" y="554" type="line"/>
      <point x="435" y="554" type="line"/>
    </contour>
    <contour>
      <point x="289" y="622" type="curve"/>
      <point x="356" y="622" type="line"/>
      <point x="354" y="681"/>
      <point x="346" y="716"/>
      <point x="320" y="741" type="curve" smooth="yes"/>
      <point x="299" y="761"/>
      <point x="271" y="771"/>
      <point x="214" y="771" type="curve" smooth="yes"/>
      <point x="182" y="771" type="line" smooth="yes"/>
      <point x="135" y="771"/>
      <point x="114" y="778"/>
      <point x="98" y="792" type="curve" smooth="yes"/>
      <point x="79" y="808"/>
      <point x="73" y="834"/>
      <point x="73" y="866" type="curve" smooth="yes"/>
      <point x="73" y="879"/>
      <point x="74" y="892"/>
      <point x="76" y="907" type="curve"/>
      <point x="9" y="912" type="line"/>
      <point x="6" y="896"/>
      <point x="4" y="877"/>
      <point x="4" y="859" type="curve" smooth="yes"/>
      <point x="4" y="808"/>
      <point x="17" y="766"/>
      <point x="48" y="739" type="curve" smooth="yes"/>
      <point x="76" y="715"/>
      <point x="116" y="702"/>
      <point x="185" y="702" type="curve" smooth="yes"/>
      <point x="215" y="702" type="line" smooth="yes"/>
      <point x="272" y="702"/>
      <point x="286" y="673"/>
    </contour>
  </outline>
</glyph>
<glyph name="tthabeng" format="2">
  <advance width="445"/>
  <unicode hex="09A0"/>
  <outline>
    <contour>
      <point x="213" y="0" type="curve" smooth="yes"/>
      <point x="341" y="0"/>
      <point x="401" y="90"/>
      <point x="401" y="225" type="curve" smooth="yes"/>
      <point x="401" y="352"/>
      <point x="349" y="450"/>
      <point x="274" y="556" type="curve"/>
      <point x="288" y="554"/>
      <point x="304" y="554"/>
      <point x="322" y="554" type="curve" smooth="yes"/>
      <point x="451" y="554" type="line"/>
      <point x="451" y="622" type="line"/>
      <point x="224" y="622" type="line"/>
      <point x="185" y="679"/>
      <point x="163" y="723"/>
      <point x="163" y="765" type="curve" smooth="yes"/>
      <point x="163" y="803"/>
      <point x="185" y="831"/>
      <point x="222" y="863" type="curve"/>
      <point x="170" y="917" type="line"/>
      <point x="120" y="872"/>
      <point x="90" y="832"/>
      <point x="90" y="776" type="curve" smooth="yes"/>
      <point x="90" y="726"/>
      <point x="113" y="680"/>
      <point x="146" y="622" type="curve"/>
      <point x="-6" y="622" type="line"/>
      <point x="-6" y="554" type="line"/>
      <point x="173" y="554" type="line"/>
      <point x="184" y="519"/>
      <point x="188" y="479"/>
      <point x="188" y="449" type="curve" smooth="yes"/>
      <point x="188" y="335"/>
      <point x="161" y="262"/>
      <point x="46" y="246" type="curve"/>
      <point x="23" y="167" type="line"/>
      <point x="52" y="69"/>
      <point x="115" y="0"/>
    </contour>
    <contour>
      <point x="212" y="70" type="curve" smooth="yes"/>
      <point x="145" y="70"/>
      <point x="93" y="129"/>
      <point x="82" y="229" type="curve"/>
      <point x="75" y="168" type="line"/>
      <point x="216" y="206"/>
      <point x="253" y="300"/>
      <point x="253" y="406" type="curve" smooth="yes"/>
      <point x="253" y="447"/>
      <point x="242" y="500"/>
      <point x="225" y="538" type="curve"/>
      <point x="219" y="543" type="line"/>
      <point x="301" y="416"/>
      <point x="328" y="340"/>
      <point x="328" y="234" type="curve" smooth="yes"/>
      <point x="328" y="134"/>
      <point x="293" y="70"/>
    </contour>
  </outline>
</glyph>
<glyph name="ddhabeng" format="2">
  <advance width="429"/>
  <unicode hex="09A2"/>
  <outline>
    <contour>
      <point x="435" y="622" type="line"/>
      <point x="-6" y="622" type="line"/>
      <point x="-6" y="554" type="line"/>
      <point x="68" y="554" type="line"/>
      <point x="68" y="161" type="line" smooth="yes"/>
      <point x="68" y="110"/>
      <point x="75" y="82"/>
      <point x="97" y="57" type="curve" smooth="yes"/>
      <point x="115" y="36"/>
      <point x="145" y="24"/>
      <point x="183" y="24" type="curve" smooth="yes"/>
      <point x="262" y="24"/>
      <point x="313" y="78"/>
      <point x="346" y="144" type="curve" smooth="yes"/>
      <point x="370" y="192"/>
      <point x="385" y="257"/>
      <point x="385" y="312" type="curve" smooth="yes"/>
      <point x="385" y="395"/>
      <point x="349" y="439"/>
      <point x="274" y="439" type="curve" smooth="yes"/>
      <point x="251" y="439"/>
      <point x="226" y="435"/>
      <point x="209" y="430" type="curve"/>
      <point x="220" y="362" type="line"/>
      <point x="232" y="365"/>
      <point x="246" y="367"/>
      <point x="259" y="367" type="curve" smooth="yes"/>
      <point x="300" y="367"/>
      <point x="311" y="341"/>
      <point x="311" y="307" type="curve" smooth="yes"/>
      <point x="311" y="260"/>
      <point x="299" y="206"/>
      <point x="278" y="166" type="curve" smooth="yes"/>
      <point x="255" y="122"/>
      <point x="226" y="92"/>
      <point x="186" y="92" type="curve" smooth="yes"/>
      <point x="170" y="92"/>
      <point x="159" y="97"/>
      <point x="152" y="105" type="curve" smooth="yes"/>
      <point x="142" y="117"/>
      <point x="139" y="132"/>
      <point x="139" y="166" type="curve" smooth="yes"/>
      <point x="139" y="554" type="line"/>
      <point x="435" y="554" type="line"/>
    </contour>
  </outline>
</glyph>
<glyph name="nnabeng" format="2">
  <advance width="465"/>
  <unicode hex="09A3"/>
  <outline>
    <contour>
      <point x="471" y="622" type="line"/>
      <point x="397" y="622" type="line"/>
      <point x="380" y="687" type="line"/>
      <point x="326" y="687" type="line"/>
      <point x="326" y="613" type="line" smooth="yes"/>
      <point x="326" y="580"/>
      <point x="327" y="536"/>
      <point x="329" y="514" type="curve"/>
      <point x="348" y="503" type="line"/>
      <point x="291" y="589"/>
      <point x="248" y="629"/>
      <point x="174" y="629" type="curve" smooth="yes"/>
      <point x="96" y="629"/>
      <point x="28" y="571"/>
      <point x="28" y="473" type="curve" smooth="yes"/>
      <point x="28" y="353"/>
      <point x="112" y="293"/>
      <point x="195" y="273" type="curve"/>
      <point x="214" y="351" type="line"/>
      <point x="145" y="369"/>
      <point x="102" y="401"/>
      <point x="102" y="470" type="curve" smooth="yes"/>
      <point x="102" y="523"/>
      <point x="134" y="559"/>
      <point x="181" y="559" type="curve" smooth="yes"/>
      <point x="240" y="559"/>
      <point x="280" y="513"/>
      <point x="345" y="399" type="curve"/>
      <point x="326" y="454" type="line"/>
      <point x="326" y="0" type="line"/>
      <point x="397" y="0" type="line"/>
      <point x="397" y="554" type="line"/>
      <point x="471" y="554" type="line"/>
    </contour>
  </outline>
</glyph>
<glyph name="tabeng" format="2">
  <advance width="517"/>
  <unicode hex="09A4"/>
  <outline>
    <contour>
      <point x="297" y="51" type="curve" smooth="yes"/>
      <point x="425" y="51"/>
      <point x="479" y="152"/>
      <point x="479" y="278" type="curve" smooth="yes"/>
      <point x="479" y="411"/>
      <point x="418" y="500"/>
      <point x="318" y="500" type="curve" smooth="yes"/>
      <point x="259" y="500"/>
      <point x="205" y="464"/>
      <point x="205" y="391" type="curve" smooth="yes"/>
      <point x="205" y="362"/>
      <point x="210" y="336"/>
      <point x="219" y="310" type="curve"/>
      <point x="285" y="324" type="line"/>
      <point x="280" y="344"/>
      <point x="277" y="359"/>
      <point x="277" y="376" type="curve" smooth="yes"/>
      <point x="277" y="415"/>
      <point x="297" y="431"/>
      <point x="323" y="431" type="curve" smooth="yes"/>
      <point x="375" y="431"/>
      <point x="408" y="368"/>
      <point x="408" y="279" type="curve" smooth="yes"/>
      <point x="408" y="192"/>
      <point x="380" y="124"/>
      <point x="293" y="124" type="curve" smooth="yes"/>
      <point x="190" y="124"/>
      <point x="136" y="232"/>
      <point x="88" y="484" type="curve"/>
      <point x="18" y="469" type="line"/>
      <point x="75" y="159"/>
      <point x="159" y="51"/>
    </contour>
    <contour>
      <point x="523" y="622" type="line"/>
      <point x="-6" y="622" type="line"/>
      <point x="-6" y="554" type="line"/>
      <point x="523" y="554" type="line"/>
    </contour>
  </outline>
</glyph>
<glyph name="thabeng" format="2">
  <advance width="485"/>
  <unicode hex="09A5"/>
  <outline>
    <contour>
      <point x="491" y="622" type="line"/>
      <point x="416" y="622" type="line"/>
      <point x="399" y="688" type="line"/>
      <point x="346" y="688" type="line"/>
      <point x="346" y="193" type="line" smooth="yes"/>
      <point x="346" y="157"/>
      <point x="347" y="127"/>
      <point x="349" y="97" type="curve"/>
      <point x="305" y="184"/>
      <point x="238" y="269"/>
      <point x="107" y="304" type="curve"/>
      <point x="63" y="329" type="line"/>
      <point x="85" y="245" type="line"/>
      <point x="212" y="207"/>
      <point x="286" y="116"/>
      <point x="346" y="0" type="curve"/>
      <point x="417" y="0" type="line"/>
      <point x="417" y="554" type="line"/>
      <point x="491" y="554" type="line"/>
    </contour>
    <contour>
      <point x="154" y="625" type="curve" smooth="yes"/>
      <point x="73" y="625"/>
      <point x="28" y="573"/>
      <point x="28" y="509" type="curve" smooth="yes"/>
      <point x="28" y="459"/>
      <point x="54" y="422"/>
      <point x="81" y="395" type="curve"/>
      <point x="135" y="441" type="line"/>
      <point x="115" y="459"/>
      <point x="99" y="477"/>
      <point x="99" y="507" type="curve" smooth="yes"/>
      <point x="99" y="530"/>
      <point x="113" y="557"/>
      <point x="153" y="557" type="curve" smooth="yes"/>
      <point x="198" y="557"/>
      <point x="228" y="525"/>
      <point x="228" y="467" type="curve" smooth="yes"/>
      <point x="228" y="392"/>
      <point x="169" y="343"/>
      <point x="63" y="329" type="curve"/>
      <point x="89" y="286" type="line"/>
      <point x="119" y="279" type="line"/>
      <point x="222" y="293"/>
      <point x="298" y="360"/>
      <point x="298" y="465" type="curve" smooth="yes"/>
      <point x="298" y="554"/>
      <point x="250" y="625"/>
    </contour>
  </outline>
</glyph>
<glyph name="nabeng" format="2">
  <advance width="448"/>
  <unicode hex="09A8"/>
  <outline>
    <contour>
      <point x="454" y="622" type="line"/>
      <point x="-6" y="622" type="line"/>
      <point x="-6" y="554" type="line"/>
      <point x="309" y="554" type="line"/>
      <point x="309" y="401" type="line" smooth="yes"/>
      <point x="309" y="371"/>
      <point x="310" y="341"/>
      <point x="312" y="311" type="curve"/>
      <point x="327" y="311" type="line"/>
      <point x="276" y="379"/>
      <point x="223" y="423"/>
      <point x="158" y="423" type="curve" smooth="yes"/>
      <point x="90" y="423"/>
      <point x="33" y="375"/>
      <point x="33" y="288" type="curve" smooth="yes"/>
      <point x="33" y="208"/>
      <point x="77" y="156"/>
      <point x="129" y="121" type="curve"/>
      <point x="172" y="186" type="line"/>
      <point x="135" y="207"/>
      <point x="107" y="237"/>
      <point x="107" y="284" type="curve" smooth="yes"/>
      <point x="107" y="326"/>
      <point x="131" y="353"/>
      <point x="169" y="353" type="curve" smooth="yes"/>
      <point x="220" y="353"/>
      <point x="261" y="312"/>
      <point x="321" y="223" type="curve"/>
      <point x="309" y="276" type="line"/>
      <point x="309" y="0" type="line"/>
      <point x="380" y="0" type="line"/>
      <point x="380" y="554" type="line"/>
      <point x="454" y="554" type="line"/>
    </contour>
  </outline>
</glyph>
<glyph name="phabeng" format="2">
  <advance width="618"/>
  <unicode hex="09AB"/>
  <outline>
    <contour>
      <point x="624" y="622" type="line"/>
      <point x="-6" y="622" type="line"/>
      <point x="-6" y="554" type="line"/>
      <point x="63" y="554" type="line"/>
      <point x="58" y="572" type="line"/>
      <point x="31" y="501" type="line"/>
      <point x="87" y="478"/>
      <point x="144" y="447"/>
      <point x="186" y="412" type="curve"/>
      <point x="137" y="381"/>
      <point x="82" y="343"/>
      <point x="33" y="300" type="curve"/>
      <point x="64" y="216" type="line"/>
      <point x="175" y="184"/>
      <point x="259" y="106"/>
      <point x="316" y="0" type="curve"/>
      <point x="387" y="0" type="line"/>
      <point x="387" y="436" type="line"/>
      <point x="463" y="419"/>
      <point x="512" y="368"/>
      <point x="512" y="291" type="curve" smooth="yes"/>
      <point x="512" y="261"/>
      <point x="504" y="232"/>
      <point x="465" y="232" type="curve" smooth="yes"/>
      <point x="455" y="232"/>
      <point x="445" y="233"/>
      <point x="439" y="234" type="curve"/>
      <point x="436" y="165" type="line"/>
      <point x="449" y="162"/>
      <point x="466" y="161"/>
      <point x="482" y="161" type="curve" smooth="yes"/>
      <point x="558" y="161"/>
      <point x="583" y="224"/>
      <point x="583" y="288" type="curve" smooth="yes"/>
      <point x="583" y="351"/>
      <point x="556" y="409"/>
      <point x="513" y="447" type="curve" smooth="yes"/>
      <point x="466" y="488"/>
      <point x="404" y="510"/>
      <point x="330" y="510" type="curve" smooth="yes"/>
      <point x="316" y="510" type="line"/>
      <point x="316" y="168" type="line" smooth="yes"/>
      <point x="316" y="143"/>
      <point x="316" y="118"/>
      <point x="318" y="96" type="curve"/>
      <point x="265" y="183"/>
      <point x="198" y="244"/>
      <point x="105" y="279" type="curve"/>
      <point x="108" y="270" type="line"/>
      <point x="149" y="306"/>
      <point x="208" y="345"/>
      <point x="259" y="376" type="curve"/>
      <point x="255" y="440" type="line"/>
      <point x="204" y="486"/>
      <point x="136" y="536"/>
      <point x="71" y="563" type="curve"/>
      <point x="72" y="554" type="line"/>
      <point x="624" y="554" type="line"/>
    </contour>
  </outline>
</glyph>
<glyph name="babeng" format="2">
  <advance width="443"/>
  <unicode hex="09AC"/>
  <outline>
    <contour>
      <point x="449" y="622" type="line"/>
      <point x="-6" y="622" type="line"/>
      <point x="-6" y="554" type="line"/>
      <point x="304" y="554" type="line"/>
      <point x="304" y="485" type="line"/>
      <point x="319" y="527" type="line"/>
      <point x="215" y="480"/>
      <point x="112" y="410"/>
      <point x="23" y="336" type="curve"/>
      <point x="55" y="251" type="line"/>
      <point x="169" y="219"/>
      <point x="257" y="121"/>
      <point x="304" y="0" type="curve"/>
      <point x="375" y="0" type="line"/>
      <point x="375" y="554" type="line"/>
      <point x="449" y="554" type="line"/>
    </contour>
    <contour>
      <point x="304" y="477" type="line"/>
      <point x="304" y="188" type="line" smooth="yes"/>
      <point x="304" y="154"/>
      <point x="306" y="108"/>
      <point x="309" y="79" type="curve"/>
      <point x="316" y="87" type="line"/>
      <point x="275" y="203"/>
      <point x="190" y="275"/>
      <point x="103" y="308" type="curve"/>
      <point x="167" y="363"/>
      <point x="257" y="417"/>
      <point x="325" y="453" type="curve"/>
    </contour>
  </outline>
</glyph>
<glyph name="bhabeng" format="2">
  <advance width="533"/>
  <unicode hex="09AD"/>
  <outline>
    <contour>
      <point x="309" y="44" type="curve" smooth="yes"/>
      <point x="429" y="44"/>
      <point x="493" y="136"/>
      <point x="493" y="267" type="curve" smooth="yes"/>
      <point x="493" y="335"/>
      <point x="472" y="407"/>
      <point x="440" y="472" type="curve"/>
      <point x="390" y="405" type="line"/>
      <point x="407" y="372"/>
      <point x="422" y="326"/>
      <point x="422" y="267" type="curve" smooth="yes"/>
      <point x="422" y="170"/>
      <point x="379" y="117"/>
      <point x="306" y="117" type="curve" smooth="yes"/>
      <point x="199" y="117"/>
      <point x="138" y="218"/>
      <point x="88" y="484" type="curve"/>
      <point x="18" y="469" type="line"/>
      <point x="78" y="146"/>
      <point x="169" y="44"/>
    </contour>
    <contour>
      <point x="287" y="284" type="curve" smooth="yes"/>
      <point x="353" y="284"/>
      <point x="396" y="335"/>
      <point x="428" y="421" type="curve"/>
      <point x="440" y="472" type="line"/>
      <point x="379" y="462" type="line"/>
      <point x="347" y="365"/>
      <point x="315" y="352"/>
      <point x="290" y="352" type="curve" smooth="yes"/>
      <point x="270" y="352"/>
      <point x="257" y="368"/>
      <point x="257" y="395" type="curve" smooth="yes"/>
      <point x="257" y="420"/>
      <point x="265" y="446"/>
      <point x="273" y="464" type="curve"/>
      <point x="206" y="486" type="line"/>
      <point x="195" y="458"/>
      <point x="185" y="431"/>
      <point x="185" y="393" type="curve" smooth="yes"/>
      <point x="185" y="329"/>
      <point x="225" y="284"/>
    </contour>
    <contour>
      <point x="539" y="622" type="line"/>
      <point x="-6" y="622" type="line"/>
      <point x="-6" y="554" type="line"/>
      <point x="539" y="554" type="line"/>
    </contour>
  </outline>
</glyph>
<glyph name="mabeng" format="2">
  <advance width="457"/>
  <unicode hex="09AE"/>
  <outline>
    <contour>
      <point x="463" y="622" type="line"/>
      <point x="-6" y="622" type="line"/>
      <point x="-6" y="554" type="line"/>
      <point x="318" y="554" type="line"/>
      <point x="318" y="331" type="line" smooth="yes"/>
      <point x="318" y="301"/>
      <point x="319" y="271"/>
      <point x="321" y="241" type="curve"/>
      <point x="336" y="241" type="line"/>
      <point x="285" y="309"/>
      <point x="240" y="351"/>
      <point x="167" y="351" type="curve" smooth="yes"/>
      <point x="99" y="351"/>
      <point x="42" y="305"/>
      <point x="42" y="218" type="curve" smooth="yes"/>
      <point x="42" y="126"/>
      <point x="102" y="71"/>
      <point x="156" y="42" type="curve"/>
      <point x="193" y="110" type="line"/>
      <point x="148" y="133"/>
      <point x="116" y="163"/>
      <point x="116" y="214" type="curve" smooth="yes"/>
      <point x="116" y="256"/>
      <point x="140" y="283"/>
      <point x="178" y="283" type="curve" smooth="yes"/>
      <point x="229" y="283"/>
      <point x="270" y="242"/>
      <point x="330" y="153" type="curve"/>
      <point x="318" y="206" type="line"/>
      <point x="318" y="0" type="line"/>
      <point x="389" y="0" type="line"/>
      <point x="389" y="554" type="line"/>
      <point x="463" y="554" type="line"/>
    </contour>
    <contour>
      <point x="234" y="343" type="curve" smooth="yes"/>
      <point x="234" y="453"/>
      <point x="189" y="539"/>
      <point x="57" y="558" type="curve"/>
      <point x="39" y="568" type="line"/>
      <point x="27" y="498" type="line"/>
      <point x="134" y="475"/>
      <point x="159" y="426"/>
      <point x="162" y="327" type="curve"/>
      <point x="232" y="300" type="line"/>
      <point x="233" y="312"/>
      <point x="234" y="327"/>
    </contour>
  </outline>
</glyph>
<glyph name="yabeng" format="2">
  <advance width="463"/>
  <unicode hex="09AF"/>
  <outline>
    <contour>
      <point x="469" y="622" type="line"/>
      <point x="-6" y="622" type="line"/>
      <point x="-6" y="554" type="line"/>
      <point x="63" y="554" type="line"/>
      <point x="58" y="572" type="line"/>
      <point x="31" y="501" type="line"/>
      <point x="87" y="478"/>
      <point x="143" y="447"/>
      <point x="186" y="412" type="curve"/>
      <point x="137" y="381"/>
      <point x="82" y="343"/>
      <point x="33" y="300" type="curve"/>
      <point x="64" y="216" type="line"/>
      <point x="176" y="186"/>
      <point x="268" y="104"/>
      <point x="324" y="0" type="curve"/>
      <point x="395" y="0" type="line"/>
      <point x="395" y="554" type="line"/>
      <point x="469" y="554" type="line"/>
    </contour>
    <contour>
      <point x="324" y="554" type="line"/>
      <point x="324" y="169" type="line" smooth="yes"/>
      <point x="324" y="140"/>
      <point x="324" y="104"/>
      <point x="329" y="77" type="curve"/>
      <point x="341" y="68" type="line"/>
      <point x="284" y="177"/>
      <point x="199" y="246"/>
      <point x="105" y="279" type="curve"/>
      <point x="107" y="269" type="line"/>
      <point x="148" y="305"/>
      <point x="208" y="345"/>
      <point x="259" y="376" type="curve"/>
      <point x="255" y="439" type="line"/>
      <point x="204" y="486"/>
      <point x="136" y="536"/>
      <point x="71" y="563" type="curve"/>
      <point x="72" y="554" type="line"/>
    </contour>
  </outline>
</glyph>
<glyph name="labeng" format="2">
  <advance width="545"/>
  <unicode hex="09B2"/>
  <outline>
    <contour>
      <point x="551" y="622" type="line"/>
      <point x="-6" y="622" type="line"/>
      <point x="-6" y="554" type="line"/>
      <point x="406" y="554" type="line"/>
      <point x="406" y="482" type="line" smooth="yes"/>
      <point x="406" y="452"/>
      <point x="407" y="424"/>
      <point x="409" y="397" type="curve"/>
      <point x="418" y="405" type="line"/>
      <point x="392" y="433"/>
      <point x="367" y="450"/>
      <point x="335" y="450" type="curve" smooth="yes"/>
      <point x="302" y="450"/>
      <point x="270" y="430"/>
      <point x="262" y="381" type="curve"/>
      <point x="276" y="384" type="line"/>
      <point x="249" y="434"/>
      <point x="208" y="462"/>
      <point x="158" y="462" type="curve" smooth="yes"/>
      <point x="88" y="462"/>
      <point x="33" y="412"/>
      <point x="33" y="327" type="curve" smooth="yes"/>
      <point x="33" y="234"/>
      <point x="87" y="174"/>
      <point x="157" y="135" type="curve"/>
      <point x="194" y="202" type="line"/>
      <point x="152" y="223"/>
      <point x="107" y="262"/>
      <point x="107" y="323" type="curve" smooth="yes"/>
      <point x="107" y="362"/>
      <point x="126" y="393"/>
      <point x="164" y="393" type="curve" smooth="yes"/>
      <point x="207" y="393"/>
      <point x="237" y="351"/>
      <point x="243" y="281" type="curve"/>
      <point x="305" y="282" type="line"/>
      <point x="303" y="293"/>
      <point x="302" y="304"/>
      <point x="302" y="315" type="curve" smooth="yes"/>
      <point x="302" y="372"/>
      <point x="328" y="382"/>
      <point x="346" y="382" type="curve" smooth="yes"/>
      <point x="372" y="382"/>
      <point x="398" y="358"/>
      <point x="416" y="326" type="curve"/>
      <point x="406" y="353" type="line"/>
      <point x="406" y="0" type="line"/>
      <point x="477" y="0" type="line"/>
      <point x="477" y="554" type="line"/>
      <point x="551" y="554" type="line"/>
    </contour>
  </outline>
</glyph>
<glyph name="ssabeng" format="2">
  <advance width="470"/>
  <unicode hex="09B7"/>
  <outline>
    <contour>
      <point x="476" y="622" type="line"/>
      <point x="-6" y="622" type="line"/>
      <point x="-6" y="554" type="line"/>
      <point x="331" y="554" type="line"/>
      <point x="331" y="458" type="line" smooth="yes"/>
      <point x="331" y="425"/>
      <point x="332" y="397"/>
      <point x="335" y="367" type="curve"/>
      <point x="331" y="328" type="line"/>
      <point x="331" y="164" type="line" smooth="yes"/>
      <point x="331" y="139"/>
      <point x="332" y="111"/>
      <point x="334" y="88" type="curve"/>
      <point x="285" y="178"/>
      <point x="197" y="248"/>
      <point x="113" y="276" type="curve"/>
      <point x="154" y="312"/>
      <point x="207" y="348"/>
      <point x="258" y="379" type="curve"/>
      <point x="238" y="433" type="line"/>
      <point x="215" y="430" type="line"/>
      <point x="153" y="394"/>
      <point x="82" y="341"/>
      <point x="33" y="300" type="curve"/>
      <point x="64" y="216" type="line"/>
      <point x="168" y="191"/>
      <point x="265" y="113"/>
      <point x="331" y="0" type="curve"/>
      <point x="402" y="0" type="line"/>
      <point x="402" y="554" type="line"/>
      <point x="476" y="554" type="line"/>
    </contour>
    <contour>
      <point x="54" y="566" type="line"/>
      <point x="31" y="501" type="line"/>
      <point x="144" y="462"/>
      <point x="254" y="392"/>
      <point x="341" y="280" type="curve"/>
      <point x="357" y="358" type="line"/>
      <point x="255" y="465"/>
      <point x="171" y="518"/>
      <point x="82" y="555" type="curve"/>
    </contour>
  </outline>
</glyph>
<glyph name="sabeng" format="2">
  <advance width="500"/>
  <unicode hex="09B8"/>
  <outline>
    <contour>
      <point x="506" y="622" type="line"/>
      <point x="-6" y="622" type="line"/>
      <point x="-6" y="554" type="line"/>
      <point x="361" y="554" type="line"/>
      <point x="361" y="481" type="line" smooth="yes"/>
      <point x="361" y="454"/>
      <point x="362" y="420"/>
      <point x="363" y="399" type="curve"/>
      <point x="378" y="397" type="line"/>
      <point x="350" y="429"/>
      <point x="330" y="448"/>
      <point x="301" y="448" type="curve" smooth="yes"/>
      <point x="271" y="448"/>
      <point x="252" y="431"/>
      <point x="226" y="353" type="curve"/>
      <point x="205" y="321" type="line"/>
      <point x="170" y="230"/>
      <point x="154" y="204"/>
      <point x="130" y="204" type="curve" smooth="yes"/>
      <point x="111" y="204"/>
      <point x="100" y="214"/>
      <point x="81" y="271" type="curve"/>
      <point x="23" y="250" type="line"/>
      <point x="56" y="151"/>
      <point x="89" y="129"/>
      <point x="133" y="129" type="curve" smooth="yes"/>
      <point x="194" y="129"/>
      <point x="216" y="171"/>
      <point x="260" y="278" type="curve" smooth="yes"/>
      <point x="294" y="363"/>
      <point x="303" y="376"/>
      <point x="322" y="376" type="curve" smooth="yes"/>
      <point x="337" y="376"/>
      <point x="356" y="357"/>
      <point x="378" y="321" type="curve"/>
      <point x="361" y="367" type="line"/>
      <point x="361" y="0" type="line"/>
      <point x="432" y="0" type="line"/>
      <point x="432" y="554" type="line"/>
      <point x="506" y="554" type="line"/>
    </contour>
    <contour>
      <point x="194" y="271" type="curve"/>
      <point x="236" y="355" type="line"/>
      <point x="225" y="490"/>
      <point x="190" y="534"/>
      <point x="72" y="554" type="curve"/>
      <point x="47" y="573" type="line"/>
      <point x="30" y="498" type="line"/>
      <point x="90" y="486"/>
      <point x="128" y="475"/>
      <point x="151" y="443" type="curve" smooth="yes"/>
      <point x="173" y="413"/>
      <point x="184" y="361"/>
    </contour>
  </outline>
</glyph>
<glyph name="habeng" format="2">
  <advance width="396"/>
  <unicode hex="09B9"/>
  <outline>
    <contour>
      <point x="184" y="500" type="curve" smooth="yes"/>
      <point x="103" y="500"/>
      <point x="47" y="456"/>
      <point x="47" y="388" type="curve" smooth="yes"/>
      <point x="47" y="367"/>
      <point x="51" y="341"/>
      <point x="57" y="324" type="curve"/>
      <point x="125" y="337" type="line"/>
      <point x="121" y="347"/>
      <point x="118" y="361"/>
      <point x="118" y="377" type="curve" smooth="yes"/>
      <point x="118" y="407"/>
      <point x="138" y="432"/>
      <point x="187" y="432" type="curve" smooth="yes"/>
      <point x="242" y="432"/>
      <point x="279" y="394"/>
      <point x="279" y="324" type="curve" smooth="yes"/>
      <point x="279" y="258"/>
      <point x="244" y="204"/>
      <point x="142" y="204" type="curve" smooth="yes"/>
      <point x="114" y="204"/>
      <point x="81" y="207"/>
      <point x="46" y="219" type="curve"/>
      <point x="33" y="155" type="line"/>
      <point x="168" y="122"/>
      <point x="244" y="74"/>
      <point x="357" y="-33" type="curve"/>
      <point x="406" y="18" type="line"/>
      <point x="337" y="84"/>
      <point x="258" y="136"/>
      <point x="197" y="159" type="curve"/>
      <point x="175" y="142" type="line"/>
      <point x="276" y="153"/>
      <point x="352" y="213"/>
      <point x="352" y="327" type="curve" smooth="yes"/>
      <point x="352" y="409"/>
      <point x="303" y="500"/>
    </contour>
    <contour>
      <point x="118" y="467" type="curve"/>
      <point x="191" y="470" type="line"/>
      <point x="186" y="527"/>
      <point x="158" y="556"/>
      <point x="99" y="582" type="curve"/>
      <point x="66" y="594" type="line"/>
      <point x="35" y="559" type="line"/>
      <point x="84" y="544"/>
      <point x="113" y="511"/>
    </contour>
    <contour>
      <point x="402" y="622" type="line"/>
      <point x="-6" y="622" type="line"/>
      <point x="-6" y="554" type="line"/>
      <point x="402" y="554" type="line"/>
    </contour>
  </outline>
</glyph>
<glyph name="nuktabeng" format="2">
  <unicode hex="09BC"/>
  <outline>
    <contour>
      <point x="-250" y="-179" type="curve" smooth="yes"/>
      <point x="-218" y="-179"/>
      <point x="-201" y="-157"/>
      <point x="-201" y="-124" type="curve" smooth="yes"/>
      <point x="-201" y="-92"/>
      <point x="-218" y="-69"/>
      <point x="-250" y="-69" type="curve" smooth="yes"/>
      <point x="-281" y="-69"/>
      <point x="-299" y="-92"/>
      <point x="-299" y="-124" type="curve" smooth="yes"/>
      <point x="-299" y="-157"/>
      <point x="-281" y="-179"/>
    </contour>
  </outline>
</glyph>
<glyph name="avagrahabeng" format="2">
  <advance width="393"/>
  <unicode hex="09BD"/>
  <outline>
    <contour>
      <point x="184" y="500" type="curve" smooth="yes"/>
      <point x="103" y="500"/>
      <point x="47" y="456"/>
      <point x="47" y="388" type="curve" smooth="yes"/>
      <point x="47" y="367"/>
      <point x="51" y="341"/>
      <point x="57" y="324" type="curve"/>
      <point x="125" y="337" type="line"/>
      <point x="121" y="347"/>
      <point x="118" y="361"/>
      <point x="118" y="377" type="curve" smooth="yes"/>
      <point x="118" y="407"/>
      <point x="138" y="432"/>
      <point x="187" y="432" type="curve" smooth="yes"/>
      <point x="242" y="432"/>
      <point x="279" y="394"/>
      <point x="279" y="324" type="curve" smooth="yes"/>
      <point x="279" y="258"/>
      <point x="244" y="204"/>
      <point x="142" y="204" type="curve" smooth="yes"/>
      <point x="114" y="204"/>
      <point x="81" y="207"/>
      <point x="46" y="219" type="curve"/>
      <point x="33" y="155" type="line"/>
      <point x="168" y="122"/>
      <point x="244" y="74"/>
      <point x="357" y="-33" type="curve"/>
      <point x="406" y="18" type="line"/>
      <point x="337" y="84"/>
      <point x="258" y="136"/>
      <point x="197" y="159" type="curve"/>
      <point x="175" y="142" type="line"/>
      <point x="276" y="153"/>
      <point x="352" y="213"/>
      <point x="352" y="327" type="curve" smooth="yes"/>
      <point x="352" y="409"/>
      <point x="303" y="500"/>
    </contour>
    <contour>
      <point x="211" y="622" type="line"/>
      <point x="-6" y="622" type="line"/>
      <point x="-6" y="554" type="line"/>
      <point x="141" y="554" type="line"/>
      <point x="141" y="481" type="line"/>
      <point x="211" y="497" type="line"/>
    </contour>
  </outline>
</glyph>
<glyph name="aavowelsignbeng" format="2">
  <advance width="207"/>
  <unicode hex="09BE"/>
  <outline>
    <contour>
      <point x="213" y="622" type="line"/>
      <point x="138" y="622" type="line"/>
      <point x="122" y="688" type="line"/>
      <point x="68" y="688" type="line"/>
      <point x="68" y="634" type="line" smooth="yes"/>
      <point x="68" y="615"/>
      <point x="69" y="593"/>
      <point x="71" y="576" type="curve"/>
      <point x="52" y="604"/>
      <point x="33" y="622"/>
      <point x="6" y="622" type="curve" smooth="yes"/>
      <point x="-6" y="622" type="line"/>
      <point x="-6" y="554" type="line"/>
      <point x="-3" y="554" type="line" smooth="yes"/>
      <point x="29" y="554"/>
      <point x="46" y="534"/>
      <point x="68" y="495" type="curve"/>
      <point x="68" y="0" type="line"/>
      <point x="139" y="0" type="line"/>
      <point x="139" y="554" type="line"/>
      <point x="213" y="554" type="line"/>
    </contour>
  </outline>
</glyph>
<glyph name="ivowelsignbeng" format="2">
  <advance width="207"/>
  <unicode hex="09BF"/>
  <outline>
    <contour>
      <point x="213" y="622" type="line"/>
      <point x="133" y="622" type="line"/>
      <point x="116" y="647"/>
      <point x="98" y="678"/>
      <point x="89" y="699" type="curve"/>
      <point x="135" y="786"/>
      <point x="184" y="847"/>
      <point x="248" y="847" type="curve" smooth="yes"/>
      <point x="322" y="847"/>
      <point x="381" y="791"/>
      <point x="479" y="677" type="curve"/>
      <point x="529" y="721" type="line"/>
      <point x="415" y="847"/>
      <point x="343" y="917"/>
      <point x="241" y="917" type="curve" smooth="yes"/>
      <point x="140" y="917"/>
      <point x="69" y="821"/>
      <point x="10" y="706" type="curve"/>
      <point x="25" y="678"/>
      <point x="44" y="644"/>
      <point x="60" y="622" type="curve"/>
      <point x="-6" y="622" type="line"/>
      <point x="-6" y="554" type="line"/>
      <point x="68" y="554" type="line"/>
      <point x="68" y="0" type="line"/>
      <point x="139" y="0" type="line"/>
      <point x="139" y="554" type="line"/>
      <point x="213" y="554" type="line"/>
    </contour>
  </outline>
</glyph>
<glyph name="iivowelsignbeng" format="2">
  <advance width="207"/>
  <unicode hex="09C0"/>
  <outline>
    <contour>
      <point x="213" y="554" type="line"/>
      <point x="213" y="622" type="line"/>
      <point x="139" y="622" type="line"/>
      <point x="128" y="814"/>
      <point x="16" y="917"/>
      <point x="-175" y="917" type="curve" smooth="yes"/>
      <point x="-317" y="917"/>
      <point x="-384" y="861"/>
      <point x="-384" y="790" type="curve" smooth="yes"/>
      <point x="-384" y="761"/>
      <point x="-374" y="734"/>
      <point x="-349" y="716" type="curve" smooth="yes"/>
      <point x="-330" y="702"/>
      <point x="-300" y="695"/>
      <point x="-247" y="695" type="curve" smooth="yes"/>
      <point x="-202" y="695" type="line" smooth="yes"/>
      <point x="-174" y="695"/>
      <point x="-161" y="691"/>
      <point x="-152" y="680" type="curve" smooth="yes"/>
      <point x="-142" y="669"/>
      <point x="-138" y="649"/>
      <point x="-137" y="615" type="curve"/>
      <point x="-72" y="615" type="line"/>
      <point x="-72" y="667"/>
      <point x="-79" y="700"/>
      <point x="-98" y="725" type="curve" smooth="yes"/>
      <point x="-118" y="751"/>
      <point x="-151" y="763"/>
      <point x="-201" y="763" type="curve" smooth="yes"/>
      <point x="-259" y="763" type="line" smooth="yes"/>
      <point x="-294" y="763"/>
      <point x="-313" y="767"/>
      <point x="-313" y="793" type="curve" smooth="yes"/>
      <point x="-313" y="831"/>
      <point x="-269" y="851"/>
      <point x="-172" y="851" type="curve" smooth="yes"/>
      <point x="-47" y="851"/>
      <point x="53" y="797"/>
      <point x="68" y="622" type="curve"/>
      <point x="-6" y="622" type="line"/>
      <point x="-6" y="554" type="line"/>
      <point x="68" y="554" type="line"/>
      <point x="68" y="0" type="line"/>
      <point x="139" y="0" type="line"/>
      <point x="139" y="554" type="line"/>
    </contour>
  </outline>
</glyph>
<glyph name="rrvocalicvowelsignbeng" format="2">
  <unicode hex="09C4"/>
  <outline>
    <contour>
      <point x="-272" y="-87" type="curve"/>
      <point x="-237" y="-159" type="line"/>
      <point x="-197" y="-165"/>
      <point x="-156" y="-175"/>
      <point x="-120" y="-191" type="curve"/>
      <point x="-82" y="-208"/>
      <point x="-49" y="-230"/>
      <point x="-7" y="-263" type="curve"/>
      <point x="29" y="-217" type="line"/>
      <point x="-37" y="-161"/>
      <point x="-104" y="-123"/>
      <point x="-201" y="-103" type="curve"/>
      <point x="-209" y="-116" type="line"/>
      <point x="-164" y="-85"/>
      <point x="-108" y="-52"/>
      <point x="-51" y="-23" type="curve"/>
      <point x="-84" y="33" type="line"/>
      <point x="-154" y="-6"/>
      <point x="-219" y="-49"/>
    </contour>
    <contour>
      <point x="-272" y="-246" type="curve"/>
      <point x="-238" y="-315" type="line"/>
      <point x="-171" y="-328"/>
      <point x="-109" y="-349"/>
      <point x="-48" y="-393" type="curve"/>
      <point x="-12" y="-344" type="line"/>
      <point x="-76" y="-298"/>
      <point x="-139" y="-271"/>
      <point x="-209" y="-261" type="curve"/>
      <point x="-208" y="-272" type="line"/>
      <point x="-170" y="-245"/>
      <point x="-106" y="-208"/>
      <point x="-58" y="-185" type="curve"/>
      <point x="-128" y="-162" type="line"/>
      <point x="-175" y="-183"/>
      <point x="-224" y="-212"/>
    </contour>
  </outline>
</glyph>
<glyph name="aivowelsignbeng" format="2">
  <advance width="269"/>
  <unicode hex="09C8"/>
  <outline>
    <contour>
      <point x="208" y="622" type="curve"/>
      <point x="275" y="622" type="line"/>
      <point x="273" y="681"/>
      <point x="265" y="716"/>
      <point x="239" y="741" type="curve" smooth="yes"/>
      <point x="218" y="761"/>
      <point x="190" y="771"/>
      <point x="135" y="771" type="curve" smooth="yes"/>
      <point x="134" y="771" type="line" smooth="yes"/>
      <point x="96" y="771"/>
      <point x="77" y="778"/>
      <point x="61" y="792" type="curve" smooth="yes"/>
      <point x="43" y="808"/>
      <point x="37" y="834"/>
      <point x="37" y="866" type="curve" smooth="yes"/>
      <point x="37" y="879"/>
      <point x="38" y="892"/>
      <point x="40" y="907" type="curve"/>
      <point x="-27" y="912" type="line"/>
      <point x="-30" y="896"/>
      <point x="-32" y="877"/>
      <point x="-32" y="859" type="curve" smooth="yes"/>
      <point x="-32" y="808"/>
      <point x="-19" y="766"/>
      <point x="11" y="739" type="curve" smooth="yes"/>
      <point x="38" y="714"/>
      <point x="80" y="702"/>
      <point x="137" y="702" type="curve" smooth="yes"/>
      <point x="138" y="702" type="line" smooth="yes"/>
      <point x="191" y="702"/>
      <point x="205" y="673"/>
    </contour>
    <component base="evowelsignbeng"/>
  </outline>
</glyph>
<glyph name="viramabeng" format="2">
  <unicode hex="09CD"/>
  <outline>
    <contour>
      <point x="-100" y="-18" type="line"/>
      <point x="-152" y="-67" type="line"/>
      <point x="48" y="-266" type="line"/>
      <point x="95" y="-222" type="line"/>
    </contour>
  </outline>
</glyph>
<glyph name="khandatabeng" format="2">
  <advance width="394"/>
  <unicode hex="09CE"/>
  <outline>
    <contour>
      <point x="207" y="629" type="curve" smooth="yes"/>
      <point x="101" y="629"/>
      <point x="38" y="542"/>
      <point x="38" y="428" type="curve" smooth="yes"/>
      <point x="38" y="318"/>
      <point x="95" y="246"/>
      <point x="214" y="167" type="curve" smooth="yes"/>
      <point x="314" y="100"/>
      <point x="332" y="63"/>
      <point x="345" y="-10" type="curve"/>
      <point x="414" y="3" type="line"/>
      <point x="408" y="102"/>
      <point x="366" y="149"/>
      <point x="248" y="232" type="curve" smooth="yes"/>
      <point x="152" y="299"/>
      <point x="110" y="334"/>
      <point x="110" y="425" type="curve" smooth="yes"/>
      <point x="110" y="501"/>
      <point x="145" y="560"/>
      <point x="205" y="560" type="curve" smooth="yes"/>
      <point x="251" y="560"/>
      <point x="273" y="525"/>
      <point x="273" y="485" type="curve" smooth="yes"/>
      <point x="273" y="439"/>
      <point x="251" y="418"/>
      <point x="204" y="418" type="curve" smooth="yes"/>
      <point x="187" y="418"/>
      <point x="167" y="422"/>
      <point x="149" y="430" type="curve"/>
      <point x="133" y="367" type="line"/>
      <point x="155" y="356"/>
      <point x="181" y="348"/>
      <point x="216" y="348" type="curve" smooth="yes"/>
      <point x="298" y="348"/>
      <point x="346" y="400"/>
      <point x="346" y="486" type="curve" smooth="yes"/>
      <point x="346" y="568"/>
      <point x="297" y="629"/>
    </contour>
  </outline>
</glyph>
<glyph name="aulengthmarkbeng" format="2">
  <advance width="207"/>
  <unicode hex="09D7"/>
  <outline>
    <contour>
      <point x="139" y="0" type="line"/>
      <point x="139" y="554" type="line"/>
      <point x="213" y="554" type="line"/>
      <point x="213" y="622" type="line"/>
      <point x="-6" y="622" type="line"/>
      <point x="-6" y="554" type="line"/>
      <point x="68" y="554" type="line"/>
      <point x="68" y="0" type="line"/>
    </contour>
    <contour>
      <point x="72" y="622" type="curve"/>
      <point x="139" y="622" type="line"/>
      <point x="137" y="681"/>
      <point x="129" y="716"/>
      <point x="103" y="741" type="curve" smooth="yes"/>
      <point x="82" y="761"/>
      <point x="54" y="771"/>
      <point x="-9" y="771" type="curve" smooth="yes"/>
      <point x="-88" y="771" type="line" smooth="yes"/>
      <point x="-135" y="771"/>
      <point x="-156" y="778"/>
      <point x="-172" y="792" type="curve" smooth="yes"/>
      <point x="-191" y="808"/>
      <point x="-197" y="834"/>
      <point x="-197" y="866" type="curve" smooth="yes"/>
      <point x="-197" y="879"/>
      <point x="-196" y="892"/>
      <point x="-194" y="907" type="curve"/>
      <point x="-261" y="912" type="line"/>
      <point x="-264" y="896"/>
      <point x="-266" y="877"/>
      <point x="-266" y="859" type="curve" smooth="yes"/>
      <point x="-266" y="808"/>
      <point x="-253" y="766"/>
      <point x="-222" y="739" type="curve" smooth="yes"/>
      <point x="-194" y="715"/>
      <point x="-154" y="702"/>
      <point x="-85" y="702" type="curve" smooth="yes"/>
      <point x="-2" y="702" type="line" smooth="yes"/>
      <point x="55" y="702"/>
      <point x="69" y="673"/>
    </contour>
  </outline>
</glyph>
<glyph name="lvocalicvowelsignbeng" format="2">
  <unicode hex="09E2"/>
  <outline>
    <contour>
      <point x="-210" y="-128" type="curve" smooth="yes"/>
      <point x="-263" y="-128"/>
      <point x="-294" y="-157"/>
      <point x="-294" y="-195" type="curve" smooth="yes"/>
      <point x="-294" y="-210"/>
      <point x="-291" y="-226"/>
      <point x="-286" y="-238" type="curve"/>
      <point x="-228" y="-229" type="line"/>
      <point x="-231" y="-221"/>
      <point x="-233" y="-212"/>
      <point x="-233" y="-206" type="curve" smooth="yes"/>
      <point x="-233" y="-188"/>
      <point x="-222" y="-179"/>
      <point x="-207" y="-179" type="curve" smooth="yes"/>
      <point x="-187" y="-179"/>
      <point x="-176" y="-193"/>
      <point x="-176" y="-212" type="curve" smooth="yes"/>
      <point x="-176" y="-238"/>
      <point x="-191" y="-255"/>
      <point x="-218" y="-265" type="curve"/>
      <point x="-209" y="-313" type="line"/>
      <point x="-203" y="-313" type="line" smooth="yes"/>
      <point x="-101" y="-313"/>
      <point x="-2" y="-280"/>
      <point x="-2" y="-184" type="curve" smooth="yes"/>
      <point x="-2" y="-129"/>
      <point x="-29" y="-86"/>
      <point x="-121" y="-55" type="curve" smooth="yes"/>
      <point x="-161" y="-41"/>
      <point x="-168" y="-30"/>
      <point x="-168" y="-16" type="curve" smooth="yes"/>
      <point x="-168" y="-12"/>
      <point x="-167" y="-6"/>
      <point x="-164" y="0" type="curve"/>
      <point x="-220" y="12" type="line"/>
      <point x="-225" y="1"/>
      <point x="-228" y="-10"/>
      <point x="-228" y="-23" type="curve" smooth="yes"/>
      <point x="-228" y="-66"/>
      <point x="-203" y="-86"/>
      <point x="-148" y="-105" type="curve" smooth="yes"/>
      <point x="-79" y="-129"/>
      <point x="-65" y="-153"/>
      <point x="-65" y="-187" type="curve" smooth="yes"/>
      <point x="-65" y="-232"/>
      <point x="-102" y="-254"/>
      <point x="-162" y="-264" type="curve"/>
      <point x="-159" y="-278" type="line"/>
      <point x="-134" y="-261"/>
      <point x="-122" y="-236"/>
      <point x="-122" y="-203" type="curve" smooth="yes"/>
      <point x="-122" y="-156"/>
      <point x="-156" y="-128"/>
    </contour>
  </outline>
</glyph>
<glyph name="zerobeng" format="2">
  <advance width="437"/>
  <unicode hex="09E6"/>
  <outline>
    <contour>
      <point x="218" y="92" type="curve" smooth="yes"/>
      <point x="335" y="92"/>
      <point x="386" y="196"/>
      <point x="386" y="318" type="curve" smooth="yes"/>
      <point x="386" y="483"/>
      <point x="312" y="543"/>
      <point x="220" y="543" type="curve" smooth="yes"/>
      <point x="102" y="543"/>
      <point x="51" y="439"/>
      <point x="51" y="317" type="curve" smooth="yes"/>
      <point x="51" y="152"/>
      <point x="125" y="92"/>
    </contour>
    <contour>
      <point x="219" y="475" type="curve" smooth="yes"/>
      <point x="288" y="475"/>
      <point x="313" y="414"/>
      <point x="313" y="321" type="curve" smooth="yes"/>
      <point x="313" y="221"/>
      <point x="276" y="160"/>
      <point x="218" y="160" type="curve" smooth="yes"/>
      <point x="149" y="160"/>
      <point x="125" y="221"/>
      <point x="125" y="314" type="curve" smooth="yes"/>
      <point x="125" y="418"/>
      <point x="164" y="475"/>
    </contour>
  </outline>
</glyph>
<glyph name="onebeng" format="2">
  <advance width="437"/>
  <unicode hex="09E7"/>
  <outline>
    <contour>
      <point x="215" y="0" type="curve" smooth="yes"/>
      <point x="313" y="0"/>
      <point x="382" y="70"/>
      <point x="382" y="178" type="curve" smooth="yes"/>
      <point x="382" y="265"/>
      <point x="344" y="325"/>
      <point x="245" y="409" type="curve" smooth="yes"/>
      <point x="158" y="483"/>
      <point x="145" y="500"/>
      <point x="145" y="535" type="curve" smooth="yes"/>
      <point x="145" y="554"/>
      <point x="156" y="573"/>
      <point x="175" y="598" type="curve"/>
      <point x="116" y="631" type="line"/>
      <point x="88" y="597"/>
      <point x="70" y="564"/>
      <point x="70" y="530" type="curve" smooth="yes"/>
      <point x="70" y="470"/>
      <point x="105" y="434"/>
      <point x="196" y="355" type="curve" smooth="yes"/>
      <point x="279" y="283"/>
      <point x="310" y="240"/>
      <point x="310" y="176" type="curve" smooth="yes"/>
      <point x="310" y="111"/>
      <point x="272" y="71"/>
      <point x="212" y="71" type="curve" smooth="yes"/>
      <point x="171" y="71"/>
      <point x="148" y="91"/>
      <point x="148" y="118" type="curve" smooth="yes"/>
      <point x="148" y="143"/>
      <point x="172" y="156"/>
      <point x="197" y="166" type="curve"/>
      <point x="165" y="238" type="line"/>
      <point x="111" y="215"/>
      <point x="73" y="178"/>
      <point x="73" y="121" type="curve" smooth="yes"/>
      <point x="73" y="56"/>
      <point x="117" y="0"/>
    </contour>
  </outline>
</glyph>
<glyph name="twobeng" format="2">
  <advance width="437"/>
  <unicode hex="09E8"/>
  <outline>
    <contour>
      <point x="88" y="539" type="curve" smooth="yes"/>
      <point x="88" y="490"/>
      <point x="114" y="461"/>
      <point x="195" y="429" type="curve" smooth="yes"/>
      <point x="267" y="401"/>
      <point x="294" y="377"/>
      <point x="294" y="331" type="curve" smooth="yes"/>
      <point x="294" y="273"/>
      <point x="258" y="234"/>
      <point x="165" y="234" type="curve" smooth="yes"/>
      <point x="127" y="234"/>
      <point x="90" y="240"/>
      <point x="58" y="252" type="curve"/>
      <point x="45" y="188" type="line"/>
      <point x="183" y="150"/>
      <point x="256" y="103"/>
      <point x="369" y="-4" type="curve"/>
      <point x="417" y="46" type="line"/>
      <point x="349" y="112"/>
      <point x="277" y="159"/>
      <point x="214" y="187" type="curve"/>
      <point x="187" y="177" type="line"/>
      <point x="194" y="175"/>
      <point x="200" y="174"/>
      <point x="207" y="174" type="curve"/>
      <point x="307" y="189"/>
      <point x="366" y="244"/>
      <point x="366" y="333" type="curve" smooth="yes"/>
      <point x="366" y="404"/>
      <point x="329" y="452"/>
      <point x="234" y="490" type="curve" smooth="yes"/>
      <point x="172" y="515"/>
      <point x="162" y="524"/>
      <point x="162" y="547" type="curve" smooth="yes"/>
      <point x="162" y="562"/>
      <point x="171" y="579"/>
      <point x="185" y="598" type="curve"/>
      <point x="127" y="631" type="line"/>
      <point x="101" y="595"/>
      <point x="88" y="568"/>
    </contour>
  </outline>
</glyph>
<glyph name="threebeng" format="2">
  <advance width="437"/>
  <unicode hex="09E9"/>
  <outline>
    <contour>
      <point x="406" y="295" type="curve" smooth="yes"/>
      <point x="406" y="452"/>
      <point x="353" y="578"/>
      <point x="247" y="578" type="curve" smooth="yes"/>
      <point x="201" y="578"/>
      <point x="147" y="551"/>
      <point x="147" y="473" type="curve" smooth="yes"/>
      <point x="147" y="436"/>
      <point x="157" y="396"/>
      <point x="168" y="369" type="curve"/>
      <point x="236" y="390" type="line"/>
      <point x="226" y="416"/>
      <point x="221" y="436"/>
      <point x="221" y="462" type="curve" smooth="yes"/>
      <point x="221" y="492"/>
      <point x="235" y="510"/>
      <point x="255" y="510" type="curve" smooth="yes"/>
      <point x="300" y="510"/>
      <point x="335" y="421"/>
      <point x="335" y="295" type="curve" smooth="yes"/>
      <point x="335" y="181"/>
      <point x="313" y="114"/>
      <point x="251" y="114" type="curve" smooth="yes"/>
      <point x="172" y="114"/>
      <point x="123" y="230"/>
      <point x="94" y="511" type="curve"/>
      <point x="24" y="498" type="line"/>
      <point x="65" y="110"/>
      <point x="152" y="40"/>
      <point x="256" y="40" type="curve" smooth="yes"/>
      <point x="366" y="40"/>
      <point x="406" y="146"/>
    </contour>
  </outline>
</glyph>
<glyph name="fourbeng" format="2">
  <advance width="437"/>
  <unicode hex="09EA"/>
  <outline>
    <contour>
      <point x="219" y="0" type="curve" smooth="yes"/>
      <point x="326" y="0"/>
      <point x="392" y="57"/>
      <point x="392" y="167" type="curve" smooth="yes"/>
      <point x="392" y="247"/>
      <point x="347" y="297"/>
      <point x="272" y="337" type="curve"/>
      <point x="276" y="321" type="line"/>
      <point x="333" y="357"/>
      <point x="384" y="400"/>
      <point x="384" y="479" type="curve" smooth="yes"/>
      <point x="384" y="546"/>
      <point x="341" y="622"/>
      <point x="219" y="622" type="curve" smooth="yes"/>
      <point x="112" y="622"/>
      <point x="53" y="554"/>
      <point x="53" y="474" type="curve" smooth="yes"/>
      <point x="53" y="403"/>
      <point x="98" y="358"/>
      <point x="166" y="313" type="curve"/>
      <point x="167" y="336" type="line"/>
      <point x="86" y="295"/>
      <point x="45" y="245"/>
      <point x="45" y="164" type="curve" smooth="yes"/>
      <point x="45" y="68"/>
      <point x="109" y="0"/>
    </contour>
    <contour>
      <point x="219" y="68" type="curve" smooth="yes"/>
      <point x="148" y="68"/>
      <point x="119" y="108"/>
      <point x="119" y="165" type="curve" smooth="yes"/>
      <point x="119" y="224"/>
      <point x="155" y="268"/>
      <point x="221" y="294" type="curve"/>
      <point x="273" y="273"/>
      <point x="319" y="230"/>
      <point x="319" y="168" type="curve" smooth="yes"/>
      <point x="319" y="105"/>
      <point x="289" y="68"/>
    </contour>
    <contour>
      <point x="217" y="361" type="curve"/>
      <point x="158" y="390"/>
      <point x="127" y="421"/>
      <point x="127" y="473" type="curve" smooth="yes"/>
      <point x="127" y="526"/>
      <point x="169" y="554"/>
      <point x="219" y="554" type="curve" smooth="yes"/>
      <point x="279" y="554"/>
      <point x="311" y="521"/>
      <point x="311" y="474" type="curve" smooth="yes"/>
      <point x="311" y="419"/>
      <point x="266" y="387"/>
    </contour>
  </outline>
</glyph>
<glyph name="fivebeng" format="2">
  <advance width="437"/>
  <unicode hex="09EB"/>
  <outline>
    <contour>
      <point x="235" y="0" type="curve" smooth="yes"/>
      <point x="309" y="0"/>
      <point x="363" y="20"/>
      <point x="419" y="56" type="curve"/>
      <point x="387" y="143" type="line"/>
      <point x="380" y="142"/>
      <point x="371" y="141"/>
      <point x="364" y="141" type="curve" smooth="yes"/>
      <point x="316" y="141"/>
      <point x="300" y="175"/>
      <point x="300" y="215" type="curve" smooth="yes"/>
      <point x="300" y="278"/>
      <point x="332" y="334"/>
      <point x="418" y="403" type="curve"/>
      <point x="385" y="456" type="line"/>
      <point x="381" y="455"/>
      <point x="378" y="455"/>
      <point x="376" y="455" type="curve" smooth="yes"/>
      <point x="339" y="455"/>
      <point x="315" y="478"/>
      <point x="315" y="520" type="curve" smooth="yes"/>
      <point x="315" y="540"/>
      <point x="322" y="564"/>
      <point x="338" y="584" type="curve"/>
      <point x="295" y="629" type="line"/>
      <point x="149" y="521"/>
      <point x="36" y="407"/>
      <point x="36" y="235" type="curve" smooth="yes"/>
      <point x="36" y="79"/>
      <point x="119" y="0"/>
    </contour>
    <contour>
      <point x="244" y="68" type="curve" smooth="yes"/>
      <point x="172" y="68"/>
      <point x="110" y="101"/>
      <point x="110" y="228" type="curve" smooth="yes"/>
      <point x="110" y="352"/>
      <point x="178" y="454"/>
      <point x="289" y="534" type="curve"/>
      <point x="265" y="550" type="line"/>
      <point x="259" y="538"/>
      <point x="254" y="523"/>
      <point x="254" y="502" type="curve" smooth="yes"/>
      <point x="254" y="457"/>
      <point x="282" y="410"/>
      <point x="346" y="402" type="curve"/>
      <point x="343" y="425" type="line"/>
      <point x="267" y="355"/>
      <point x="229" y="295"/>
      <point x="229" y="214" type="curve" smooth="yes"/>
      <point x="229" y="145"/>
      <point x="268" y="89"/>
      <point x="355" y="84" type="curve"/>
      <point x="353" y="94" type="line"/>
      <point x="315" y="77"/>
      <point x="291" y="68"/>
    </contour>
  </outline>
</glyph>
<glyph name="sixbeng" format="2">
  <advance width="437"/>
  <unicode hex="09EC"/>
  <outline>
    <contour>
      <point x="253" y="40" type="curve" smooth="yes"/>
      <point x="364" y="40"/>
      <point x="411" y="129"/>
      <point x="411" y="258" type="curve" smooth="yes"/>
      <point x="411" y="322"/>
      <point x="393" y="399"/>
      <point x="371" y="449" type="curve"/>
      <point x="318" y="439" type="line"/>
      <point x="300" y="347"/>
      <point x="279" y="326"/>
      <point x="261" y="326" type="curve" smooth="yes"/>
      <point x="246" y="326"/>
      <point x="239" y="335"/>
      <point x="239" y="359" type="curve" smooth="yes"/>
      <point x="239" y="452" type="line" smooth="yes"/>
      <point x="239" y="514"/>
      <point x="232" y="539"/>
      <point x="214" y="559" type="curve" smooth="yes"/>
      <point x="196" y="579"/>
      <point x="168" y="590"/>
      <point x="130" y="592" type="curve"/>
      <point x="122" y="518" type="line"/>
      <point x="158" y="514"/>
      <point x="169" y="500"/>
      <point x="169" y="450" type="curve" smooth="yes"/>
      <point x="169" y="377" type="line" smooth="yes"/>
      <point x="169" y="332"/>
      <point x="176" y="305"/>
      <point x="194" y="284" type="curve" smooth="yes"/>
      <point x="207" y="268"/>
      <point x="228" y="258"/>
      <point x="252" y="258" type="curve" smooth="yes"/>
      <point x="303" y="258"/>
      <point x="336" y="303"/>
      <point x="364" y="392" type="curve"/>
      <point x="326" y="392" type="line"/>
      <point x="335" y="364"/>
      <point x="343" y="316"/>
      <point x="343" y="258" type="curve" smooth="yes"/>
      <point x="343" y="164"/>
      <point x="315" y="112"/>
      <point x="251" y="112" type="curve" smooth="yes"/>
      <point x="165" y="112"/>
      <point x="126" y="193"/>
      <point x="88" y="476" type="curve"/>
      <point x="20" y="463" type="line"/>
      <point x="65" y="120"/>
      <point x="132" y="40"/>
    </contour>
  </outline>
</glyph>
<glyph name="sevenbeng" format="2">
  <advance width="437"/>
  <unicode hex="09ED"/>
  <outline>
    <contour>
      <point x="272" y="296" type="line"/>
      <point x="272" y="127" type="line" smooth="yes"/>
      <point x="272" y="39"/>
      <point x="304" y="6"/>
      <point x="382" y="0" type="curve"/>
      <point x="390" y="74" type="line"/>
      <point x="354" y="78"/>
      <point x="343" y="92"/>
      <point x="343" y="142" type="curve" smooth="yes"/>
      <point x="343" y="468" type="line" smooth="yes"/>
      <point x="343" y="540"/>
      <point x="333" y="572"/>
      <point x="301" y="598" type="curve" smooth="yes"/>
      <point x="281" y="614"/>
      <point x="257" y="622"/>
      <point x="220" y="622" type="curve" smooth="yes"/>
      <point x="130" y="622"/>
      <point x="49" y="533"/>
      <point x="49" y="404" type="curve" smooth="yes"/>
      <point x="49" y="304"/>
      <point x="97" y="249"/>
      <point x="195" y="249" type="curve" smooth="yes"/>
      <point x="234" y="249"/>
      <point x="266" y="255"/>
      <point x="313" y="281" type="curve"/>
    </contour>
    <contour>
      <point x="198" y="320" type="curve" smooth="yes"/>
      <point x="155" y="320"/>
      <point x="122" y="339"/>
      <point x="122" y="400" type="curve" smooth="yes"/>
      <point x="122" y="494"/>
      <point x="172" y="554"/>
      <point x="220" y="554" type="curve" smooth="yes"/>
      <point x="235" y="554"/>
      <point x="248" y="548"/>
      <point x="256" y="539" type="curve" smooth="yes"/>
      <point x="269" y="524"/>
      <point x="272" y="500"/>
      <point x="272" y="460" type="curve" smooth="yes"/>
      <point x="272" y="330" type="line"/>
      <point x="289" y="346" type="line"/>
      <point x="258" y="326"/>
      <point x="234" y="320"/>
    </contour>
  </outline>
</glyph>
<glyph name="eightbeng" format="2">
  <advance width="437"/>
  <unicode hex="09EE"/>
  <outline>
    <contour>
      <point x="185" y="0" type="curve" smooth="yes"/>
      <point x="270" y="0"/>
      <point x="340" y="78"/>
      <point x="340" y="210" type="curve" smooth="yes"/>
      <point x="340" y="257"/>
      <point x="332" y="292"/>
      <point x="310" y="319" type="curve"/>
      <point x="296" y="298" type="line"/>
      <point x="306" y="294"/>
      <point x="316" y="293"/>
      <point x="324" y="293" type="curve" smooth="yes"/>
      <point x="365" y="293"/>
      <point x="408" y="318"/>
      <point x="432" y="383" type="curve"/>
      <point x="369" y="417" type="line"/>
      <point x="347" y="370"/>
      <point x="328" y="359"/>
      <point x="297" y="359" type="curve" smooth="yes"/>
      <point x="279" y="359"/>
      <point x="268" y="361"/>
      <point x="245" y="368" type="curve"/>
      <point x="231" y="371"/>
      <point x="222" y="373"/>
      <point x="205" y="373" type="curve" smooth="yes"/>
      <point x="183" y="373"/>
      <point x="161" y="368"/>
      <point x="139" y="360" type="curve"/>
      <point x="139" y="484" type="line" smooth="yes"/>
      <point x="139" y="546"/>
      <point x="131" y="571"/>
      <point x="113" y="591" type="curve" smooth="yes"/>
      <point x="95" y="611"/>
      <point x="67" y="622"/>
      <point x="29" y="624" type="curve"/>
      <point x="21" y="550" type="line"/>
      <point x="57" y="546"/>
      <point x="68" y="532"/>
      <point x="68" y="482" type="curve" smooth="yes"/>
      <point x="68" y="145" type="line" smooth="yes"/>
      <point x="68" y="78"/>
      <point x="82" y="48"/>
      <point x="112" y="23" type="curve" smooth="yes"/>
      <point x="130" y="8"/>
      <point x="152" y="0"/>
    </contour>
    <contour>
      <point x="189" y="68" type="curve" smooth="yes"/>
      <point x="175" y="68"/>
      <point x="163" y="72"/>
      <point x="155" y="80" type="curve" smooth="yes"/>
      <point x="145" y="90"/>
      <point x="139" y="104"/>
      <point x="139" y="143" type="curve" smooth="yes"/>
      <point x="139" y="286" type="line"/>
      <point x="155" y="296"/>
      <point x="181" y="303"/>
      <point x="203" y="303" type="curve" smooth="yes"/>
      <point x="241" y="303"/>
      <point x="267" y="282"/>
      <point x="267" y="220" type="curve" smooth="yes"/>
      <point x="267" y="131"/>
      <point x="239" y="68"/>
    </contour>
  </outline>
</glyph>
<glyph name="ninebeng" format="2">
  <advance width="437"/>
  <unicode hex="09EF"/>
  <outline>
    <contour>
      <point x="135" y="314" type="curve" smooth="yes"/>
      <point x="64" y="314"/>
      <point x="22" y="270"/>
      <point x="22" y="210" type="curve" smooth="yes"/>
      <point x="22" y="184"/>
      <point x="27" y="158"/>
      <point x="35" y="136" type="curve"/>
      <point x="103" y="149" type="line"/>
      <point x="98" y="162"/>
      <point x="94" y="183"/>
      <point x="94" y="199" type="curve" smooth="yes"/>
      <point x="94" y="227"/>
      <point x="109" y="246"/>
      <point x="136" y="246" type="curve" smooth="yes"/>
      <point x="173" y="246"/>
      <point x="187" y="215"/>
      <point x="187" y="178" type="curve" smooth="yes"/>
      <point x="187" y="122"/>
      <point x="157" y="84"/>
      <point x="111" y="66" type="curve"/>
      <point x="128" y="0" type="line"/>
      <point x="153" y="0" type="line" smooth="yes"/>
      <point x="298" y="0"/>
      <point x="413" y="62"/>
      <point x="413" y="217" type="curve" smooth="yes"/>
      <point x="413" y="293"/>
      <point x="391" y="370"/>
      <point x="221" y="446" type="curve" smooth="yes"/>
      <point x="120" y="491"/>
      <point x="104" y="507"/>
      <point x="104" y="539" type="curve" smooth="yes"/>
      <point x="104" y="561"/>
      <point x="113" y="576"/>
      <point x="127" y="600" type="curve"/>
      <point x="68" y="632" type="line"/>
      <point x="43" y="596"/>
      <point x="29" y="564"/>
      <point x="29" y="532" type="curve" smooth="yes"/>
      <point x="29" y="469"/>
      <point x="66" y="434"/>
      <point x="192" y="379" type="curve" smooth="yes"/>
      <point x="317" y="325"/>
      <point x="339" y="275"/>
      <point x="339" y="211" type="curve" smooth="yes"/>
      <point x="339" y="134"/>
      <point x="295" y="84"/>
      <point x="208" y="70" type="curve"/>
      <point x="206" y="61" type="line"/>
      <point x="238" y="93"/>
      <point x="257" y="129"/>
      <point x="257" y="186" type="curve" smooth="yes"/>
      <point x="257" y="260"/>
      <point x="208" y="314"/>
    </contour>
  </outline>
</glyph>
<glyph name="ra1beng" format="2">
  <advance width="447"/>
  <unicode hex="09F0"/>
  <outline>
    <contour>
      <point x="453" y="622" type="line"/>
      <point x="-6" y="622" type="line"/>
      <point x="-6" y="554" type="line"/>
      <point x="308" y="554" type="line"/>
      <point x="308" y="485" type="line"/>
      <point x="323" y="527" type="line"/>
      <point x="219" y="480"/>
      <point x="112" y="410"/>
      <point x="23" y="336" type="curve"/>
      <point x="55" y="251" type="line"/>
      <point x="169" y="219"/>
      <point x="257" y="122"/>
      <point x="308" y="0" type="curve"/>
      <point x="379" y="0" type="line"/>
      <point x="379" y="554" type="line"/>
      <point x="453" y="554" type="line"/>
    </contour>
    <contour>
      <point x="308" y="477" type="line"/>
      <point x="308" y="188" type="line" smooth="yes"/>
      <point x="308" y="154"/>
      <point x="310" y="108"/>
      <point x="313" y="79" type="curve"/>
      <point x="320" y="87" type="line"/>
      <point x="274" y="204"/>
      <point x="188" y="276"/>
      <point x="101" y="309" type="curve"/>
      <point x="166" y="366"/>
      <point x="261" y="417"/>
      <point x="329" y="453" type="curve"/>
    </contour>
    <contour>
      <point x="359" y="126" type="curve"/>
      <point x="360" y="225" type="line"/>
      <point x="308" y="341"/>
      <point x="221" y="387"/>
      <point x="141" y="410" type="curve"/>
      <point x="102" y="367" type="line"/>
      <point x="215" y="341"/>
      <point x="314" y="254"/>
    </contour>
  </outline>
</glyph>
<glyph name="wabeng" format="2">
  <advance width="443"/>
  <unicode hex="09F1"/>
  <outline>
    <contour>
      <point x="449" y="622" type="line"/>
      <point x="-6" y="622" type="line"/>
      <point x="-6" y="554" type="line"/>
      <point x="304" y="554" type="line"/>
      <point x="304" y="485" type="line"/>
      <point x="319" y="527" type="line"/>
      <point x="215" y="480"/>
      <point x="112" y="410"/>
      <point x="23" y="336" type="curve"/>
      <point x="55" y="251" type="line"/>
      <point x="169" y="219"/>
      <point x="257" y="121"/>
      <point x="304" y="0" type="curve"/>
      <point x="375" y="0" type="line"/>
      <point x="375" y="554" type="line"/>
      <point x="449" y="554" type="line"/>
    </contour>
    <contour>
      <point x="304" y="477" type="line"/>
      <point x="304" y="188" type="line" smooth="yes"/>
      <point x="304" y="154"/>
      <point x="306" y="108"/>
      <point x="309" y="79" type="curve"/>
      <point x="316" y="87" type="line"/>
      <point x="275" y="203"/>
      <point x="190" y="275"/>
      <point x="103" y="308" type="curve"/>
      <point x="167" y="363"/>
      <point x="257" y="417"/>
      <point x="325" y="453" type="curve"/>
    </contour>
    <contour>
      <point x="67" y="197" type="curve"/>
      <point x="41" y="134" type="line"/>
      <point x="109" y="101"/>
      <point x="151" y="60"/>
      <point x="199" y="0" type="curve"/>
      <point x="246" y="36" type="line"/>
      <point x="200" y="109"/>
      <point x="144" y="162"/>
    </contour>
  </outline>
</glyph>
<glyph name="rupeemarkbeng" format="2">
  <advance width="436"/>
  <unicode hex="09F2"/>
  <outline>
    <contour>
      <point x="321" y="100" type="curve"/>
      <point x="390" y="121" type="line"/>
      <point x="331" y="334"/>
      <point x="237" y="438"/>
      <point x="88" y="512" type="curve"/>
      <point x="51" y="445" type="line"/>
      <point x="189" y="383"/>
      <point x="274" y="272"/>
    </contour>
  </outline>
</glyph>
<glyph name="rupeesignbeng" format="2">
  <advance width="464"/>
  <unicode hex="09F3"/>
  <outline>
    <contour>
      <point x="431" y="498" type="line"/>
      <point x="45" y="498" type="line"/>
      <point x="45" y="430" type="line"/>
      <point x="119" y="430" type="line"/>
      <point x="119" y="135" type="line" smooth="yes"/>
      <point x="119" y="72"/>
      <point x="127" y="48"/>
      <point x="146" y="27" type="curve" smooth="yes"/>
      <point x="163" y="9"/>
      <point x="189" y="0"/>
      <point x="228" y="0" type="curve" smooth="yes"/>
      <point x="335" y="0"/>
      <point x="410" y="124"/>
      <point x="410" y="240" type="curve" smooth="yes"/>
      <point x="410" y="313"/>
      <point x="375" y="349"/>
      <point x="305" y="349" type="curve" smooth="yes"/>
      <point x="290" y="349"/>
      <point x="262" y="346"/>
      <point x="246" y="340" type="curve"/>
      <point x="259" y="272" type="line"/>
      <point x="270" y="275"/>
      <point x="283" y="277"/>
      <point x="297" y="277" type="curve" smooth="yes"/>
      <point x="327" y="277"/>
      <point x="339" y="262"/>
      <point x="339" y="235" type="curve" smooth="yes"/>
      <point x="339" y="171"/>
      <point x="294" y="68"/>
      <point x="228" y="68" type="curve" smooth="yes"/>
      <point x="196" y="68"/>
      <point x="190" y="91"/>
      <point x="190" y="124" type="curve" smooth="yes"/>
      <point x="190" y="430" type="line"/>
      <point x="431" y="430" type="line"/>
    </contour>
    <contour>
      <point x="97" y="749" type="curve" smooth="yes"/>
      <point x="64" y="749"/>
      <point x="40" y="743"/>
      <point x="6" y="729" type="curve"/>
      <point x="27" y="668" type="line"/>
      <point x="43" y="675"/>
      <point x="61" y="681"/>
      <point x="78" y="681" type="curve" smooth="yes"/>
      <point x="116" y="681"/>
      <point x="119" y="651"/>
      <point x="119" y="617" type="curve" smooth="yes"/>
      <point x="119" y="490" type="line"/>
      <point x="190" y="490" type="line"/>
      <point x="190" y="619" type="line" smooth="yes"/>
      <point x="190" y="681"/>
      <point x="182" y="706"/>
      <point x="163" y="726" type="curve" smooth="yes"/>
      <point x="148" y="741"/>
      <point x="127" y="749"/>
    </contour>
  </outline>
</glyph>
<glyph name="uni09F4" format="2">
  <advance width="436"/>
  <unicode hex="09F4"/>
  <outline>
    <contour>
      <point x="51" y="167" type="curve"/>
      <point x="88" y="100" type="line"/>
      <point x="237" y="174"/>
      <point x="331" y="278"/>
      <point x="390" y="491" type="curve"/>
      <point x="321" y="512" type="line"/>
      <point x="274" y="340"/>
      <point x="189" y="229"/>
    </contour>
  </outline>
</glyph>
<glyph name="uni09F5" format="2">
  <advance width="511"/>
  <unicode hex="09F5"/>
  <outline>
    <contour>
      <point x="151" y="426" type="curve" smooth="yes"/>
      <point x="82" y="426"/>
      <point x="40" y="382"/>
      <point x="40" y="322" type="curve" smooth="yes"/>
      <point x="40" y="296"/>
      <point x="45" y="270"/>
      <point x="53" y="248" type="curve"/>
      <point x="121" y="261" type="line"/>
      <point x="117" y="272"/>
      <point x="112" y="295"/>
      <point x="112" y="311" type="curve" smooth="yes"/>
      <point x="112" y="339"/>
      <point x="127" y="358"/>
      <point x="154" y="358" type="curve" smooth="yes"/>
      <point x="191" y="358"/>
      <point x="205" y="327"/>
      <point x="205" y="290" type="curve" smooth="yes"/>
      <point x="205" y="227"/>
      <point x="170" y="184"/>
      <point x="137" y="163" type="curve"/>
      <point x="172" y="100" type="line"/>
      <point x="321" y="174"/>
      <point x="415" y="278"/>
      <point x="474" y="491" type="curve"/>
      <point x="405" y="512" type="line"/>
      <point x="358" y="340"/>
      <point x="299" y="274"/>
      <point x="241" y="216" type="curve"/>
      <point x="238" y="206" type="line"/>
      <point x="263" y="234"/>
      <point x="273" y="271"/>
      <point x="273" y="306" type="curve" smooth="yes"/>
      <point x="273" y="372"/>
      <point x="226" y="426"/>
    </contour>
  </outline>
</glyph>
<glyph name="uni09F6" format="2">
  <advance width="544"/>
  <unicode hex="09F6"/>
  <outline>
    <contour>
      <point x="168" y="0" type="curve" smooth="yes"/>
      <point x="375" y="0"/>
      <point x="473" y="274"/>
      <point x="497" y="622" type="curve"/>
      <point x="426" y="627" type="line"/>
      <point x="397" y="296"/>
      <point x="319" y="69"/>
      <point x="166" y="69" type="curve" smooth="yes"/>
      <point x="126" y="69"/>
      <point x="107" y="89"/>
      <point x="107" y="117" type="curve" smooth="yes"/>
      <point x="107" y="143"/>
      <point x="123" y="159"/>
      <point x="163" y="172" type="curve" smooth="yes"/>
      <point x="219" y="190"/>
      <point x="246" y="206"/>
      <point x="266" y="235" type="curve" smooth="yes"/>
      <point x="281" y="256"/>
      <point x="288" y="284"/>
      <point x="288" y="319" type="curve" smooth="yes"/>
      <point x="288" y="393"/>
      <point x="239" y="447"/>
      <point x="166" y="447" type="curve" smooth="yes"/>
      <point x="95" y="447"/>
      <point x="53" y="403"/>
      <point x="53" y="343" type="curve" smooth="yes"/>
      <point x="53" y="317"/>
      <point x="58" y="291"/>
      <point x="66" y="269" type="curve"/>
      <point x="134" y="282" type="line"/>
      <point x="129" y="295"/>
      <point x="125" y="316"/>
      <point x="125" y="332" type="curve" smooth="yes"/>
      <point x="125" y="360"/>
      <point x="140" y="379"/>
      <point x="167" y="379" type="curve" smooth="yes"/>
      <point x="204" y="379"/>
      <point x="218" y="348"/>
      <point x="218" y="311" type="curve" smooth="yes"/>
      <point x="218" y="265"/>
      <point x="194" y="250"/>
      <point x="143" y="234" type="curve" smooth="yes"/>
      <point x="81" y="214"/>
      <point x="38" y="185"/>
      <point x="38" y="117" type="curve" smooth="yes"/>
      <point x="38" y="51"/>
      <point x="85" y="0"/>
    </contour>
  </outline>
</glyph>
<glyph name="uni09F7" format="2">
  <advance width="221"/>
  <unicode hex="09F7"/>
  <outline>
    <contour>
      <point x="75" y="0" type="line"/>
      <point x="146" y="0" type="line"/>
      <point x="146" y="622" type="line"/>
      <point x="75" y="622" type="line"/>
    </contour>
  </outline>
</glyph>
<glyph name="uni09F8" format="2">
  <advance width="496"/>
  <unicode hex="09F8"/>
  <outline>
    <contour>
      <point x="39" y="624" type="curve"/>
      <point x="31" y="550" type="line"/>
      <point x="67" y="546"/>
      <point x="78" y="532"/>
      <point x="78" y="482" type="curve" smooth="yes"/>
      <point x="78" y="196" type="line"/>
      <point x="136" y="164" type="line"/>
      <point x="210" y="270"/>
      <point x="296" y="352"/>
      <point x="379" y="406" type="curve"/>
      <point x="347" y="426" type="line"/>
      <point x="347" y="137" type="line" smooth="yes"/>
      <point x="347" y="75"/>
      <point x="355" y="50"/>
      <point x="373" y="30" type="curve" smooth="yes"/>
      <point x="391" y="10"/>
      <point x="419" y="-1"/>
      <point x="457" y="-3" type="curve"/>
      <point x="465" y="71" type="line"/>
      <point x="429" y="75"/>
      <point x="418" y="89"/>
      <point x="418" y="139" type="curve" smooth="yes"/>
      <point x="418" y="418" type="line"/>
      <point x="362" y="470" type="line"/>
      <point x="266" y="418"/>
      <point x="182" y="337"/>
      <point x="131" y="260" type="curve"/>
      <point x="149" y="238" type="line"/>
      <point x="149" y="484" type="line" smooth="yes"/>
      <point x="149" y="546"/>
      <point x="141" y="571"/>
      <point x="123" y="591" type="curve" smooth="yes"/>
      <point x="105" y="611"/>
      <point x="77" y="622"/>
    </contour>
  </outline>
</glyph>
<glyph name="uni09F9" format="2">
  <advance width="367"/>
  <unicode hex="09F9"/>
  <outline>
    <contour>
      <point x="40" y="330" type="curve" smooth="yes"/>
      <point x="40" y="228"/>
      <point x="94" y="160"/>
      <point x="184" y="160" type="curve" smooth="yes"/>
      <point x="274" y="160"/>
      <point x="327" y="228"/>
      <point x="327" y="330" type="curve" smooth="yes"/>
      <point x="327" y="432"/>
      <point x="274" y="500"/>
      <point x="184" y="500" type="curve" smooth="yes"/>
      <point x="94" y="500"/>
      <point x="40" y="432"/>
    </contour>
    <contour>
      <point x="111" y="330" type="curve" smooth="yes"/>
      <point x="111" y="392"/>
      <point x="134" y="433"/>
      <point x="184" y="433" type="curve" smooth="yes"/>
      <point x="235" y="433"/>
      <point x="256" y="392"/>
      <point x="256" y="330" type="curve" smooth="yes"/>
      <point x="256" y="268"/>
      <point x="235" y="227"/>
      <point x="184" y="227" type="curve" smooth="yes"/>
      <point x="134" y="227"/>
      <point x="111" y="268"/>
    </contour>
  </outline>
</glyph>
<glyph name="issharbeng" format="2">
  <advance width="492"/>
  <unicode hex="09FA"/>
  <outline>
    <contour>
      <point x="221" y="374" type="curve" smooth="yes"/>
      <point x="354" y="374"/>
      <point x="412" y="502"/>
      <point x="455" y="733" type="curve"/>
      <point x="382" y="752" type="line"/>
      <point x="338" y="525"/>
      <point x="304" y="450"/>
      <point x="221" y="450" type="curve" smooth="yes"/>
      <point x="157" y="450"/>
      <point x="132" y="516"/>
      <point x="128" y="624" type="curve"/>
      <point x="54" y="618" type="line"/>
      <point x="59" y="451"/>
      <point x="133" y="374"/>
    </contour>
    <contour>
      <point x="230" y="527" type="curve" smooth="yes"/>
      <point x="258" y="527"/>
      <point x="279" y="549"/>
      <point x="279" y="583" type="curve" smooth="yes"/>
      <point x="279" y="617"/>
      <point x="258" y="637"/>
      <point x="230" y="637" type="curve" smooth="yes"/>
      <point x="202" y="637"/>
      <point x="181" y="615"/>
      <point x="181" y="581" type="curve" smooth="yes"/>
      <point x="181" y="547"/>
      <point x="202" y="527"/>
    </contour>
  </outline>
</glyph>
<glyph name="uni09FB" format="2">
  <advance width="234"/>
  <unicode hex="09FB"/>
  <outline>
    <contour>
      <point x="43" y="252" type="curve" smooth="yes"/>
      <point x="43" y="170"/>
      <point x="83" y="76"/>
      <point x="218" y="-141" type="curve"/>
      <point x="283" y="-97" type="line"/>
      <point x="146" y="119"/>
      <point x="119" y="186"/>
      <point x="119" y="242" type="curve" smooth="yes"/>
      <point x="119" y="283"/>
      <point x="142" y="306"/>
      <point x="191" y="340" type="curve"/>
      <point x="144" y="405" type="line"/>
      <point x="84" y="367"/>
      <point x="43" y="324"/>
    </contour>
  </outline>
</glyph>
<glyph name="uni09FC" format="2">
  <advance width="452"/>
  <unicode hex="09FC"/>
  <outline>
    <contour>
      <point x="403" y="486" type="curve"/>
      <point x="333" y="495" type="line"/>
      <point x="324" y="399"/>
      <point x="301" y="344"/>
      <point x="226" y="344" type="curve" smooth="yes"/>
      <point x="149" y="344"/>
      <point x="129" y="402"/>
      <point x="119" y="494" type="curve"/>
      <point x="49" y="485" type="line"/>
      <point x="62" y="361"/>
      <point x="113" y="276"/>
      <point x="228" y="276" type="curve" smooth="yes"/>
      <point x="344" y="276"/>
      <point x="391" y="363"/>
    </contour>
    <contour>
      <point x="273" y="457" type="curve" smooth="yes"/>
      <point x="273" y="491"/>
      <point x="256" y="510"/>
      <point x="226" y="510" type="curve" smooth="yes"/>
      <point x="194" y="510"/>
      <point x="180" y="486"/>
      <point x="180" y="461" type="curve" smooth="yes"/>
      <point x="180" y="430"/>
      <point x="194" y="407"/>
      <point x="226" y="407" type="curve" smooth="yes"/>
      <point x="253" y="407"/>
      <point x="273" y="426"/>
    </contour>
    <component base="viramabeng" xOffset="317" yOffset="210"/>
  </outline>
</glyph>
<glyph name="uni09FD" format="2">
  <advance width="344"/>
  <unicode hex="09FD"/>
  <outline>
    <contour>
      <point x="173" y="242" type="curve" smooth="yes"/>
      <point x="254" y="242"/>
      <point x="297" y="303"/>
      <point x="297" y="380" type="curve" smooth="yes"/>
      <point x="297" y="459"/>
      <point x="254" y="518"/>
      <point x="173" y="518" type="curve" smooth="yes"/>
      <point x="89" y="518"/>
      <point x="48" y="455"/>
      <point x="48" y="380" type="curve" smooth="yes"/>
      <point x="48" y="299"/>
      <point x="93" y="242"/>
    </contour>
    <contour>
      <point x="173" y="305" type="curve" smooth="yes"/>
      <point x="135" y="305"/>
      <point x="114" y="335"/>
      <point x="114" y="380" type="curve" smooth="yes"/>
      <point x="114" y="423"/>
      <point x="131" y="455"/>
      <point x="173" y="455" type="curve" smooth="yes"/>
      <point x="211" y="455"/>
      <point x="231" y="423"/>
      <point x="231" y="380" type="curve" smooth="yes"/>
      <point x="231" y="335"/>
      <point x="211" y="305"/>
    </contour>
  </outline>
</glyph>
<glyph name="uni09FE" format="2">
  <unicode hex="09FE"/>
  <outline>
    <contour>
      <point x="-9" y="855" type="curve" smooth="yes"/>
      <point x="-58" y="855"/>
      <point x="-95" y="833"/>
      <point x="-95" y="795" type="curve" smooth="yes"/>
      <point x="-95" y="781"/>
      <point x="-92" y="769"/>
      <point x="-89" y="760" type="curve"/>
      <point x="-39" y="766" type="line"/>
      <point x="-42" y="774"/>
      <point x="-43" y="782"/>
      <point x="-43" y="787" type="curve" smooth="yes"/>
      <point x="-43" y="804"/>
      <point x="-26" y="811"/>
      <point x="-6" y="811" type="curve" smooth="yes"/>
      <point x="28" y="811"/>
      <point x="43" y="794"/>
      <point x="43" y="768" type="curve" smooth="yes"/>
      <point x="43" y="736"/>
      <point x="19" y="716"/>
      <point x="-35" y="716" type="curve" smooth="yes"/>
      <point x="-46" y="716"/>
      <point x="-77" y="718"/>
      <point x="-96" y="724" type="curve"/>
      <point x="-107" y="679" type="line"/>
      <point x="-24" y="666"/>
      <point x="26" y="637"/>
      <point x="81" y="586" type="curve"/>
      <point x="112" y="620" type="line"/>
      <point x="76" y="654"/>
      <point x="32" y="678"/>
      <point x="-1" y="689" type="curve"/>
      <point x="-13" y="674" type="line"/>
      <point x="56" y="680"/>
      <point x="93" y="710"/>
      <point x="93" y="767" type="curve" smooth="yes"/>
      <point x="93" y="809"/>
      <point x="70" y="855"/>
    </contour>
    <contour>
      <point x="13" y="917" type="line"/>
      <point x="-111" y="917" type="line"/>
      <point x="-111" y="872" type="line"/>
      <point x="-38" y="872" type="line"/>
      <point x="-38" y="845" type="line"/>
      <point x="13" y="847" type="line"/>
    </contour>
  </outline>
</glyph>
<glyph name="uni1CD0" format="2">
  <unicode hex="1CD0"/>
  <outline>
    <contour>
      <point x="-389" y="659" type="line"/>
      <point x="-331" y="636" type="line"/>
      <point x="-255" y="849" type="line"/>
      <point x="-169" y="636" type="line"/>
      <point x="-117" y="658" type="line"/>
      <point x="-226" y="909" type="line"/>
      <point x="-292" y="909" type="line"/>
    </contour>
  </outline>
</glyph>
<glyph name="uni1CD5" format="2">
  <unicode hex="1CD5"/>
  <outline>
    <contour>
      <point x="-231" y="-108" type="curve"/>
      <point x="-283" y="-108" type="line"/>
      <point x="-284" y="-178"/>
      <point x="-295" y="-207"/>
      <point x="-322" y="-207" type="curve" smooth="yes"/>
      <point x="-347" y="-207"/>
      <point x="-361" y="-187"/>
      <point x="-363" y="-106" type="curve"/>
      <point x="-422" y="-108" type="line"/>
      <point x="-420" y="-231"/>
      <point x="-383" y="-271"/>
      <point x="-329" y="-271" type="curve" smooth="yes"/>
      <point x="-269" y="-271"/>
      <point x="-247" y="-223"/>
    </contour>
    <contour>
      <point x="-228" y="-108" type="curve"/>
      <point x="-280" y="-108" type="line"/>
      <point x="-264" y="-223"/>
      <point x="-242" y="-271"/>
      <point x="-183" y="-271" type="curve" smooth="yes"/>
      <point x="-129" y="-271"/>
      <point x="-91" y="-231"/>
      <point x="-89" y="-108" type="curve"/>
      <point x="-149" y="-106" type="line"/>
      <point x="-151" y="-187"/>
      <point x="-164" y="-207"/>
      <point x="-189" y="-207" type="curve" smooth="yes"/>
      <point x="-216" y="-207"/>
      <point x="-227" y="-178"/>
    </contour>
  </outline>
</glyph>
<glyph name="uni1CD6" format="2">
  <unicode hex="1CD6"/>
  <outline>
    <contour>
      <point x="-394" y="-96" type="line"/>
      <point x="-394" y="-271" type="line"/>
      <point x="-121" y="-271" type="line"/>
      <point x="-121" y="-205" type="line"/>
      <point x="-325" y="-205" type="line"/>
      <point x="-325" y="-96" type="line"/>
    </contour>
  </outline>
</glyph>
<glyph name="uni1CD8" format="2">
  <unicode hex="1CD8"/>
  <outline>
    <contour>
      <point x="-93" y="-85" type="curve"/>
      <point x="-160" y="-66" type="line"/>
      <point x="-175" y="-155"/>
      <point x="-193" y="-206"/>
      <point x="-250" y="-206" type="curve" smooth="yes"/>
      <point x="-305" y="-206"/>
      <point x="-331" y="-160"/>
      <point x="-354" y="-67" type="curve"/>
      <point x="-417" y="-85" type="line"/>
      <point x="-387" y="-214"/>
      <point x="-325" y="-271"/>
      <point x="-252" y="-271" type="curve" smooth="yes"/>
      <point x="-168" y="-271"/>
      <point x="-113" y="-218"/>
    </contour>
  </outline>
</glyph>
<glyph name="uni1CE1" format="2">
  <advance width="405"/>
  <unicode hex="1CE1"/>
  <outline>
    <contour>
      <point x="422" y="811" type="curve"/>
      <point x="460" y="872" type="line"/>
      <point x="414" y="900"/>
      <point x="362" y="917"/>
      <point x="301" y="917" type="curve" smooth="yes"/>
      <point x="181" y="917"/>
      <point x="108" y="844"/>
      <point x="108" y="694" type="curve" smooth="yes"/>
      <point x="108" y="433"/>
      <point x="187" y="132"/>
      <point x="187" y="-148" type="curve" smooth="yes"/>
      <point x="187" y="-277"/>
      <point x="150" y="-333"/>
      <point x="40" y="-333" type="curve" smooth="yes"/>
      <point x="4" y="-333"/>
      <point x="-31" y="-328"/>
      <point x="-71" y="-319" type="curve"/>
      <point x="-79" y="-389" type="line"/>
      <point x="-35" y="-398"/>
      <point x="4" y="-404"/>
      <point x="43" y="-404" type="curve" smooth="yes"/>
      <point x="205" y="-404"/>
      <point x="263" y="-321"/>
      <point x="263" y="-151" type="curve" smooth="yes"/>
      <point x="263" y="163"/>
      <point x="184" y="442"/>
      <point x="184" y="690" type="curve" smooth="yes"/>
      <point x="184" y="804"/>
      <point x="228" y="848"/>
      <point x="301" y="848" type="curve" smooth="yes"/>
      <point x="343" y="848"/>
      <point x="382" y="836"/>
    </contour>
  </outline>
</glyph>
<glyph name="uni1CEA" format="2">
  <advance width="559"/>
  <unicode hex="1CEA"/>
  <outline>
    <contour>
      <point x="278" y="0" type="curve" smooth="yes"/>
      <point x="426" y="0"/>
      <point x="484" y="93"/>
      <point x="484" y="187" type="curve" smooth="yes"/>
      <point x="484" y="256"/>
      <point x="460" y="302"/>
      <point x="420" y="369" type="curve" smooth="yes"/>
      <point x="391" y="418"/>
      <point x="374" y="452"/>
      <point x="374" y="495" type="curve" smooth="yes"/>
      <point x="374" y="548"/>
      <point x="397" y="571"/>
      <point x="425" y="571" type="curve" smooth="yes"/>
      <point x="447" y="571"/>
      <point x="462" y="555"/>
      <point x="462" y="523" type="curve" smooth="yes"/>
      <point x="462" y="484"/>
      <point x="442" y="466"/>
      <point x="409" y="455" type="curve"/>
      <point x="422" y="388" type="line"/>
      <point x="496" y="408"/>
      <point x="530" y="454"/>
      <point x="530" y="520" type="curve" smooth="yes"/>
      <point x="530" y="587"/>
      <point x="490" y="632"/>
      <point x="422" y="632" type="curve" smooth="yes"/>
      <point x="332" y="632"/>
      <point x="299" y="565"/>
      <point x="299" y="503" type="curve" smooth="yes"/>
      <point x="299" y="437"/>
      <point x="322" y="389"/>
      <point x="361" y="326" type="curve" smooth="yes"/>
      <point x="396" y="269"/>
      <point x="409" y="236"/>
      <point x="409" y="193" type="curve" smooth="yes"/>
      <point x="409" y="141"/>
      <point x="381" y="71"/>
      <point x="279" y="71" type="curve" smooth="yes"/>
      <point x="179" y="71"/>
      <point x="150" y="136"/>
      <point x="150" y="193" type="curve" smooth="yes"/>
      <point x="150" y="240"/>
      <point x="165" y="271"/>
      <point x="196" y="320" type="curve" smooth="yes"/>
      <point x="240" y="389"/>
      <point x="261" y="437"/>
      <point x="261" y="498" type="curve" smooth="yes"/>
      <point x="261" y="549"/>
      <point x="236" y="632"/>
      <point x="142" y="632" type="curve" smooth="yes"/>
      <point x="71" y="632"/>
      <point x="30" y="587"/>
      <point x="30" y="519" type="curve" smooth="yes"/>
      <point x="30" y="463"/>
      <point x="60" y="408"/>
      <point x="138" y="388" type="curve"/>
      <point x="151" y="455" type="line"/>
      <point x="115" y="462"/>
      <point x="98" y="484"/>
      <point x="98" y="520" type="curve" smooth="yes"/>
      <point x="98" y="550"/>
      <point x="111" y="571"/>
      <point x="141" y="571" type="curve" smooth="yes"/>
      <point x="165" y="571"/>
      <point x="186" y="550"/>
      <point x="186" y="497" type="curve" smooth="yes"/>
      <point x="186" y="449"/>
      <point x="167" y="414"/>
      <point x="142" y="373" type="curve" smooth="yes"/>
      <point x="100" y="305"/>
      <point x="75" y="261"/>
      <point x="75" y="191" type="curve" smooth="yes"/>
      <point x="75" y="93"/>
      <point x="135" y="0"/>
    </contour>
  </outline>
</glyph>
<glyph name="uni1CED" format="2">
  <unicode hex="1CED"/>
  <outline>
    <contour>
      <point x="-291" y="-95" type="line"/>
      <point x="-113" y="-271" type="line"/>
      <point x="-63" y="-221" type="line"/>
      <point x="-241" y="-45" type="line"/>
    </contour>
  </outline>
</glyph>
<glyph name="uni1CF2" format="2">
  <advance width="405"/>
  <unicode hex="1CF2"/>
  <outline>
    <contour>
      <point x="206" y="289" type="curve" smooth="yes"/>
      <point x="295" y="289"/>
      <point x="352" y="344"/>
      <point x="374" y="485" type="curve"/>
      <point x="303" y="505" type="line"/>
      <point x="287" y="411"/>
      <point x="268" y="357"/>
      <point x="208" y="357" type="curve" smooth="yes"/>
      <point x="150" y="357"/>
      <point x="123" y="405"/>
      <point x="99" y="504" type="curve"/>
      <point x="32" y="485" type="line"/>
      <point x="64" y="349"/>
      <point x="129" y="289"/>
    </contour>
    <contour>
      <point x="200" y="266" type="curve" smooth="yes"/>
      <point x="111" y="266"/>
      <point x="54" y="211"/>
      <point x="32" y="70" type="curve"/>
      <point x="103" y="50" type="line"/>
      <point x="119" y="144"/>
      <point x="138" y="198"/>
      <point x="198" y="198" type="curve" smooth="yes"/>
      <point x="256" y="198"/>
      <point x="283" y="150"/>
      <point x="307" y="51" type="curve"/>
      <point x="374" y="70" type="line"/>
      <point x="342" y="206"/>
      <point x="277" y="266"/>
    </contour>
  </outline>
</glyph>
<glyph name="uni1CF6" format="2">
  <advance width="480"/>
  <unicode hex="1CF6"/>
  <outline>
    <contour>
      <point x="151" y="193" type="curve" smooth="yes"/>
      <point x="225" y="193"/>
      <point x="249" y="249"/>
      <point x="270" y="420" type="curve"/>
      <point x="208" y="420" type="line"/>
      <point x="206" y="309"/>
      <point x="198" y="261"/>
      <point x="159" y="261" type="curve" smooth="yes"/>
      <point x="122" y="261"/>
      <point x="108" y="296"/>
      <point x="105" y="424" type="curve"/>
      <point x="36" y="421" type="line"/>
      <point x="39" y="244"/>
      <point x="83" y="193"/>
    </contour>
    <contour>
      <point x="329" y="193" type="curve" smooth="yes"/>
      <point x="397" y="193"/>
      <point x="442" y="244"/>
      <point x="444" y="421" type="curve"/>
      <point x="375" y="424" type="line"/>
      <point x="372" y="296"/>
      <point x="359" y="261"/>
      <point x="322" y="261" type="curve" smooth="yes"/>
      <point x="284" y="261"/>
      <point x="273" y="309"/>
      <point x="272" y="420" type="curve"/>
      <point x="212" y="420" type="line"/>
      <point x="231" y="249"/>
      <point x="256" y="193"/>
    </contour>
  </outline>
</glyph>
<glyph name="uni1CF7" format="2">
  <advance width="405"/>
  <unicode hex="1CF7"/>
  <outline>
    <contour>
      <point x="422" y="811" type="curve"/>
      <point x="460" y="872" type="line"/>
      <point x="414" y="900"/>
      <point x="362" y="917"/>
      <point x="301" y="917" type="curve" smooth="yes"/>
      <point x="181" y="917"/>
      <point x="108" y="844"/>
      <point x="108" y="692" type="curve" smooth="yes"/>
      <point x="108" y="340"/>
      <point x="148" y="75"/>
      <point x="148" y="-271" type="curve"/>
      <point x="224" y="-271" type="line"/>
      <point x="224" y="78"/>
      <point x="184" y="344"/>
      <point x="184" y="688" type="curve" smooth="yes"/>
      <point x="184" y="804"/>
      <point x="228" y="848"/>
      <point x="301" y="848" type="curve" smooth="yes"/>
      <point x="343" y="848"/>
      <point x="382" y="836"/>
    </contour>
  </outline>
</glyph>
<glyph name="uni20B9.beng" format="2">
  <advance width="437"/>
  <unicode hex="20B9"/>
  <outline>
    <contour>
      <point x="384" y="554" type="line"/>
      <point x="384" y="622" type="line"/>
      <point x="62" y="622" type="line"/>
      <point x="62" y="554" type="line"/>
      <point x="103" y="554" type="line" smooth="yes"/>
      <point x="145" y="554"/>
      <point x="165" y="545"/>
      <point x="180" y="529" type="curve" smooth="yes"/>
      <point x="198" y="510"/>
      <point x="204" y="480"/>
      <point x="204" y="439" type="curve" smooth="yes"/>
      <point x="204" y="396"/>
      <point x="199" y="365"/>
      <point x="183" y="345" type="curve" smooth="yes"/>
      <point x="168" y="327"/>
      <point x="147" y="318"/>
      <point x="100" y="318" type="curve" smooth="yes"/>
      <point x="76" y="318" type="line"/>
      <point x="63" y="255" type="line"/>
      <point x="208" y="0" type="line"/>
      <point x="301" y="0" type="line"/>
      <point x="136" y="279" type="line"/>
      <point x="138" y="252" type="line"/>
      <point x="231" y="267"/>
      <point x="279" y="320"/>
      <point x="279" y="438" type="curve" smooth="yes"/>
      <point x="279" y="503"/>
      <point x="260" y="538"/>
      <point x="239" y="554" type="curve"/>
    </contour>
    <contour>
      <point x="62" y="474" type="line"/>
      <point x="62" y="406" type="line"/>
      <point x="384" y="406" type="line"/>
      <point x="384" y="474" type="line"/>
    </contour>
  </outline>
</glyph>
<glyph name="minus.beng" format="2">
  <advance width="437"/>
  <unicode hex="2212"/>
  <outline>
    <contour>
      <point x="48" y="357" type="line"/>
      <point x="48" y="288" type="line"/>
      <point x="389" y="288" type="line"/>
      <point x="389" y="357" type="line"/>
    </contour>
  </outline>
</glyph>
<glyph name="uniA8F1" format="2">
  <unicode hex="A8F1"/>
  <outline>
    <contour>
      <point x="-98" y="628" type="curve" smooth="yes"/>
      <point x="-57" y="628"/>
      <point x="-33" y="655"/>
      <point x="-33" y="697" type="curve" smooth="yes"/>
      <point x="-33" y="732"/>
      <point x="-44" y="755"/>
      <point x="-83" y="794" type="curve" smooth="yes"/>
      <point x="-109" y="820"/>
      <point x="-118" y="830"/>
      <point x="-118" y="843" type="curve" smooth="yes"/>
      <point x="-118" y="855"/>
      <point x="-110" y="861"/>
      <point x="-95" y="861" type="curve" smooth="yes"/>
      <point x="-41" y="861" type="line"/>
      <point x="-41" y="903" type="line"/>
      <point x="-81" y="903" type="line" smooth="yes"/>
      <point x="-116" y="903"/>
      <point x="-129" y="898"/>
      <point x="-141" y="890" type="curve" smooth="yes"/>
      <point x="-155" y="881"/>
      <point x="-161" y="866"/>
      <point x="-161" y="846" type="curve" smooth="yes"/>
      <point x="-161" y="822"/>
      <point x="-151" y="800"/>
      <point x="-116" y="765" type="curve" smooth="yes"/>
      <point x="-84" y="733"/>
      <point x="-76" y="718"/>
      <point x="-76" y="698" type="curve" smooth="yes"/>
      <point x="-76" y="682"/>
      <point x="-84" y="671"/>
      <point x="-101" y="671" type="curve" smooth="yes"/>
      <point x="-128" y="671"/>
      <point x="-146" y="704"/>
      <point x="-164" y="742" type="curve"/>
      <point x="-203" y="724" type="line"/>
      <point x="-169" y="653"/>
      <point x="-140" y="628"/>
    </contour>
  </outline>
</glyph>
<glyph name="aivowelsigninibeng" format="2">
  <advance width="269"/>
  <outline>
    <contour>
      <point x="208" y="597" type="line"/>
      <point x="275" y="622" type="line"/>
      <point x="273" y="681"/>
      <point x="265" y="716"/>
      <point x="239" y="741" type="curve" smooth="yes"/>
      <point x="218" y="761"/>
      <point x="190" y="771"/>
      <point x="135" y="771" type="curve"/>
      <point x="134" y="771" type="line"/>
      <point x="96" y="771"/>
      <point x="77" y="778"/>
      <point x="61" y="792" type="curve" smooth="yes"/>
      <point x="43" y="808"/>
      <point x="37" y="834"/>
      <point x="37" y="866" type="curve" smooth="yes"/>
      <point x="37" y="879"/>
      <point x="38" y="892"/>
      <point x="40" y="907" type="curve"/>
      <point x="-27" y="912" type="line"/>
      <point x="-30" y="896"/>
      <point x="-32" y="877"/>
      <point x="-32" y="859" type="curve" smooth="yes"/>
      <point x="-32" y="808"/>
      <point x="-19" y="766"/>
      <point x="11" y="739" type="curve" smooth="yes"/>
      <point x="38" y="714"/>
      <point x="80" y="702"/>
      <point x="137" y="702" type="curve"/>
      <point x="138" y="702" type="line"/>
      <point x="191" y="702"/>
      <point x="208" y="673"/>
      <point x="208" y="609" type="curve" smooth="yes"/>
    </contour>
    <component base="evowelsigninibeng"/>
  </outline>
</glyph>
<glyph name="aulengthmarkshortbeng" format="2">
  <advance width="207"/>
  <outline>
    <contour>
      <point x="139" y="0" type="line"/>
      <point x="139" y="554" type="line"/>
      <point x="213" y="554" type="line"/>
      <point x="213" y="622" type="line"/>
      <point x="-6" y="622" type="line"/>
      <point x="-6" y="554" type="line"/>
      <point x="68" y="554" type="line"/>
      <point x="68" y="0" type="line"/>
    </contour>
    <contour>
      <point x="72" y="622" type="curve"/>
      <point x="139" y="622" type="line"/>
      <point x="137" y="681"/>
      <point x="129" y="716"/>
      <point x="103" y="741" type="curve" smooth="yes"/>
      <point x="82" y="761"/>
      <point x="54" y="771"/>
      <point x="-6" y="771" type="curve" smooth="yes"/>
      <point x="-13" y="771" type="line" smooth="yes"/>
      <point x="-52" y="771"/>
      <point x="-73" y="778"/>
      <point x="-89" y="792" type="curve" smooth="yes"/>
      <point x="-108" y="808"/>
      <point x="-114" y="834"/>
      <point x="-114" y="866" type="curve" smooth="yes"/>
      <point x="-114" y="879"/>
      <point x="-113" y="892"/>
      <point x="-111" y="907" type="curve"/>
      <point x="-178" y="912" type="line"/>
      <point x="-181" y="896"/>
      <point x="-183" y="877"/>
      <point x="-183" y="859" type="curve" smooth="yes"/>
      <point x="-183" y="808"/>
      <point x="-170" y="766"/>
      <point x="-139" y="739" type="curve" smooth="yes"/>
      <point x="-111" y="715"/>
      <point x="-71" y="702"/>
      <point x="-10" y="702" type="curve" smooth="yes"/>
      <point x="1" y="702" type="line" smooth="yes"/>
      <point x="55" y="702"/>
      <point x="69" y="673"/>
    </contour>
  </outline>
</glyph>
<glyph name="bababeng" format="2">
  <advance width="719"/>
  <outline>
    <contour>
      <point x="448" y="622" type="line"/>
      <point x="-6" y="622" type="line"/>
      <point x="-6" y="554" type="line"/>
      <point x="304" y="554" type="line"/>
      <point x="304" y="485" type="line"/>
      <point x="319" y="527" type="line"/>
      <point x="215" y="480"/>
      <point x="112" y="410"/>
      <point x="23" y="336" type="curve"/>
      <point x="55" y="251" type="line"/>
      <point x="169" y="219"/>
      <point x="257" y="121"/>
      <point x="304" y="0" type="curve"/>
      <point x="375" y="0" type="line"/>
      <point x="375" y="554" type="line"/>
      <point x="448" y="554" type="line"/>
    </contour>
    <contour>
      <point x="304" y="477" type="line"/>
      <point x="304" y="188" type="line" smooth="yes"/>
      <point x="304" y="154"/>
      <point x="306" y="108"/>
      <point x="309" y="79" type="curve"/>
      <point x="316" y="87" type="line"/>
      <point x="275" y="203"/>
      <point x="190" y="275"/>
      <point x="103" y="308" type="curve"/>
      <point x="167" y="363"/>
      <point x="257" y="417"/>
      <point x="325" y="453" type="curve"/>
    </contour>
    <contour>
      <point x="725" y="622" type="line"/>
      <point x="438" y="622" type="line"/>
      <point x="438" y="554" type="line"/>
      <point x="580" y="554" type="line"/>
      <point x="580" y="485" type="line"/>
      <point x="595" y="527" type="line"/>
      <point x="500" y="484"/>
      <point x="404" y="421"/>
      <point x="323" y="351" type="curve"/>
      <point x="331" y="254" type="line"/>
      <point x="446" y="218"/>
      <point x="533" y="121"/>
      <point x="580" y="0" type="curve"/>
      <point x="651" y="0" type="line"/>
      <point x="651" y="554" type="line"/>
      <point x="725" y="554" type="line"/>
    </contour>
    <contour>
      <point x="580" y="477" type="line"/>
      <point x="580" y="188" type="line" smooth="yes"/>
      <point x="580" y="154"/>
      <point x="582" y="108"/>
      <point x="585" y="79" type="curve"/>
      <point x="592" y="87" type="line"/>
      <point x="551" y="203"/>
      <point x="466" y="275"/>
      <point x="379" y="308" type="curve"/>
      <point x="443" y="363"/>
      <point x="533" y="417"/>
      <point x="601" y="453" type="curve"/>
    </contour>
  </outline>
</glyph>
<glyph name="babhabeng" format="2">
  <advance width="504"/>
  <outline>
    <contour>
      <point x="399" y="594" type="line"/>
      <point x="328" y="593" type="line"/>
      <point x="328" y="544" type="line"/>
      <point x="264" y="521"/>
      <point x="161" y="469"/>
      <point x="91" y="420" type="curve"/>
      <point x="123" y="335" type="line"/>
      <point x="201" y="314"/>
      <point x="277" y="261"/>
      <point x="328" y="175" type="curve"/>
      <point x="399" y="175" type="line"/>
    </contour>
    <contour>
      <point x="328" y="473" type="curve"/>
      <point x="328" y="338" type="line"/>
      <point x="328" y="302"/>
      <point x="328" y="287"/>
      <point x="330" y="263" type="curve"/>
      <point x="284" y="328"/>
      <point x="220" y="374"/>
      <point x="159" y="395" type="curve"/>
      <point x="151" y="381" type="line"/>
      <point x="211" y="419"/>
      <point x="284" y="457"/>
    </contour>
    <contour>
      <point x="510" y="622" type="line"/>
      <point x="-6" y="622" type="line"/>
      <point x="-6" y="554" type="line"/>
      <point x="510" y="554" type="line"/>
    </contour>
    <contour>
      <point x="290" y="55" type="curve" smooth="yes"/>
      <point x="359" y="55"/>
      <point x="399" y="101"/>
      <point x="432" y="189" type="curve"/>
      <point x="430" y="223" type="line"/>
      <point x="380" y="214" type="line"/>
      <point x="359" y="157"/>
      <point x="334" y="122"/>
      <point x="298" y="122" type="curve" smooth="yes"/>
      <point x="281" y="122"/>
      <point x="264" y="133"/>
      <point x="264" y="165" type="curve" smooth="yes"/>
      <point x="264" y="188"/>
      <point x="269" y="211"/>
      <point x="274" y="225" type="curve"/>
      <point x="206" y="243" type="line"/>
      <point x="198" y="221"/>
      <point x="192" y="194"/>
      <point x="192" y="163" type="curve" smooth="yes"/>
      <point x="192" y="96"/>
      <point x="235" y="55"/>
    </contour>
    <contour>
      <point x="303" y="-117" type="curve" smooth="yes"/>
      <point x="410" y="-117"/>
      <point x="472" y="-50"/>
      <point x="472" y="65" type="curve" smooth="yes"/>
      <point x="472" y="125"/>
      <point x="456" y="173"/>
      <point x="430" y="223" type="curve"/>
      <point x="370" y="167" type="line"/>
      <point x="389" y="142"/>
      <point x="403" y="107"/>
      <point x="403" y="63" type="curve" smooth="yes"/>
      <point x="403" y="1"/>
      <point x="372" y="-46"/>
      <point x="299" y="-46" type="curve" smooth="yes"/>
      <point x="200" y="-46"/>
      <point x="137" y="31"/>
      <point x="87" y="258" type="curve"/>
      <point x="18" y="239" type="line"/>
      <point x="75" y="-43"/>
      <point x="185" y="-117"/>
    </contour>
  </outline>
</glyph>
<glyph name="badabeng" format="2">
  <advance width="640"/>
  <outline>
    <contour>
      <point x="646" y="622" type="line"/>
      <point x="-6" y="622" type="line"/>
      <point x="-6" y="554" type="line"/>
      <point x="266" y="554" type="line"/>
      <point x="266" y="180" type="line"/>
      <point x="314" y="180" type="line"/>
      <point x="388" y="286"/>
      <point x="474" y="368"/>
      <point x="557" y="422" type="curve"/>
      <point x="527" y="410" type="line"/>
      <point x="504" y="370"/>
      <point x="487" y="306"/>
      <point x="487" y="215" type="curve" smooth="yes"/>
      <point x="487" y="143"/>
      <point x="497" y="71"/>
      <point x="518" y="-7" type="curve"/>
      <point x="587" y="10" type="line"/>
      <point x="565" y="87"/>
      <point x="558" y="139"/>
      <point x="558" y="202" type="curve" smooth="yes"/>
      <point x="558" y="293"/>
      <point x="571" y="349"/>
      <point x="602" y="428" type="curve"/>
      <point x="540" y="486" type="line"/>
      <point x="444" y="434"/>
      <point x="360" y="353"/>
      <point x="309" y="276" type="curve"/>
      <point x="327" y="254" type="line"/>
      <point x="327" y="554" type="line"/>
      <point x="646" y="554" type="line"/>
    </contour>
    <contour>
      <point x="301" y="609" type="line"/>
      <point x="257" y="608" type="line"/>
      <point x="257" y="543" type="line"/>
      <point x="181" y="513"/>
      <point x="90" y="463"/>
      <point x="22" y="414" type="curve"/>
      <point x="54" y="329" type="line"/>
      <point x="135" y="304"/>
      <point x="202" y="263"/>
      <point x="256" y="180" type="curve"/>
      <point x="301" y="180" type="line"/>
    </contour>
    <contour>
      <point x="256" y="506" type="line"/>
      <point x="256" y="349" type="line" smooth="yes"/>
      <point x="256" y="330"/>
      <point x="257" y="288"/>
      <point x="259" y="263" type="curve"/>
      <point x="214" y="324"/>
      <point x="148" y="369"/>
      <point x="82" y="391" type="curve"/>
      <point x="75" y="371" type="line"/>
      <point x="129" y="412"/>
      <point x="220" y="456"/>
      <point x="275" y="478" type="curve"/>
    </contour>
  </outline>
</glyph>
<glyph name="badarabeng" format="2">
  <advance width="640"/>
  <outline>
    <contour>
      <point x="646" y="622" type="line"/>
      <point x="-6" y="622" type="line"/>
      <point x="-6" y="554" type="line"/>
      <point x="266" y="554" type="line"/>
      <point x="266" y="180" type="line"/>
      <point x="314" y="180" type="line"/>
      <point x="388" y="286"/>
      <point x="474" y="368"/>
      <point x="557" y="422" type="curve"/>
      <point x="527" y="410" type="line"/>
      <point x="504" y="370"/>
      <point x="487" y="306"/>
      <point x="487" y="215" type="curve" smooth="yes"/>
      <point x="487" y="140"/>
      <point x="494" y="94"/>
      <point x="504" y="46" type="curve" smooth="yes"/>
      <point x="525" y="-59" type="line"/>
      <point x="594" y="-43" type="line"/>
      <point x="576" y="24"/>
      <point x="558" y="104"/>
      <point x="558" y="196" type="curve" smooth="yes"/>
      <point x="558" y="293"/>
      <point x="571" y="349"/>
      <point x="602" y="428" type="curve"/>
      <point x="540" y="486" type="line"/>
      <point x="444" y="434"/>
      <point x="360" y="353"/>
      <point x="309" y="276" type="curve"/>
      <point x="327" y="254" type="line"/>
      <point x="327" y="554" type="line"/>
      <point x="646" y="554" type="line"/>
    </contour>
    <contour>
      <point x="301" y="609" type="line"/>
      <point x="257" y="608" type="line"/>
      <point x="257" y="543" type="line"/>
      <point x="181" y="513"/>
      <point x="90" y="463"/>
      <point x="22" y="414" type="curve"/>
      <point x="54" y="329" type="line"/>
      <point x="135" y="304"/>
      <point x="202" y="263"/>
      <point x="256" y="180" type="curve"/>
      <point x="301" y="180" type="line"/>
    </contour>
    <contour>
      <point x="256" y="506" type="line"/>
      <point x="256" y="349" type="line" smooth="yes"/>
      <point x="256" y="330"/>
      <point x="257" y="288"/>
      <point x="259" y="263" type="curve"/>
      <point x="214" y="324"/>
      <point x="148" y="369"/>
      <point x="82" y="391" type="curve"/>
      <point x="75" y="371" type="line"/>
      <point x="129" y="412"/>
      <point x="220" y="456"/>
      <point x="275" y="478" type="curve"/>
    </contour>
    <contour>
      <point x="527" y="10" type="line"/>
      <point x="513" y="40" type="line"/>
      <point x="484" y="79"/>
      <point x="455" y="88"/>
      <point x="412" y="88" type="curve" smooth="yes"/>
      <point x="362" y="88"/>
      <point x="315" y="74"/>
      <point x="244" y="74" type="curve" smooth="yes"/>
      <point x="183" y="74"/>
      <point x="149" y="99"/>
      <point x="149" y="155" type="curve" smooth="yes"/>
      <point x="149" y="175"/>
      <point x="151" y="191"/>
      <point x="154" y="209" type="curve"/>
      <point x="84" y="219" type="line"/>
      <point x="80" y="200"/>
      <point x="78" y="177"/>
      <point x="78" y="153" type="curve" smooth="yes"/>
      <point x="78" y="39"/>
      <point x="161" y="5"/>
      <point x="240" y="5" type="curve" smooth="yes"/>
      <point x="316" y="5"/>
      <point x="374" y="19"/>
      <point x="418" y="19" type="curve" smooth="yes"/>
      <point x="481" y="19"/>
      <point x="505" y="-1"/>
      <point x="525" y="-57" type="curve"/>
    </contour>
  </outline>
</glyph>
<glyph name="badhabeng" format="2">
  <advance width="553"/>
  <outline>
    <contour>
      <point x="342" y="556" type="line"/>
      <point x="272" y="555" type="line"/>
      <point x="272" y="479" type="line"/>
      <point x="277" y="523" type="line"/>
      <point x="193" y="488"/>
      <point x="117" y="442"/>
      <point x="23" y="377" type="curve"/>
      <point x="55" y="292" type="line"/>
      <point x="113" y="273"/>
      <point x="162" y="247"/>
      <point x="200" y="206" type="curve"/>
      <point x="276" y="235" type="line"/>
      <point x="342" y="234" type="line"/>
    </contour>
    <contour>
      <point x="271" y="476" type="line"/>
      <point x="271" y="263" type="line"/>
      <point x="244" y="246" type="line"/>
      <point x="202" y="290"/>
      <point x="154" y="328"/>
      <point x="91" y="352" type="curve"/>
      <point x="84" y="338" type="line"/>
      <point x="148" y="384"/>
      <point x="218" y="426"/>
      <point x="286" y="455" type="curve"/>
    </contour>
    <contour>
      <point x="559" y="622" type="line"/>
      <point x="-6" y="622" type="line"/>
      <point x="-6" y="554" type="line"/>
      <point x="559" y="554" type="line"/>
    </contour>
    <contour>
      <point x="342" y="289" type="line"/>
      <point x="271" y="287" type="line"/>
      <point x="209" y="256"/>
      <point x="120" y="198"/>
      <point x="65" y="155" type="curve"/>
      <point x="94" y="81" type="line"/>
      <point x="167" y="64"/>
      <point x="216" y="31"/>
      <point x="271" y="-43" type="curve"/>
      <point x="342" y="-43" type="line"/>
    </contour>
    <contour>
      <point x="271" y="215" type="curve"/>
      <point x="271" y="110" type="line"/>
      <point x="271" y="88"/>
      <point x="272" y="57"/>
      <point x="273" y="35" type="curve"/>
      <point x="236" y="86"/>
      <point x="186" y="117"/>
      <point x="135" y="134" type="curve"/>
      <point x="130" y="127" type="line"/>
      <point x="170" y="158"/>
      <point x="223" y="190"/>
    </contour>
    <contour>
      <point x="487" y="147" type="curve" smooth="yes"/>
      <point x="487" y="210"/>
      <point x="499" y="272"/>
      <point x="517" y="322" type="curve"/>
      <point x="461" y="375" type="line"/>
      <point x="410" y="357"/>
      <point x="356" y="328"/>
      <point x="308" y="302" type="curve"/>
      <point x="317" y="235" type="line"/>
      <point x="356" y="258"/>
      <point x="405" y="284"/>
      <point x="447" y="301" type="curve"/>
      <point x="442" y="316" type="line"/>
      <point x="423" y="261"/>
      <point x="418" y="201"/>
      <point x="418" y="151" type="curve" smooth="yes"/>
      <point x="418" y="87"/>
      <point x="426" y="32"/>
      <point x="441" y="-25" type="curve"/>
      <point x="507" y="-12" type="line"/>
      <point x="494" y="42"/>
      <point x="487" y="93"/>
    </contour>
  </outline>
</glyph>
<glyph name="bahalfbeng" format="2">
  <advance width="380"/>
  <outline>
    <contour>
      <point x="386" y="622" type="line"/>
      <point x="-6" y="622" type="line"/>
      <point x="-6" y="554" type="line"/>
      <point x="386" y="554" type="line"/>
    </contour>
    <contour>
      <point x="337" y="557" type="line"/>
      <point x="267" y="559" type="line"/>
      <point x="267" y="482" type="line"/>
      <point x="275" y="523" type="line"/>
      <point x="191" y="489"/>
      <point x="111" y="444"/>
      <point x="22" y="382" type="curve"/>
      <point x="54" y="297" type="line"/>
      <point x="133" y="273"/>
      <point x="207" y="228"/>
      <point x="266" y="125" type="curve"/>
      <point x="337" y="125" type="line"/>
    </contour>
    <contour>
      <point x="266" y="473" type="line"/>
      <point x="266" y="303" type="line" smooth="yes"/>
      <point x="266" y="283"/>
      <point x="267" y="239"/>
      <point x="268" y="214" type="curve"/>
      <point x="230" y="276"/>
      <point x="160" y="333"/>
      <point x="90" y="357" type="curve"/>
      <point x="83" y="343" type="line"/>
      <point x="139" y="383"/>
      <point x="216" y="427"/>
      <point x="284" y="455" type="curve"/>
    </contour>
  </outline>
</glyph>
